AnekDevanagari-CondensedMedium.ufo
<glyph name="hyphen" format="2">
  <advance width="573"/>
  <unicode hex="002D"/>
  <outline>
    <contour>
      <point x="486" y="444" type="line"/>
      <point x="486" y="591" type="line"/>
      <point x="87" y="591" type="line"/>
      <point x="87" y="444" type="line"/>
    </contour>
  </outline>
</glyph>
<glyph name="zero" format="2">
  <advance width="762"/>
  <unicode hex="0030"/>
  <outline>
    <contour>
      <point x="381" y="-19" type="curve" smooth="yes"/>
      <point x="583" y="-19"/>
      <point x="683" y="100"/>
      <point x="683" y="334" type="curve" smooth="yes"/>
      <point x="683" y="944" type="line" smooth="yes"/>
      <point x="683" y="1178"/>
      <point x="583" y="1297"/>
      <point x="381" y="1297" type="curve" smooth="yes"/>
      <point x="178" y="1297"/>
      <point x="79" y="1178"/>
      <point x="79" y="944" type="curve" smooth="yes"/>
      <point x="79" y="334" type="line" smooth="yes"/>
      <point x="79" y="100"/>
      <point x="178" y="-19"/>
    </contour>
    <contour>
      <point x="381" y="133" type="curve" smooth="yes"/>
      <point x="295" y="133"/>
      <point x="259" y="193"/>
      <point x="259" y="320" type="curve" smooth="yes"/>
      <point x="259" y="959" type="line" smooth="yes"/>
      <point x="259" y="1085"/>
      <point x="295" y="1146"/>
      <point x="381" y="1146" type="curve" smooth="yes"/>
      <point x="467" y="1146"/>
      <point x="503" y="1085"/>
      <point x="503" y="959" type="curve" smooth="yes"/>
      <point x="503" y="320" type="line" smooth="yes"/>
      <point x="503" y="193"/>
      <point x="467" y="133"/>
    </contour>
  </outline>
</glyph>
<glyph name="grave" format="2">
  <advance width="488"/>
  <unicode hex="0060"/>
  <anchor x="322" y="998" name="_top"/>
  <anchor x="317" y="1317" name="top"/>
  <outline>
    <contour>
      <point x="96" y="1349" type="line"/>
      <point x="96" y="1349" type="line"/>
      <point x="252" y="1092" type="line"/>
      <point x="392" y="1092" type="line"/>
      <point x="392" y="1092" type="line"/>
      <point x="274" y="1349" type="line"/>
    </contour>
  </outline>
</glyph>
<glyph name="m" format="2">
  <advance width="1115"/>
  <unicode hex="006D"/>
  <anchor x="557" y="0" name="bottom"/>
  <anchor x="557" y="998" name="top"/>
  <outline>
    <contour>
      <point x="1033" y="0" type="line"/>
      <point x="1033" y="731" type="line" smooth="yes"/>
      <point x="1033" y="918"/>
      <point x="974" y="1012"/>
      <point x="836" y="1012" type="curve" smooth="yes"/>
      <point x="707" y="1012"/>
      <point x="658" y="937"/>
      <point x="638" y="853" type="curve"/>
      <point x="620" y="853" type="line"/>
      <point x="644" y="732" type="line"/>
      <point x="657" y="810"/>
      <point x="695" y="866"/>
      <point x="762" y="866" type="curve" smooth="yes"/>
      <point x="833" y="866"/>
      <point x="859" y="812"/>
      <point x="859" y="715" type="curve" smooth="yes"/>
      <point x="859" y="0" type="line"/>
    </contour>
    <contour>
      <point x="262" y="0" type="line"/>
      <point x="262" y="826" type="line"/>
      <point x="254" y="832" type="line"/>
      <point x="261" y="998" type="line"/>
      <point x="88" y="998" type="line"/>
      <point x="88" y="0" type="line"/>
    </contour>
    <contour>
      <point x="647" y="0" type="line"/>
      <point x="647" y="725" type="line" smooth="yes"/>
      <point x="647" y="755"/>
      <point x="643" y="784"/>
      <point x="637" y="808" type="curve"/>
      <point x="620" y="942"/>
      <point x="566" y="1012"/>
      <point x="452" y="1012" type="curve" smooth="yes"/>
      <point x="335" y="1012"/>
      <point x="285" y="946"/>
      <point x="264" y="853" type="curve"/>
      <point x="222" y="853" type="line"/>
      <point x="259" y="731" type="line"/>
      <point x="272" y="810"/>
      <point x="310" y="866"/>
      <point x="377" y="866" type="curve" smooth="yes"/>
      <point x="448" y="866"/>
      <point x="474" y="812"/>
      <point x="474" y="715" type="curve" smooth="yes"/>
      <point x="474" y="0" type="line"/>
    </contour>
  </outline>
</glyph>
<glyph name="o" format="2">
  <advance width="725"/>
  <unicode hex="006F"/>
  <anchor x="363" y="0" name="bottom"/>
  <anchor x="363" y="499" name="center"/>
  <anchor x="543" y="5" name="ogonek"/>
  <anchor x="363" y="998" name="top"/>
  <anchor x="685" y="998" name="topright"/>
  <outline>
    <contour>
      <point x="363" y="-17" type="curve" smooth="yes"/>
      <point x="556" y="-17"/>
      <point x="656" y="99"/>
      <point x="656" y="314" type="curve" smooth="yes"/>
      <point x="656" y="685" type="line" smooth="yes"/>
      <point x="656" y="900"/>
      <point x="556" y="1015"/>
      <point x="363" y="1015" type="curve" smooth="yes"/>
      <point x="169" y="1015"/>
      <point x="69" y="900"/>
      <point x="69" y="685" type="curve" smooth="yes"/>
      <point x="69" y="314" type="line" smooth="yes"/>
      <point x="69" y="99"/>
      <point x="169" y="-17"/>
    </contour>
    <contour>
      <point x="363" y="127" type="curve" smooth="yes"/>
      <point x="278" y="127"/>
      <point x="243" y="185"/>
      <point x="243" y="301" type="curve" smooth="yes"/>
      <point x="243" y="698" type="line" smooth="yes"/>
      <point x="243" y="814"/>
      <point x="278" y="871"/>
      <point x="363" y="871" type="curve" smooth="yes"/>
      <point x="447" y="871"/>
      <point x="482" y="814"/>
      <point x="482" y="698" type="curve" smooth="yes"/>
      <point x="482" y="301" type="line" smooth="yes"/>
      <point x="482" y="185"/>
      <point x="447" y="127"/>
    </contour>
  </outline>
</glyph>
<glyph name="q" format="2">
  <advance width="741"/>
  <unicode hex="0071"/>
  <anchor x="370" y="0" name="bottom"/>
  <anchor x="370" y="998" name="top"/>
  <outline>
    <contour>
      <point x="290" y="-14" type="curve" smooth="yes"/>
      <point x="403" y="-14"/>
      <point x="454" y="52"/>
      <point x="474" y="145" type="curve"/>
      <point x="511" y="145" type="line"/>
      <point x="485" y="265" type="line"/>
      <point x="470" y="188"/>
      <point x="430" y="132"/>
      <point x="358" y="132" type="curve" smooth="yes"/>
      <point x="275" y="132"/>
      <point x="244" y="194"/>
      <point x="244" y="313" type="curve" smooth="yes"/>
      <point x="244" y="685" type="line" smooth="yes"/>
      <point x="244" y="807"/>
      <point x="277" y="870"/>
      <point x="358" y="870" type="curve" smooth="yes"/>
      <point x="441" y="870"/>
      <point x="478" y="805"/>
      <point x="483" y="697" type="curve"/>
      <point x="521" y="853" type="line"/>
      <point x="477" y="853" type="line"/>
      <point x="455" y="945"/>
      <point x="405" y="1012"/>
      <point x="290" y="1012" type="curve" smooth="yes"/>
      <point x="134" y="1012"/>
      <point x="70" y="895"/>
      <point x="70" y="672" type="curve" smooth="yes"/>
      <point x="70" y="323" type="line" smooth="yes"/>
      <point x="70" y="102"/>
      <point x="134" y="-14"/>
    </contour>
    <contour>
      <point x="653" y="-350" type="line"/>
      <point x="653" y="998" type="line"/>
      <point x="480" y="998" type="line"/>
      <point x="489" y="782" type="line"/>
      <point x="483" y="777" type="line"/>
      <point x="483" y="218" type="line"/>
      <point x="484" y="188" type="line"/>
      <point x="480" y="-47" type="line"/>
      <point x="480" y="-350" type="line"/>
    </contour>
  </outline>
</glyph>
<glyph name="t" format="2">
  <advance width="512"/>
  <unicode hex="0074"/>
  <anchor x="299" y="0" name="bottom"/>
  <anchor x="256" y="499" name="center"/>
  <anchor x="210" y="1225" name="top"/>
  <anchor x="377" y="1419" name="topright"/>
  <outline>
    <contour>
      <point x="336" y="-13" type="curve" smooth="yes"/>
      <point x="395" y="-13"/>
      <point x="446" y="-1"/>
      <point x="482" y="16" type="curve"/>
      <point x="494" y="170" type="line"/>
      <point x="464" y="156"/>
      <point x="431" y="146"/>
      <point x="393" y="146" type="curve" smooth="yes"/>
      <point x="319" y="146"/>
      <point x="289" y="176"/>
      <point x="289" y="259" type="curve" smooth="yes"/>
      <point x="289" y="960" type="line"/>
      <point x="118" y="960" type="line"/>
      <point x="118" y="219" type="line" smooth="yes"/>
      <point x="118" y="66"/>
      <point x="186" y="-13"/>
    </contour>
    <contour>
      <point x="466" y="848" type="line"/>
      <point x="478" y="989" type="line"/>
      <point x="16" y="989" type="line"/>
      <point x="16" y="848" type="line"/>
    </contour>
    <contour>
      <point x="284" y="974" type="line"/>
      <point x="291" y="1251" type="line"/>
      <point x="120" y="1225" type="line"/>
      <point x="120" y="974" type="line"/>
    </contour>
  </outline>
</glyph>
<glyph name="yen" format="2">
  <advance width="739"/>
  <unicode hex="00A5"/>
  <anchor x="368" y="0" name="bottom"/>
  <anchor x="368" y="1278" name="top"/>
  <anchor x="37" y="1278" name="topleft"/>
  <outline>
    <contour>
      <point x="653" y="528" type="line"/>
      <point x="662" y="669" type="line"/>
      <point x="441" y="669" type="line"/>
      <point x="414" y="528" type="line"/>
    </contour>
    <contour>
      <point x="81" y="241" type="line"/>
      <point x="653" y="241" type="line"/>
      <point x="662" y="379" type="line"/>
      <point x="90" y="379" type="line"/>
    </contour>
    <contour>
      <point x="90" y="669" type="line"/>
      <point x="81" y="528" type="line"/>
      <point x="313" y="528" type="line"/>
      <point x="284" y="669" type="line"/>
    </contour>
    <contour>
      <point x="452" y="379" type="line"/>
      <point x="697" y="1278" type="line"/>
      <point x="519" y="1278" type="line"/>
      <point x="422" y="840" type="line"/>
      <point x="374" y="613" type="line"/>
      <point x="363" y="613" type="line"/>
      <point x="316" y="840" type="line"/>
      <point x="216" y="1278" type="line"/>
      <point x="38" y="1278" type="line"/>
      <point x="285" y="379" type="line"/>
    </contour>
    <contour>
      <point x="454" y="0" type="line"/>
      <point x="454" y="563" type="line"/>
      <point x="283" y="563" type="line"/>
      <point x="283" y="0" type="line"/>
    </contour>
  </outline>
</glyph>
<glyph name="macron" format="2">
  <advance width="615"/>
  <unicode hex="00AF"/>
  <anchor x="308" y="998" name="_top"/>
  <anchor x="308" y="1276" name="top"/>
  <outline>
    <contour>
      <point x="516" y="1140" type="line"/>
      <point x="516" y="1263" type="line"/>
      <point x="99" y="1263" type="line"/>
      <point x="99" y="1140" type="line"/>
    </contour>
  </outline>
</glyph>
<glyph name="micro" format="2">
  <advance width="754"/>
  <unicode hex="00B5"/>
  <outline>
    <contour>
      <point x="492" y="998" type="line"/>
      <point x="492" y="170" type="line"/>
      <point x="498" y="161" type="line"/>
      <point x="491" y="0" type="line"/>
      <point x="666" y="0" type="line"/>
      <point x="666" y="998" type="line"/>
    </contour>
    <contour>
      <point x="263" y="998" type="line"/>
      <point x="88" y="998" type="line"/>
      <point x="88" y="-350" type="line"/>
      <point x="254" y="-350" type="line"/>
      <point x="254" y="-202" type="line"/>
      <point x="238" y="82" type="line"/>
      <point x="244" y="82" type="line"/>
      <point x="262" y="21"/>
      <point x="292" y="-12"/>
      <point x="358" y="-12" type="curve" smooth="yes"/>
      <point x="430" y="-12"/>
      <point x="467" y="26"/>
      <point x="488" y="141" type="curve"/>
      <point x="529" y="141" type="line"/>
      <point x="494" y="268" type="line"/>
      <point x="480" y="190"/>
      <point x="442" y="134"/>
      <point x="376" y="134" type="curve" smooth="yes"/>
      <point x="292" y="134"/>
      <point x="263" y="192"/>
      <point x="263" y="303" type="curve" smooth="yes"/>
    </contour>
  </outline>
</glyph>
<glyph name="onehalf" format="2">
  <advance width="929"/>
  <unicode hex="00BD"/>
  <outline>
    <contour>
      <point x="261" y="594" type="line"/>
      <point x="261" y="1278" type="line"/>
      <point x="154" y="1278" type="line"/>
      <point x="19" y="1182" type="line"/>
      <point x="16" y="1056" type="line"/>
      <point x="134" y="1143" type="line"/>
      <point x="141" y="1143" type="line"/>
      <point x="142" y="594" type="line"/>
    </contour>
    <contour>
      <point x="251" y="0" type="line"/>
      <point x="732" y="1278" type="line"/>
      <point x="612" y="1278" type="line"/>
      <point x="131" y="0" type="line"/>
    </contour>
    <contour>
      <point x="901" y="0" type="line"/>
      <point x="901" y="106" type="line"/>
      <point x="672" y="106" type="line"/>
      <point x="716" y="86" type="line"/>
      <point x="716" y="111" type="line"/>
      <point x="803" y="247" type="line" smooth="yes"/>
      <point x="869" y="351"/>
      <point x="898" y="420"/>
      <point x="898" y="502" type="curve" smooth="yes"/>
      <point x="898" y="518" type="line" smooth="yes"/>
      <point x="898" y="625"/>
      <point x="843" y="694"/>
      <point x="731" y="694" type="curve" smooth="yes"/>
      <point x="679" y="694"/>
      <point x="637" y="680"/>
      <point x="606" y="661" type="curve"/>
      <point x="597" y="552" type="line"/>
      <point x="622" y="567"/>
      <point x="654" y="584"/>
      <point x="696" y="584" type="curve" smooth="yes"/>
      <point x="753" y="584"/>
      <point x="773" y="551"/>
      <point x="773" y="497" type="curve" smooth="yes"/>
      <point x="773" y="485" type="line" smooth="yes"/>
      <point x="773" y="428"/>
      <point x="750" y="374"/>
      <point x="694" y="285" type="curve" smooth="yes"/>
      <point x="587" y="113" type="line"/>
      <point x="587" y="0" type="line"/>
    </contour>
  </outline>
</glyph>
<glyph name="Aacute" format="2">
  <advance width="751"/>
  <unicode hex="00C1"/>
  <anchor x="376" y="0" name="bottom"/>
  <anchor x="755" y="0" name="ogonek"/>
  <anchor x="376" y="1567" name="top"/>
  <outline>
    <contour>
      <point x="213" y="0" type="line"/>
      <point x="363" y="1149" type="line"/>
      <point x="385" y="1149" type="line"/>
      <point x="538" y="0" type="line"/>
      <point x="713" y="0" type="line"/>
      <point x="517" y="1278" type="line"/>
      <point x="231" y="1278" type="line"/>
      <point x="38" y="0" type="line"/>
    </contour>
    <contour>
      <point x="544" y="343" type="line"/>
      <point x="544" y="494" type="line"/>
      <point x="205" y="494" type="line"/>
      <point x="205" y="343" type="line"/>
    </contour>
    <contour>
      <point x="296" y="1367" type="line"/>
      <point x="296" y="1367" type="line"/>
      <point x="443" y="1367" type="line"/>
      <point x="642" y="1604" type="line"/>
      <point x="642" y="1604" type="line"/>
      <point x="462" y="1604" type="line"/>
    </contour>
  </outline>
</glyph>
<glyph name="Atilde" format="2">
  <advance width="751"/>
  <unicode hex="00C3"/>
  <anchor x="376" y="0" name="bottom"/>
  <anchor x="755" y="0" name="ogonek"/>
  <anchor x="376" y="1570" name="top"/>
  <outline>
    <contour>
      <point x="213" y="0" type="line"/>
      <point x="363" y="1149" type="line"/>
      <point x="385" y="1149" type="line"/>
      <point x="538" y="0" type="line"/>
      <point x="713" y="0" type="line"/>
      <point x="517" y="1278" type="line"/>
      <point x="231" y="1278" type="line"/>
      <point x="38" y="0" type="line"/>
    </contour>
    <contour>
      <point x="544" y="343" type="line"/>
      <point x="544" y="494" type="line"/>
      <point x="205" y="494" type="line"/>
      <point x="205" y="343" type="line"/>
    </contour>
    <contour>
      <point x="481" y="1397" type="curve" smooth="yes"/>
      <point x="566" y="1397"/>
      <point x="600" y="1453"/>
      <point x="600" y="1550" type="curve" smooth="yes"/>
      <point x="600" y="1580" type="line"/>
      <point x="493" y="1580" type="line"/>
      <point x="493" y="1571" type="line" smooth="yes"/>
      <point x="493" y="1539"/>
      <point x="485" y="1523"/>
      <point x="455" y="1523" type="curve" smooth="yes"/>
      <point x="415" y="1523"/>
      <point x="345" y="1570"/>
      <point x="270" y="1570" type="curve" smooth="yes"/>
      <point x="184" y="1570"/>
      <point x="150" y="1512"/>
      <point x="150" y="1416" type="curve" smooth="yes"/>
      <point x="150" y="1387" type="line"/>
      <point x="257" y="1387" type="line"/>
      <point x="257" y="1395" type="line" smooth="yes"/>
      <point x="257" y="1425"/>
      <point x="266" y="1442"/>
      <point x="296" y="1442" type="curve" smooth="yes"/>
      <point x="337" y="1442"/>
      <point x="412" y="1397"/>
    </contour>
  </outline>
</glyph>
<glyph name="Aring" format="2">
  <advance width="751"/>
  <unicode hex="00C5"/>
  <anchor x="376" y="0" name="bottom"/>
  <anchor x="755" y="0" name="ogonek"/>
  <anchor x="376" y="1619" name="top"/>
  <outline>
    <contour>
      <point x="213" y="0" type="line"/>
      <point x="363" y="1149" type="line"/>
      <point x="385" y="1149" type="line"/>
      <point x="538" y="0" type="line"/>
      <point x="713" y="0" type="line"/>
      <point x="517" y="1278" type="line"/>
      <point x="231" y="1278" type="line"/>
      <point x="38" y="0" type="line"/>
    </contour>
    <contour>
      <point x="544" y="343" type="line"/>
      <point x="544" y="494" type="line"/>
      <point x="205" y="494" type="line"/>
      <point x="205" y="343" type="line"/>
    </contour>
    <contour>
      <point x="205" y="1492" type="line" smooth="yes"/>
      <point x="205" y="1403"/>
      <point x="261" y="1339"/>
      <point x="376" y="1339" type="curve" smooth="yes"/>
      <point x="490" y="1339"/>
      <point x="547" y="1403"/>
      <point x="547" y="1492" type="curve" smooth="yes"/>
      <point x="547" y="1496" type="line" smooth="yes"/>
      <point x="547" y="1587"/>
      <point x="490" y="1650"/>
      <point x="376" y="1650" type="curve" smooth="yes"/>
      <point x="261" y="1650"/>
      <point x="205" y="1587"/>
      <point x="205" y="1496" type="curve" smooth="yes"/>
    </contour>
    <contour>
      <point x="306" y="1496" type="line" smooth="yes"/>
      <point x="306" y="1539"/>
      <point x="331" y="1563"/>
      <point x="376" y="1563" type="curve" smooth="yes"/>
      <point x="420" y="1563"/>
      <point x="445" y="1539"/>
      <point x="445" y="1496" type="curve" smooth="yes"/>
      <point x="445" y="1493" type="line" smooth="yes"/>
      <point x="445" y="1450"/>
      <point x="420" y="1426"/>
      <point x="376" y="1426" type="curve" smooth="yes"/>
      <point x="331" y="1426"/>
      <point x="306" y="1450"/>
      <point x="306" y="1493" type="curve" smooth="yes"/>
    </contour>
  </outline>
</glyph>
<glyph name="Ccedilla" format="2">
  <advance width="600"/>
  <unicode hex="00C7"/>
  <anchor x="369" y="-339" name="bottom"/>
  <anchor x="338" y="1278" name="top"/>
  <outline>
    <contour>
      <point x="365" y="-19" type="curve" smooth="yes"/>
      <point x="445" y="-19"/>
      <point x="510" y="6"/>
      <point x="547" y="30" type="curve"/>
      <point x="559" y="205" type="line"/>
      <point x="520" y="174"/>
      <point x="476" y="151"/>
      <point x="414" y="151" type="curve" smooth="yes"/>
      <point x="300" y="151"/>
      <point x="258" y="226"/>
      <point x="258" y="358" type="curve" smooth="yes"/>
      <point x="258" y="921" type="line" smooth="yes"/>
      <point x="258" y="1055"/>
      <point x="297" y="1132"/>
      <point x="406" y="1132" type="curve" smooth="yes"/>
      <point x="467" y="1132"/>
      <point x="512" y="1108"/>
      <point x="552" y="1077" type="curve"/>
      <point x="540" y="1244" type="line"/>
      <point x="502" y="1272"/>
      <point x="441" y="1297"/>
      <point x="361" y="1297" type="curve" smooth="yes"/>
      <point x="167" y="1297"/>
      <point x="78" y="1171"/>
      <point x="78" y="934" type="curve" smooth="yes"/>
      <point x="78" y="348" type="line" smooth="yes"/>
      <point x="78" y="109"/>
      <point x="162" y="-19"/>
    </contour>
    <contour>
      <point x="287" y="21" type="line"/>
      <point x="277" y="-126" type="line"/>
      <point x="277" y="-126"/>
      <point x="281" y="-126"/>
      <point x="281" y="-126" type="curve"/>
      <point x="362" y="-132"/>
      <point x="391" y="-148"/>
      <point x="391" y="-185" type="curve"/>
      <point x="391" y="-187" type="line"/>
      <point x="391" y="-215"/>
      <point x="368" y="-235"/>
      <point x="318" y="-235" type="curve" smooth="yes"/>
      <point x="287" y="-235"/>
      <point x="253" y="-227"/>
      <point x="227" y="-218" type="curve"/>
      <point x="242" y="-321" type="line"/>
      <point x="269" y="-328"/>
      <point x="303" y="-335"/>
      <point x="342" y="-335" type="curve" smooth="yes"/>
      <point x="445" y="-335"/>
      <point x="508" y="-292"/>
      <point x="508" y="-203" type="curve" smooth="yes"/>
      <point x="508" y="-197" type="line" smooth="yes"/>
      <point x="508" y="-115"/>
      <point x="451" y="-72"/>
      <point x="354" y="-67" type="curve" smooth="yes"/>
      <point x="338" y="-66"/>
      <point x="324" y="-68"/>
      <point x="307" y="-70" type="curve"/>
      <point x="382" y="-115" type="line"/>
      <point x="393" y="21" type="line"/>
    </contour>
  </outline>
</glyph>
<glyph name="Ecircumflex" format="2">
  <advance width="637"/>
  <unicode hex="00CA"/>
  <anchor x="339" y="0" name="bottom"/>
  <anchor x="610" y="0" name="ogonek"/>
  <anchor x="339" y="1557" name="top"/>
  <anchor x="20" y="1278" name="topleft"/>
  <outline>
    <contour>
      <point x="272" y="0" type="line"/>
      <point x="272" y="1278" type="line"/>
      <point x="98" y="1278" type="line"/>
      <point x="98" y="0" type="line"/>
    </contour>
    <contour>
      <point x="578" y="0" type="line"/>
      <point x="578" y="158" type="line"/>
      <point x="205" y="158" type="line"/>
      <point x="205" y="0" type="line"/>
    </contour>
    <contour>
      <point x="570" y="574" type="line"/>
      <point x="570" y="731" type="line"/>
      <point x="212" y="731" type="line"/>
      <point x="212" y="574" type="line"/>
    </contour>
    <contour>
      <point x="578" y="1120" type="line"/>
      <point x="578" y="1278" type="line"/>
      <point x="203" y="1278" type="line"/>
      <point x="203" y="1120" type="line"/>
    </contour>
    <contour>
      <point x="97" y="1367" type="line"/>
      <point x="97" y="1367" type="line"/>
      <point x="229" y="1367" type="line"/>
      <point x="335" y="1507" type="line"/>
      <point x="343" y="1507" type="line"/>
      <point x="449" y="1367" type="line"/>
      <point x="581" y="1367" type="line"/>
      <point x="581" y="1367" type="line"/>
      <point x="431" y="1604" type="line"/>
      <point x="247" y="1604" type="line"/>
    </contour>
  </outline>
</glyph>
<glyph name="Igrave" format="2">
  <advance width="378"/>
  <unicode hex="00CC"/>
  <anchor x="189" y="0" name="bottom"/>
  <anchor x="318" y="0" name="ogonek"/>
  <anchor x="121" y="1567" name="top"/>
  <anchor x="20" y="1278" name="topleft"/>
  <outline>
    <contour>
      <point x="279" y="1278" type="line"/>
      <point x="99" y="1278" type="line"/>
      <point x="99" y="0" type="line"/>
      <point x="279" y="0" type="line"/>
    </contour>
    <contour>
      <point x="-78" y="1604" type="line"/>
      <point x="-78" y="1604" type="line"/>
      <point x="121" y="1367" type="line"/>
      <point x="268" y="1367" type="line"/>
      <point x="268" y="1367" type="line"/>
      <point x="102" y="1604" type="line"/>
    </contour>
  </outline>
</glyph>
<glyph name="Ntilde" format="2">
  <advance width="844"/>
  <unicode hex="00D1"/>
  <anchor x="427" y="0" name="bottom"/>
  <anchor x="427" y="1570" name="top"/>
  <outline>
    <contour>
      <point x="98" y="1279" type="line"/>
      <point x="98" y="0" type="line"/>
      <point x="267" y="0" type="line"/>
      <point x="267" y="464" type="line"/>
      <point x="252" y="1088" type="line"/>
      <point x="262" y="1088" type="line"/>
      <point x="484" y="0" type="line"/>
      <point x="746" y="0" type="line"/>
      <point x="746" y="1279" type="line"/>
      <point x="578" y="1279" type="line"/>
      <point x="578" y="815" type="line"/>
      <point x="592" y="199" type="line"/>
      <point x="582" y="199" type="line"/>
      <point x="360" y="1279" type="line"/>
    </contour>
    <contour>
      <point x="532" y="1397" type="curve" smooth="yes"/>
      <point x="617" y="1397"/>
      <point x="651" y="1453"/>
      <point x="651" y="1550" type="curve" smooth="yes"/>
      <point x="651" y="1580" type="line"/>
      <point x="544" y="1580" type="line"/>
      <point x="544" y="1571" type="line" smooth="yes"/>
      <point x="544" y="1539"/>
      <point x="536" y="1523"/>
      <point x="506" y="1523" type="curve" smooth="yes"/>
      <point x="466" y="1523"/>
      <point x="396" y="1570"/>
      <point x="321" y="1570" type="curve" smooth="yes"/>
      <point x="235" y="1570"/>
      <point x="201" y="1512"/>
      <point x="201" y="1416" type="curve" smooth="yes"/>
      <point x="201" y="1387" type="line"/>
      <point x="308" y="1387" type="line"/>
      <point x="308" y="1395" type="line" smooth="yes"/>
      <point x="308" y="1425"/>
      <point x="317" y="1442"/>
      <point x="347" y="1442" type="curve" smooth="yes"/>
      <point x="388" y="1442"/>
      <point x="463" y="1397"/>
    </contour>
  </outline>
</glyph>
<glyph name="Ocircumflex" format="2">
  <advance width="789"/>
  <unicode hex="00D4"/>
  <anchor x="394" y="0" name="bottom"/>
  <anchor x="394" y="639" name="center"/>
  <anchor x="577" y="5" name="ogonek"/>
  <anchor x="394" y="1557" name="top"/>
  <anchor x="20" y="1278" name="topleft"/>
  <anchor x="739" y="1278" name="topright"/>
  <outline>
    <contour>
      <point x="394" y="-19" type="curve" smooth="yes"/>
      <point x="607" y="-19"/>
      <point x="711" y="107"/>
      <point x="711" y="349" type="curve" smooth="yes"/>
      <point x="711" y="928" type="line" smooth="yes"/>
      <point x="711" y="1169"/>
      <point x="607" y="1297"/>
      <point x="394" y="1297" type="curve" smooth="yes"/>
      <point x="181" y="1297"/>
      <point x="78" y="1169"/>
      <point x="78" y="928" type="curve" smooth="yes"/>
      <point x="78" y="349" type="line" smooth="yes"/>
      <point x="78" y="107"/>
      <point x="181" y="-19"/>
    </contour>
    <contour>
      <point x="394" y="134" type="curve" smooth="yes"/>
      <point x="296" y="134"/>
      <point x="258" y="204"/>
      <point x="258" y="331" type="curve" smooth="yes"/>
      <point x="258" y="947" type="line" smooth="yes"/>
      <point x="258" y="1075"/>
      <point x="296" y="1144"/>
      <point x="394" y="1144" type="curve" smooth="yes"/>
      <point x="492" y="1144"/>
      <point x="530" y="1075"/>
      <point x="530" y="947" type="curve" smooth="yes"/>
      <point x="530" y="331" type="line" smooth="yes"/>
      <point x="530" y="204"/>
      <point x="492" y="134"/>
    </contour>
    <contour>
      <point x="152" y="1367" type="line"/>
      <point x="152" y="1367" type="line"/>
      <point x="284" y="1367" type="line"/>
      <point x="390" y="1507" type="line"/>
      <point x="398" y="1507" type="line"/>
      <point x="504" y="1367" type="line"/>
      <point x="636" y="1367" type="line"/>
      <point x="636" y="1367" type="line"/>
      <point x="486" y="1604" type="line"/>
      <point x="302" y="1604" type="line"/>
    </contour>
  </outline>
</glyph>
<glyph name="Otilde" format="2">
  <advance width="789"/>
  <unicode hex="00D5"/>
  <anchor x="394" y="0" name="bottom"/>
  <anchor x="394" y="639" name="center"/>
  <anchor x="577" y="5" name="ogonek"/>
  <anchor x="394" y="1570" name="top"/>
  <anchor x="20" y="1278" name="topleft"/>
  <anchor x="739" y="1278" name="topright"/>
  <outline>
    <contour>
      <point x="394" y="-19" type="curve" smooth="yes"/>
      <point x="607" y="-19"/>
      <point x="711" y="107"/>
      <point x="711" y="349" type="curve" smooth="yes"/>
      <point x="711" y="928" type="line" smooth="yes"/>
      <point x="711" y="1169"/>
      <point x="607" y="1297"/>
      <point x="394" y="1297" type="curve" smooth="yes"/>
      <point x="181" y="1297"/>
      <point x="78" y="1169"/>
      <point x="78" y="928" type="curve" smooth="yes"/>
      <point x="78" y="349" type="line" smooth="yes"/>
      <point x="78" y="107"/>
      <point x="181" y="-19"/>
    </contour>
    <contour>
      <point x="394" y="134" type="curve" smooth="yes"/>
      <point x="296" y="134"/>
      <point x="258" y="204"/>
      <point x="258" y="331" type="curve" smooth="yes"/>
      <point x="258" y="947" type="line" smooth="yes"/>
      <point x="258" y="1075"/>
      <point x="296" y="1144"/>
      <point x="394" y="1144" type="curve" smooth="yes"/>
      <point x="492" y="1144"/>
      <point x="530" y="1075"/>
      <point x="530" y="947" type="curve" smooth="yes"/>
      <point x="530" y="331" type="line" smooth="yes"/>
      <point x="530" y="204"/>
      <point x="492" y="134"/>
    </contour>
    <contour>
      <point x="499" y="1397" type="curve" smooth="yes"/>
      <point x="584" y="1397"/>
      <point x="618" y="1453"/>
      <point x="618" y="1550" type="curve" smooth="yes"/>
      <point x="618" y="1580" type="line"/>
      <point x="511" y="1580" type="line"/>
      <point x="511" y="1571" type="line" smooth="yes"/>
      <point x="511" y="1539"/>
      <point x="503" y="1523"/>
      <point x="473" y="1523" type="curve" smooth="yes"/>
      <point x="433" y="1523"/>
      <point x="363" y="1570"/>
      <point x="288" y="1570" type="curve" smooth="yes"/>
      <point x="202" y="1570"/>
      <point x="168" y="1512"/>
      <point x="168" y="1416" type="curve" smooth="yes"/>
      <point x="168" y="1387" type="line"/>
      <point x="275" y="1387" type="line"/>
      <point x="275" y="1395" type="line" smooth="yes"/>
      <point x="275" y="1425"/>
      <point x="284" y="1442"/>
      <point x="314" y="1442" type="curve" smooth="yes"/>
      <point x="355" y="1442"/>
      <point x="430" y="1397"/>
    </contour>
  </outline>
</glyph>
<glyph name="Odieresis" format="2">
  <advance width="789"/>
  <unicode hex="00D6"/>
  <anchor x="394" y="0" name="bottom"/>
  <anchor x="394" y="639" name="center"/>
  <anchor x="577" y="5" name="ogonek"/>
  <anchor x="394" y="1577" name="top"/>
  <anchor x="20" y="1278" name="topleft"/>
  <anchor x="739" y="1278" name="topright"/>
  <outline>
    <contour>
      <point x="394" y="-19" type="curve" smooth="yes"/>
      <point x="607" y="-19"/>
      <point x="711" y="107"/>
      <point x="711" y="349" type="curve" smooth="yes"/>
      <point x="711" y="928" type="line" smooth="yes"/>
      <point x="711" y="1169"/>
      <point x="607" y="1297"/>
      <point x="394" y="1297" type="curve" smooth="yes"/>
      <point x="181" y="1297"/>
      <point x="78" y="1169"/>
      <point x="78" y="928" type="curve" smooth="yes"/>
      <point x="78" y="349" type="line" smooth="yes"/>
      <point x="78" y="107"/>
      <point x="181" y="-19"/>
    </contour>
    <contour>
      <point x="394" y="134" type="curve" smooth="yes"/>
      <point x="296" y="134"/>
      <point x="258" y="204"/>
      <point x="258" y="331" type="curve" smooth="yes"/>
      <point x="258" y="947" type="line" smooth="yes"/>
      <point x="258" y="1075"/>
      <point x="296" y="1144"/>
      <point x="394" y="1144" type="curve" smooth="yes"/>
      <point x="492" y="1144"/>
      <point x="530" y="1075"/>
      <point x="530" y="947" type="curve" smooth="yes"/>
      <point x="530" y="331" type="line" smooth="yes"/>
      <point x="530" y="204"/>
      <point x="492" y="134"/>
    </contour>
    <contour>
      <point x="273" y="1392" type="curve" smooth="yes"/>
      <point x="329" y="1392"/>
      <point x="354" y="1430"/>
      <point x="354" y="1495" type="curve" smooth="yes"/>
      <point x="354" y="1506" type="line" smooth="yes"/>
      <point x="354" y="1571"/>
      <point x="329" y="1608"/>
      <point x="273" y="1608" type="curve" smooth="yes"/>
      <point x="217" y="1608"/>
      <point x="192" y="1571"/>
      <point x="192" y="1506" type="curve" smooth="yes"/>
      <point x="192" y="1495" type="line" smooth="yes"/>
      <point x="192" y="1430"/>
      <point x="217" y="1392"/>
    </contour>
    <contour>
      <point x="514" y="1392" type="curve" smooth="yes"/>
      <point x="569" y="1392"/>
      <point x="595" y="1431"/>
      <point x="595" y="1495" type="curve" smooth="yes"/>
      <point x="595" y="1506" type="line" smooth="yes"/>
      <point x="595" y="1570"/>
      <point x="569" y="1608"/>
      <point x="514" y="1608" type="curve" smooth="yes"/>
      <point x="457" y="1608"/>
      <point x="433" y="1570"/>
      <point x="433" y="1506" type="curve" smooth="yes"/>
      <point x="433" y="1495" type="line" smooth="yes"/>
      <point x="433" y="1431"/>
      <point x="457" y="1392"/>
    </contour>
  </outline>
</glyph>
<glyph name="Oslash" format="2">
  <advance width="789"/>
  <unicode hex="00D8"/>
  <anchor x="394" y="0" name="bottom"/>
  <anchor x="394" y="639" name="center"/>
  <anchor x="710" y="10" name="ogonek"/>
  <anchor x="394" y="1278" name="top"/>
  <anchor x="20" y="1278" name="topleft"/>
  <anchor x="768" y="1278" name="topright"/>
  <outline>
    <contour>
      <point x="396" y="-19" type="curve" smooth="yes"/>
      <point x="605" y="-19"/>
      <point x="711" y="108"/>
      <point x="711" y="359" type="curve"/>
      <point x="711" y="916" type="line"/>
      <point x="711" y="1163"/>
      <point x="595" y="1297"/>
      <point x="392" y="1297" type="curve" smooth="yes"/>
      <point x="183" y="1297"/>
      <point x="78" y="1168"/>
      <point x="78" y="918" type="curve"/>
      <point x="78" y="361" type="line"/>
      <point x="78" y="114"/>
      <point x="193" y="-19"/>
    </contour>
    <contour>
      <point x="257" y="-78" type="line"/>
      <point x="309" y="86" type="line"/>
      <point x="314" y="113" type="line"/>
      <point x="574" y="1105" type="line"/>
      <point x="603" y="1168" type="line"/>
      <point x="664" y="1356" type="line"/>
      <point x="531" y="1356" type="line"/>
      <point x="496" y="1237" type="line"/>
      <point x="486" y="1184" type="line"/>
      <point x="224" y="180" type="line"/>
      <point x="192" y="128" type="line"/>
      <point x="125" y="-78" type="line"/>
    </contour>
    <contour>
      <point x="394" y="132" type="curve" smooth="yes"/>
      <point x="295" y="132"/>
      <point x="252" y="204"/>
      <point x="252" y="287" type="curve" smooth="yes"/>
      <point x="252" y="931" type="line" smooth="yes"/>
      <point x="252" y="1075"/>
      <point x="293" y="1146"/>
      <point x="394" y="1146" type="curve" smooth="yes"/>
      <point x="494" y="1146"/>
      <point x="537" y="1075"/>
      <point x="537" y="991" type="curve" smooth="yes"/>
      <point x="537" y="347" type="line" smooth="yes"/>
      <point x="537" y="203"/>
      <point x="495" y="132"/>
    </contour>
  </outline>
</glyph>
<glyph name="agrave" format="2">
  <advance width="684"/>
  <unicode hex="00E0"/>
  <anchor x="337" y="0" name="bottom"/>
  <anchor x="636" y="0" name="ogonek"/>
  <anchor x="264" y="1317" name="top"/>
  <outline>
    <contour>
      <point x="604" y="0" type="line"/>
      <point x="604" y="688" type="line" smooth="yes"/>
      <point x="604" y="905"/>
      <point x="524" y="1014"/>
      <point x="326" y="1014" type="curve" smooth="yes"/>
      <point x="227" y="1014"/>
      <point x="145" y="981"/>
      <point x="89" y="944" type="curve"/>
      <point x="77" y="788" type="line"/>
      <point x="138" y="826"/>
      <point x="215" y="862"/>
      <point x="292" y="862" type="curve" smooth="yes"/>
      <point x="393" y="862"/>
      <point x="431" y="805"/>
      <point x="431" y="681" type="curve" smooth="yes"/>
      <point x="431" y="601" type="line"/>
      <point x="431" y="172" type="line"/>
      <point x="439" y="172" type="line"/>
      <point x="432" y="0" type="line"/>
    </contour>
    <contour>
      <point x="248" y="-14" type="curve" smooth="yes"/>
      <point x="364" y="-14"/>
      <point x="410" y="55"/>
      <point x="429" y="145" type="curve"/>
      <point x="455" y="145" type="line"/>
      <point x="434" y="266" type="line"/>
      <point x="421" y="188"/>
      <point x="384" y="132"/>
      <point x="318" y="132" type="curve" smooth="yes"/>
      <point x="246" y="132"/>
      <point x="221" y="185"/>
      <point x="221" y="278" type="curve" smooth="yes"/>
      <point x="221" y="319" type="line" smooth="yes"/>
      <point x="221" y="400"/>
      <point x="251" y="443"/>
      <point x="327" y="466" type="curve" smooth="yes"/>
      <point x="470" y="510" type="line"/>
      <point x="452" y="648" type="line"/>
      <point x="284" y="598" type="line" smooth="yes"/>
      <point x="117" y="548"/>
      <point x="49" y="472"/>
      <point x="49" y="310" type="curve" smooth="yes"/>
      <point x="49" y="251" type="line" smooth="yes"/>
      <point x="49" y="79"/>
      <point x="113" y="-14"/>
    </contour>
    <contour>
      <point x="110" y="1349" type="line"/>
      <point x="110" y="1349" type="line"/>
      <point x="266" y="1092" type="line"/>
      <point x="406" y="1092" type="line"/>
      <point x="406" y="1092" type="line"/>
      <point x="288" y="1349" type="line"/>
    </contour>
  </outline>
</glyph>
<glyph name="edieresis" format="2">
  <advance width="683"/>
  <unicode hex="00EB"/>
  <anchor x="360" y="0" name="bottom"/>
  <anchor x="595" y="10" name="ogonek"/>
  <anchor x="353" y="1322" name="top"/>
  <outline>
    <contour>
      <point x="389" y="-14" type="curve" smooth="yes"/>
      <point x="476" y="-14"/>
      <point x="551" y="10"/>
      <point x="603" y="41" type="curve"/>
      <point x="615" y="195" type="line"/>
      <point x="561" y="162"/>
      <point x="497" y="138"/>
      <point x="424" y="138" type="curve" smooth="yes"/>
      <point x="304" y="138"/>
      <point x="241" y="197"/>
      <point x="241" y="326" type="curve" smooth="yes"/>
      <point x="241" y="469" type="line"/>
      <point x="241" y="499" type="line"/>
      <point x="241" y="708" type="line" smooth="yes"/>
      <point x="241" y="819"/>
      <point x="272" y="871"/>
      <point x="350" y="871" type="curve" smooth="yes"/>
      <point x="426" y="871"/>
      <point x="459" y="819"/>
      <point x="459" y="708" type="curve" smooth="yes"/>
      <point x="459" y="624"/>
      <point x="459" y="535"/>
      <point x="459" y="417" type="curve"/>
      <point x="616" y="417" type="line"/>
      <point x="624" y="474"/>
      <point x="626" y="526"/>
      <point x="626" y="581" type="curve" smooth="yes"/>
      <point x="626" y="688" type="line" smooth="yes"/>
      <point x="626" y="898"/>
      <point x="536" y="1015"/>
      <point x="350" y="1015" type="curve" smooth="yes"/>
      <point x="160" y="1015"/>
      <point x="69" y="904"/>
      <point x="69" y="690" type="curve" smooth="yes"/>
      <point x="69" y="342" type="line" smooth="yes"/>
      <point x="69" y="105"/>
      <point x="177" y="-14"/>
    </contour>
    <contour>
      <point x="576" y="417" type="line"/>
      <point x="576" y="555" type="line"/>
      <point x="177" y="555" type="line"/>
      <point x="177" y="417" type="line"/>
    </contour>
    <contour>
      <point x="232" y="1119" type="curve" smooth="yes"/>
      <point x="288" y="1119"/>
      <point x="313" y="1157"/>
      <point x="313" y="1222" type="curve" smooth="yes"/>
      <point x="313" y="1233" type="line" smooth="yes"/>
      <point x="313" y="1298"/>
      <point x="288" y="1335"/>
      <point x="232" y="1335" type="curve" smooth="yes"/>
      <point x="176" y="1335"/>
      <point x="151" y="1298"/>
      <point x="151" y="1233" type="curve" smooth="yes"/>
      <point x="151" y="1222" type="line" smooth="yes"/>
      <point x="151" y="1157"/>
      <point x="176" y="1119"/>
    </contour>
    <contour>
      <point x="473" y="1119" type="curve" smooth="yes"/>
      <point x="528" y="1119"/>
      <point x="554" y="1158"/>
      <point x="554" y="1222" type="curve" smooth="yes"/>
      <point x="554" y="1233" type="line" smooth="yes"/>
      <point x="554" y="1297"/>
      <point x="528" y="1335"/>
      <point x="473" y="1335" type="curve" smooth="yes"/>
      <point x="416" y="1335"/>
      <point x="392" y="1297"/>
      <point x="392" y="1233" type="curve" smooth="yes"/>
      <point x="392" y="1222" type="line" smooth="yes"/>
      <point x="392" y="1158"/>
      <point x="416" y="1119"/>
    </contour>
  </outline>
</glyph>
<glyph name="iacute" format="2">
  <advance width="356"/>
  <unicode hex="00ED"/>
  <anchor x="178" y="0" name="bottom"/>
  <anchor x="297" y="0" name="ogonek"/>
  <anchor x="183" y="1317" name="top"/>
  <outline>
    <contour>
      <point x="265" y="0" type="line"/>
      <point x="265" y="998" type="line"/>
      <point x="91" y="998" type="line"/>
      <point x="91" y="0" type="line"/>
    </contour>
    <contour>
      <point x="110" y="1092" type="line"/>
      <point x="110" y="1092" type="line"/>
      <point x="246" y="1092" type="line"/>
      <point x="351" y="1349" type="line"/>
      <point x="351" y="1349" type="line"/>
      <point x="176" y="1349" type="line"/>
    </contour>
  </outline>
</glyph>
<glyph name="idieresis" format="2">
  <advance width="356"/>
  <unicode hex="00EF"/>
  <anchor x="178" y="0" name="bottom"/>
  <anchor x="297" y="0" name="ogonek"/>
  <anchor x="178" y="1322" name="top"/>
  <outline>
    <contour>
      <point x="265" y="0" type="line"/>
      <point x="265" y="998" type="line"/>
      <point x="91" y="998" type="line"/>
      <point x="91" y="0" type="line"/>
    </contour>
    <contour>
      <point x="71" y="1115" type="curve" smooth="yes"/>
      <point x="123" y="1115"/>
      <point x="148" y="1150"/>
      <point x="148" y="1218" type="curve" smooth="yes"/>
      <point x="148" y="1229" type="line" smooth="yes"/>
      <point x="148" y="1297"/>
      <point x="123" y="1331"/>
      <point x="71" y="1331" type="curve" smooth="yes"/>
      <point x="20" y="1331"/>
      <point x="-4" y="1297"/>
      <point x="-4" y="1229" type="curve" smooth="yes"/>
      <point x="-4" y="1218" type="line" smooth="yes"/>
      <point x="-4" y="1150"/>
      <point x="20" y="1115"/>
    </contour>
    <contour>
      <point x="283" y="1115" type="curve" smooth="yes"/>
      <point x="335" y="1115"/>
      <point x="359" y="1150"/>
      <point x="359" y="1218" type="curve" smooth="yes"/>
      <point x="359" y="1229" type="line" smooth="yes"/>
      <point x="359" y="1297"/>
      <point x="335" y="1331"/>
      <point x="283" y="1331" type="curve" smooth="yes"/>
      <point x="231" y="1331"/>
      <point x="208" y="1297"/>
      <point x="208" y="1229" type="curve" smooth="yes"/>
      <point x="208" y="1218" type="line" smooth="yes"/>
      <point x="208" y="1150"/>
      <point x="231" y="1115"/>
    </contour>
  </outline>
</glyph>
<glyph name="eth" format="2">
  <advance width="711"/>
  <unicode hex="00F0"/>
  <outline>
    <contour>
      <point x="358" y="-17" type="curve" smooth="yes"/>
      <point x="545" y="-17"/>
      <point x="642" y="99"/>
      <point x="642" y="314" type="curve" smooth="yes"/>
      <point x="642" y="650" type="line" smooth="yes"/>
      <point x="642" y="906"/>
      <point x="565" y="1030"/>
      <point x="339" y="1329" type="curve"/>
      <point x="151" y="1329" type="line"/>
      <point x="151" y="1329" type="line"/>
      <point x="392" y="1010"/>
      <point x="471" y="901"/>
      <point x="479" y="729" type="curve"/>
      <point x="477" y="715"/>
      <point x="474" y="702"/>
      <point x="472" y="688" type="curve"/>
      <point x="472" y="559"/>
      <point x="472" y="430"/>
      <point x="472" y="301" type="curve" smooth="yes"/>
      <point x="472" y="185"/>
      <point x="438" y="127"/>
      <point x="358" y="127" type="curve" smooth="yes"/>
      <point x="277" y="127"/>
      <point x="243" y="185"/>
      <point x="243" y="301" type="curve" smooth="yes"/>
      <point x="243" y="596" type="line" smooth="yes"/>
      <point x="243" y="713"/>
      <point x="275" y="771"/>
      <point x="354" y="771" type="curve" smooth="yes"/>
      <point x="432" y="771"/>
      <point x="469" y="710"/>
      <point x="472" y="608" type="curve"/>
      <point x="505" y="781" type="line"/>
      <point x="464" y="781" type="line"/>
      <point x="434" y="867"/>
      <point x="388" y="913"/>
      <point x="295" y="913" type="curve" smooth="yes"/>
      <point x="136" y="913"/>
      <point x="69" y="795"/>
      <point x="69" y="578" type="curve" smooth="yes"/>
      <point x="69" y="314" type="line" smooth="yes"/>
      <point x="69" y="99"/>
      <point x="167" y="-17"/>
    </contour>
    <contour>
      <point x="626" y="1150" type="line"/>
      <point x="626" y="1267" type="line"/>
      <point x="145" y="1105" type="line"/>
      <point x="145" y="989" type="line"/>
    </contour>
  </outline>
</glyph>
<glyph name="otilde" format="2">
  <advance width="725"/>
  <unicode hex="00F5"/>
  <anchor x="363" y="0" name="bottom"/>
  <anchor x="363" y="499" name="center"/>
  <anchor x="543" y="5" name="ogonek"/>
  <anchor x="364" y="1317" name="top"/>
  <anchor x="685" y="998" name="topright"/>
  <outline>
    <contour>
      <point x="363" y="-17" type="curve" smooth="yes"/>
      <point x="556" y="-17"/>
      <point x="656" y="99"/>
      <point x="656" y="314" type="curve" smooth="yes"/>
      <point x="656" y="685" type="line" smooth="yes"/>
      <point x="656" y="900"/>
      <point x="556" y="1015"/>
      <point x="363" y="1015" type="curve" smooth="yes"/>
      <point x="169" y="1015"/>
      <point x="69" y="900"/>
      <point x="69" y="685" type="curve" smooth="yes"/>
      <point x="69" y="314" type="line" smooth="yes"/>
      <point x="69" y="99"/>
      <point x="169" y="-17"/>
    </contour>
    <contour>
      <point x="363" y="127" type="curve" smooth="yes"/>
      <point x="278" y="127"/>
      <point x="243" y="185"/>
      <point x="243" y="301" type="curve" smooth="yes"/>
      <point x="243" y="698" type="line" smooth="yes"/>
      <point x="243" y="814"/>
      <point x="278" y="871"/>
      <point x="363" y="871" type="curve" smooth="yes"/>
      <point x="447" y="871"/>
      <point x="482" y="814"/>
      <point x="482" y="698" type="curve" smooth="yes"/>
      <point x="482" y="301" type="line" smooth="yes"/>
      <point x="482" y="185"/>
      <point x="447" y="127"/>
    </contour>
    <contour>
      <point x="470" y="1124" type="curve" smooth="yes"/>
      <point x="554" y="1124"/>
      <point x="588" y="1181"/>
      <point x="588" y="1280" type="curve" smooth="yes"/>
      <point x="588" y="1312" type="line"/>
      <point x="481" y="1312" type="line"/>
      <point x="481" y="1299" type="line" smooth="yes"/>
      <point x="481" y="1265"/>
      <point x="473" y="1248"/>
      <point x="445" y="1248" type="curve" smooth="yes"/>
      <point x="404" y="1248"/>
      <point x="339" y="1303"/>
      <point x="267" y="1303" type="curve" smooth="yes"/>
      <point x="182" y="1303"/>
      <point x="148" y="1244"/>
      <point x="148" y="1146" type="curve" smooth="yes"/>
      <point x="148" y="1114" type="line"/>
      <point x="255" y="1114" type="line"/>
      <point x="255" y="1127" type="line" smooth="yes"/>
      <point x="255" y="1160"/>
      <point x="264" y="1178"/>
      <point x="292" y="1178" type="curve" smooth="yes"/>
      <point x="334" y="1178"/>
      <point x="404" y="1124"/>
    </contour>
  </outline>
</glyph>
<glyph name="ucircumflex" format="2">
  <advance width="748"/>
  <unicode hex="00FB"/>
  <anchor x="375" y="0" name="bottom"/>
  <anchor x="692" y="0" name="ogonek"/>
  <anchor x="375" y="1307" name="top"/>
  <anchor x="736" y="998" name="topright"/>
  <outline>
    <contour>
      <point x="82" y="998" type="line"/>
      <point x="82" y="272" type="line" smooth="yes"/>
      <point x="82" y="82"/>
      <point x="144" y="-14"/>
      <point x="285" y="-14" type="curve" smooth="yes"/>
      <point x="410" y="-14"/>
      <point x="462" y="52"/>
      <point x="484" y="145" type="curve"/>
      <point x="526" y="145" type="line"/>
      <point x="489" y="266" type="line"/>
      <point x="475" y="188"/>
      <point x="435" y="132"/>
      <point x="363" y="132" type="curve" smooth="yes"/>
      <point x="284" y="132"/>
      <point x="256" y="188"/>
      <point x="256" y="294" type="curve" smooth="yes"/>
      <point x="256" y="998" type="line"/>
    </contour>
    <contour>
      <point x="486" y="998" type="line"/>
      <point x="486" y="172" type="line"/>
      <point x="494" y="165" type="line"/>
      <point x="487" y="0" type="line"/>
      <point x="660" y="0" type="line"/>
      <point x="660" y="998" type="line"/>
    </contour>
    <contour>
      <point x="163" y="1092" type="line"/>
      <point x="163" y="1092" type="line"/>
      <point x="291" y="1092" type="line"/>
      <point x="371" y="1252" type="line"/>
      <point x="379" y="1252" type="line"/>
      <point x="459" y="1092" type="line"/>
      <point x="587" y="1092" type="line"/>
      <point x="587" y="1092" type="line"/>
      <point x="472" y="1349" type="line"/>
      <point x="277" y="1349" type="line"/>
    </contour>
  </outline>
</glyph>
<glyph name="ydieresis" format="2">
  <advance width="689"/>
  <unicode hex="00FF"/>
  <anchor x="574" y="-25" name="bottom"/>
  <anchor x="345" y="1322" name="top"/>
  <outline>
    <contour>
      <point x="331" y="162" type="line"/>
      <point x="211" y="998" type="line"/>
      <point x="36" y="998" type="line"/>
      <point x="203" y="38" type="line"/>
      <point x="411" y="38" type="line"/>
      <point x="325" y="96" type="line"/>
      <point x="243" y="-350" type="line"/>
      <point x="410" y="-350" type="line"/>
      <point x="653" y="998" type="line"/>
      <point x="478" y="998" type="line"/>
      <point x="343" y="150" type="line"/>
      <point x="425" y="162" type="line"/>
    </contour>
    <contour>
      <point x="224" y="1119" type="curve" smooth="yes"/>
      <point x="280" y="1119"/>
      <point x="305" y="1157"/>
      <point x="305" y="1222" type="curve" smooth="yes"/>
      <point x="305" y="1233" type="line" smooth="yes"/>
      <point x="305" y="1298"/>
      <point x="280" y="1335"/>
      <point x="224" y="1335" type="curve" smooth="yes"/>
      <point x="168" y="1335"/>
      <point x="143" y="1298"/>
      <point x="143" y="1233" type="curve" smooth="yes"/>
      <point x="143" y="1222" type="line" smooth="yes"/>
      <point x="143" y="1157"/>
      <point x="168" y="1119"/>
    </contour>
    <contour>
      <point x="465" y="1119" type="curve" smooth="yes"/>
      <point x="520" y="1119"/>
      <point x="546" y="1158"/>
      <point x="546" y="1222" type="curve" smooth="yes"/>
      <point x="546" y="1233" type="line" smooth="yes"/>
      <point x="546" y="1297"/>
      <point x="520" y="1335"/>
      <point x="465" y="1335" type="curve" smooth="yes"/>
      <point x="408" y="1335"/>
      <point x="384" y="1297"/>
      <point x="384" y="1233" type="curve" smooth="yes"/>
      <point x="384" y="1222" type="line" smooth="yes"/>
      <point x="384" y="1158"/>
      <point x="408" y="1119"/>
    </contour>
  </outline>
</glyph>
<glyph name="uni0900" format="2">
  <unicode hex="0900"/>
  <anchor x="-201" y="1258.5" name="_top"/>
  <outline>
    <contour>
      <point x="-201.036" y="1622.8" type="curve" smooth="yes"/>
      <point x="-149.645" y="1622.8"/>
      <point x="-130.231" y="1585.77"/>
      <point x="-130.231" y="1514.51" type="curve" smooth="yes"/>
      <point x="-130.231" y="1500.41" type="line" smooth="yes"/>
      <point x="-130.231" y="1431.43"/>
      <point x="-149.645" y="1393.89"/>
      <point x="-201.036" y="1393.89" type="curve" smooth="yes"/>
      <point x="-252.426" y="1393.89"/>
      <point x="-271.269" y="1431.43"/>
      <point x="-271.269" y="1500.41" type="curve" smooth="yes"/>
      <point x="-271.269" y="1514.51" type="line" smooth="yes"/>
      <point x="-271.269" y="1585.77"/>
      <point x="-252.426" y="1622.8"/>
    </contour>
    <contour>
      <point x="-474" y="1508" type="line"/>
      <point x="-476" y="1538.5"/>
      <point x="-476" y="1552.5"/>
      <point x="-476" y="1564" type="curve" smooth="yes"/>
      <point x="-476" y="1747.3"/>
      <point x="-379.184" y="1834"/>
      <point x="-200.735" y="1834" type="curve" smooth="yes"/>
      <point x="-22.2861" y="1834"/>
      <point x="74" y="1747.3"/>
      <point x="74" y="1564" type="curve" smooth="yes"/>
      <point x="74" y="1553.39"/>
      <point x="74" y="1538.5"/>
      <point x="72" y="1508" type="curve"/>
      <point x="-56" y="1508" type="line"/>
      <point x="-56" y="1547.9" type="line" smooth="yes"/>
      <point x="-56" y="1665.23"/>
      <point x="-102.939" y="1715.5"/>
      <point x="-201" y="1715.5" type="curve" smooth="yes"/>
      <point x="-299.061" y="1715.5"/>
      <point x="-346.5" y="1665.23"/>
      <point x="-346.5" y="1547.9" type="curve" smooth="yes"/>
      <point x="-346.5" y="1508" type="line"/>
    </contour>
  </outline>
  <guideline angle="90" x="-169" y="0"/>
  <guideline angle="0" x="0" y="1262"/>
</glyph>
<glyph name="Chandrabindu.dv" format="2">
  <unicode hex="0901"/>
  <anchor x="-201" y="1258.5" name="_top"/>
  <outline>
    <contour>
      <point x="-200.964" y="1617.7" type="curve" smooth="yes"/>
      <point x="-252.355" y="1617.7"/>
      <point x="-271.769" y="1654.73"/>
      <point x="-271.769" y="1725.99" type="curve" smooth="yes"/>
      <point x="-271.769" y="1740.09" type="line" smooth="yes"/>
      <point x="-271.769" y="1809.07"/>
      <point x="-252.355" y="1846.61"/>
      <point x="-200.964" y="1846.61" type="curve" smooth="yes"/>
      <point x="-149.574" y="1846.61"/>
      <point x="-130.731" y="1809.07"/>
      <point x="-130.731" y="1740.09" type="curve" smooth="yes"/>
      <point x="-130.731" y="1725.99" type="line" smooth="yes"/>
      <point x="-130.731" y="1654.73"/>
      <point x="-149.574" y="1617.7"/>
    </contour>
    <contour>
      <point x="72" y="1732.5" type="line"/>
      <point x="74" y="1702"/>
      <point x="74" y="1688"/>
      <point x="74" y="1676.5" type="curve" smooth="yes"/>
      <point x="74" y="1493.2"/>
      <point x="-22.8165" y="1406.5"/>
      <point x="-201.265" y="1406.5" type="curve" smooth="yes"/>
      <point x="-379.714" y="1406.5"/>
      <point x="-476" y="1493.2"/>
      <point x="-476" y="1676.5" type="curve" smooth="yes"/>
      <point x="-476" y="1687.11"/>
      <point x="-476" y="1702"/>
      <point x="-474" y="1732.5" type="curve"/>
      <point x="-346" y="1732.5" type="line"/>
      <point x="-346" y="1692.6" type="line" smooth="yes"/>
      <point x="-346" y="1575.27"/>
      <point x="-299.061" y="1525"/>
      <point x="-201" y="1525" type="curve" smooth="yes"/>
      <point x="-102.939" y="1525"/>
      <point x="-55.5" y="1575.27"/>
      <point x="-55.5" y="1692.6" type="curve" smooth="yes"/>
      <point x="-55.5" y="1732.5" type="line"/>
    </contour>
  </outline>
  <guideline angle="90" x="-169" y="0"/>
  <guideline angle="0" x="0" y="1262"/>
</glyph>
<glyph name="Bindu.dv" format="2">
  <unicode hex="0902"/>
  <anchor x="-201" y="1258.5" name="_top"/>
  <outline>
    <contour>
      <point x="-201" y="1432.5" type="curve" smooth="yes"/>
      <point x="-266.405" y="1432.5"/>
      <point x="-296.79" y="1475.24"/>
      <point x="-296.79" y="1553.52" type="curve" smooth="yes"/>
      <point x="-296.79" y="1567.94" type="line" smooth="yes"/>
      <point x="-296.79" y="1645.19"/>
      <point x="-266.405" y="1688.45"/>
      <point x="-201" y="1688.45" type="curve" smooth="yes"/>
      <point x="-135.08" y="1688.45"/>
      <point x="-105.21" y="1645.19"/>
      <point x="-105.21" y="1567.94" type="curve" smooth="yes"/>
      <point x="-105.21" y="1553.52" type="line" smooth="yes"/>
      <point x="-105.21" y="1475.24"/>
      <point x="-135.08" y="1432.5"/>
    </contour>
  </outline>
  <guideline angle="90" x="-169" y="0"/>
  <guideline angle="0" x="0" y="1262"/>
</glyph>
<glyph name="vowelChandraE.dv" format="2">
  <advance width="797"/>
  <unicode hex="090D"/>
  <outline>
    <contour>
      <point x="655.5" y="1732.5" type="line"/>
      <point x="657" y="1709"/>
      <point x="657" y="1698"/>
      <point x="657" y="1684.5" type="curve" smooth="yes"/>
      <point x="657" y="1485.5"/>
      <point x="570" y="1406.5"/>
      <point x="406" y="1406.5" type="curve" smooth="yes"/>
      <point x="242" y="1406.5"/>
      <point x="155" y="1485.5"/>
      <point x="155" y="1684.5" type="curve" smooth="yes"/>
      <point x="155" y="1696.5"/>
      <point x="155" y="1709"/>
      <point x="156.5" y="1732.5" type="curve"/>
      <point x="300" y="1732.5" type="line"/>
      <point x="300" y="1728.34"/>
      <point x="300" y="1698.92"/>
      <point x="300" y="1696.5" type="curve" smooth="yes"/>
      <point x="300" y="1577.79"/>
      <point x="331.295" y="1533.5"/>
      <point x="406" y="1533.5" type="curve" smooth="yes"/>
      <point x="480.705" y="1533.5"/>
      <point x="512" y="1577.79"/>
      <point x="512" y="1696.5" type="curve" smooth="yes"/>
      <point x="512" y="1699.15"/>
      <point x="512" y="1729.26"/>
      <point x="512" y="1732.5" type="curve"/>
    </contour>
    <contour>
      <point x="-24" y="1155" type="line"/>
      <point x="-34" y="1290" type="line"/>
      <point x="820" y="1290" type="line"/>
      <point x="831" y="1155" type="line"/>
    </contour>
    <contour>
      <point x="278" y="507" type="line" smooth="yes"/>
      <point x="278" y="224.342"/>
      <point x="373.289" y="145"/>
      <point x="546" y="145" type="curve" smooth="yes"/>
      <point x="589.592" y="145"/>
      <point x="634.284" y="151.802"/>
      <point x="672" y="162" type="curve"/>
      <point x="658" y="14" type="line"/>
      <point x="618.803" y="-0.461538"/>
      <point x="572.98" y="-5"/>
      <point x="526" y="-5" type="curve" smooth="yes"/>
      <point x="257.077" y="-5"/>
      <point x="108" y="141"/>
      <point x="108" y="506" type="curve" smooth="yes"/>
      <point x="108" y="1196" type="line"/>
      <point x="278" y="1196" type="line"/>
    </contour>
    <contour>
      <point x="700" y="736" type="line" smooth="yes"/>
      <point x="700" y="477"/>
      <point x="621" y="397"/>
      <point x="470" y="397" type="curve" smooth="yes"/>
      <point x="451" y="397"/>
      <point x="431" y="399.4"/>
      <point x="416" y="403" type="curve"/>
      <point x="416" y="547" type="line"/>
      <point x="417.56" y="547"/>
      <point x="422.44" y="547"/>
      <point x="424" y="547" type="curve"/>
      <point x="507" y="547"/>
      <point x="532" y="588.838"/>
      <point x="532" y="738" type="curve" smooth="yes"/>
      <point x="532" y="1194" type="line"/>
      <point x="700" y="1195" type="line"/>
    </contour>
  </outline>
  <guideline angle="90" x="171" y="0"/>
</glyph>
<glyph name="vowelE.dv" format="2">
  <advance width="797"/>
  <unicode hex="090F"/>
  <anchor x="691" y="23" name="bottom3"/>
  <anchor x="411.5" y="1258.5" name="top"/>
  <outline>
    <contour>
      <point x="-24" y="1155" type="line"/>
      <point x="-34" y="1290" type="line"/>
      <point x="820" y="1290" type="line"/>
      <point x="831" y="1155" type="line"/>
    </contour>
    <contour>
      <point x="278" y="507" type="line" smooth="yes"/>
      <point x="278" y="224.342"/>
      <point x="373.289" y="145"/>
      <point x="546" y="145" type="curve" smooth="yes"/>
      <point x="589.592" y="145"/>
      <point x="634.284" y="151.802"/>
      <point x="672" y="162" type="curve"/>
      <point x="658" y="14" type="line"/>
      <point x="618.803" y="-0.461538"/>
      <point x="572.98" y="-5"/>
      <point x="526" y="-5" type="curve" smooth="yes"/>
      <point x="257.077" y="-5"/>
      <point x="108" y="141"/>
      <point x="108" y="506" type="curve" smooth="yes"/>
      <point x="108" y="1196" type="line"/>
      <point x="278" y="1196" type="line"/>
    </contour>
    <contour>
      <point x="700" y="736" type="line" smooth="yes"/>
      <point x="700" y="477"/>
      <point x="621" y="397"/>
      <point x="470" y="397" type="curve" smooth="yes"/>
      <point x="451" y="397"/>
      <point x="431" y="399.4"/>
      <point x="416" y="403" type="curve"/>
      <point x="416" y="547" type="line"/>
      <point x="417.56" y="547"/>
      <point x="422.44" y="547"/>
      <point x="424" y="547" type="curve"/>
      <point x="507" y="547"/>
      <point x="532" y="588.838"/>
      <point x="532" y="738" type="curve" smooth="yes"/>
      <point x="532" y="1194" type="line"/>
      <point x="700" y="1195" type="line"/>
    </contour>
  </outline>
  <guideline angle="90" x="689" y="0"/>
</glyph>
<glyph name="vowelShortO.dv" format="2">
  <advance width="1425"/>
  <unicode hex="0912"/>
  <anchor x="1300" y="1258.5" name="top"/>
  <outline>
    <contour>
      <point x="870" y="1753.5" type="curve" smooth="yes"/>
      <point x="870" y="1650"/>
      <point x="899.5" y="1614.5"/>
      <point x="1006.5" y="1609.5" type="curve" smooth="yes"/>
      <point x="1053" y="1607.5" type="line" smooth="yes"/>
      <point x="1233" y="1600"/>
      <point x="1295.5" y="1513"/>
      <point x="1295.5" y="1344" type="curve" smooth="yes"/>
      <point x="1295.5" y="1258.5" type="line"/>
      <point x="1148" y="1258.5" type="line"/>
      <point x="1148" y="1338.17" type="line" smooth="yes"/>
      <point x="1148" y="1425.72"/>
      <point x="1123.55" y="1464.97"/>
      <point x="1029" y="1469.49" type="curve" smooth="yes"/>
      <point x="977.5" y="1471.95" type="line" smooth="yes"/>
      <point x="803.998" y="1480.23"/>
      <point x="726" y="1547.2"/>
      <point x="726" y="1690.64" type="curve" smooth="yes"/>
      <point x="726" y="1716.2"/>
      <point x="729" y="1745"/>
      <point x="736.5" y="1772" type="curve"/>
      <point x="870" y="1772" type="line"/>
      <point x="870" y="1768.99"/>
      <point x="870" y="1756.7"/>
    </contour>
    <contour>
      <point x="1057" y="1155" type="line"/>
      <point x="617" y="1155" type="line"/>
      <point x="607" y="1290" type="line"/>
      <point x="1048" y="1290" type="line"/>
    </contour>
    <contour>
      <point x="739" y="0" type="line"/>
      <point x="739" y="1206" type="line"/>
      <point x="908" y="1206" type="line"/>
      <point x="908" y="0" type="line"/>
    </contour>
    <contour>
      <point x="31" y="245" type="line"/>
      <point x="91" y="203"/>
      <point x="156" y="176"/>
      <point x="225" y="176" type="curve" smooth="yes"/>
      <point x="328" y="176"/>
      <point x="374" y="230"/>
      <point x="374" y="362" type="curve" smooth="yes"/>
      <point x="374" y="416" type="line" smooth="yes"/>
      <point x="374" y="540"/>
      <point x="327.011" y="597.269"/>
      <point x="204" y="602" type="curve" smooth="yes"/>
      <point x="126" y="605" type="line"/>
      <point x="126" y="747" type="line"/>
      <point x="199" y="752" type="line" smooth="yes"/>
      <point x="317.026" y="760.084"/>
      <point x="363" y="814.407"/>
      <point x="363" y="941" type="curve" smooth="yes"/>
      <point x="363" y="996" type="line" smooth="yes"/>
      <point x="363" y="1108"/>
      <point x="324" y="1157"/>
      <point x="234" y="1157" type="curve" smooth="yes"/>
      <point x="174.289" y="1157"/>
      <point x="119.639" y="1137"/>
      <point x="66" y="1105" type="curve"/>
      <point x="73" y="1257" type="line"/>
      <point x="121.249" y="1284.59"/>
      <point x="186.608" y="1304"/>
      <point x="263" y="1304" type="curve" smooth="yes"/>
      <point x="443" y="1304"/>
      <point x="527" y="1208.3"/>
      <point x="527" y="1015.13" type="curve" smooth="yes"/>
      <point x="527" y="963" type="line" smooth="yes"/>
      <point x="527" y="805.118"/>
      <point x="468.5" y="726.899"/>
      <point x="315" y="708" type="curve"/>
      <point x="315" y="644" type="line"/>
      <point x="486.233" y="598.805"/>
      <point x="539" y="512.87"/>
      <point x="539" y="371" type="curve" smooth="yes"/>
      <point x="539" y="325" type="line" smooth="yes"/>
      <point x="539" y="121.349"/>
      <point x="450.623" y="26"/>
      <point x="252" y="26" type="curve" smooth="yes"/>
      <point x="164" y="26"/>
      <point x="90.4739" y="49.7931"/>
      <point x="39" y="86" type="curve"/>
    </contour>
    <contour>
      <point x="303" y="722" type="line"/>
      <point x="399" y="737" type="line"/>
      <point x="403" y="721" type="line"/>
      <point x="469.706" y="730.824"/>
      <point x="533.802" y="736"/>
      <point x="618" y="736" type="curve" smooth="yes"/>
      <point x="792" y="736" type="line"/>
      <point x="792" y="592" type="line"/>
      <point x="619" y="592" type="line" smooth="yes"/>
      <point x="528.839" y="592"/>
      <point x="466" y="603"/>
      <point x="399" y="624" type="curve"/>
      <point x="393" y="600" type="line"/>
      <point x="303" y="620" type="line"/>
    </contour>
    <contour>
      <point x="1308.25" y="0" type="line"/>
      <point x="1138.75" y="0" type="line"/>
      <point x="1138.75" y="1203.5" type="line"/>
      <point x="1308.25" y="1203.5" type="line"/>
    </contour>
    <contour>
      <point x="1457.25" y="1154.5" type="line"/>
      <point x="999.75" y="1154.5" type="line"/>
      <point x="989.75" y="1289.5" type="line"/>
      <point x="1447.25" y="1289.5" type="line"/>
    </contour>
  </outline>
  <guideline angle="90" x="1029" y="0"/>
  <guideline angle="90" x="692" y="0"/>
  <guideline angle="90" x="1047" y="0"/>
  <guideline angle="90" x="1223" y="0"/>
  <guideline angle="90" x="1176" y="0"/>
</glyph>
<glyph name="Jha.dv" format="2">
  <advance width="1103"/>
  <unicode hex="091D"/>
  <anchor x="903" y="23" name="bottom"/>
  <anchor x="894.5" y="23" name="bottom2"/>
  <anchor x="987" y="23" name="bottom3"/>
  <anchor x="902" y="42.5" name="bottom5"/>
  <anchor x="900.5" y="1258.5" name="top"/>
  <outline>
    <contour>
      <point x="986.5" y="1203.5" type="line"/>
      <point x="986.5" y="0" type="line"/>
      <point x="817" y="0" type="line"/>
      <point x="817" y="1203.5" type="line"/>
    </contour>
    <contour>
      <point x="754.5" y="1154.5" type="line"/>
      <point x="744.5" y="1289.5" type="line"/>
      <point x="1125.5" y="1289.5" type="line"/>
      <point x="1135.5" y="1154.5" type="line"/>
    </contour>
    <contour>
      <point x="1134" y="1154.5" type="line"/>
      <point x="-23" y="1154.5" type="line"/>
      <point x="-33" y="1289.5" type="line"/>
      <point x="1124" y="1289.5" type="line"/>
    </contour>
    <contour>
      <point x="424" y="1192.5" type="line"/>
      <point x="589" y="1192.5" type="line"/>
      <point x="589" y="840.5" type="line"/>
      <point x="424" y="898" type="line"/>
    </contour>
    <contour>
      <point x="846" y="560.5" type="line"/>
      <point x="846" y="417" type="line"/>
      <point x="762" y="417" type="line" smooth="yes"/>
      <point x="669" y="417"/>
      <point x="616" y="436"/>
      <point x="565" y="490" type="curve"/>
      <point x="534.5" y="560.5" type="line"/>
    </contour>
    <contour>
      <point x="543" y="-334" type="line"/>
      <point x="363" y="-334" type="line"/>
      <point x="196" y="9" type="line"/>
      <point x="78" y="68" type="line"/>
      <point x="325" y="32" type="line"/>
      <point x="325" y="4" type="line"/>
      <point x="381" y="-48"/>
      <point x="417.831" y="-96.3061"/>
      <point x="461.092" y="-176.729" type="curve" smooth="yes"/>
      <point x="543" y="-329" type="line"/>
    </contour>
    <contour>
      <point x="68" y="247" type="line"/>
      <point x="158" y="182"/>
      <point x="240" y="142"/>
      <point x="327.712" y="142" type="curve" smooth="yes"/>
      <point x="429.456" y="142"/>
      <point x="477" y="193"/>
      <point x="477" y="297" type="curve" smooth="yes"/>
      <point x="477" y="309" type="line" smooth="yes"/>
      <point x="477" y="402"/>
      <point x="444.532" y="454"/>
      <point x="368.466" y="454" type="curve" smooth="yes"/>
      <point x="317.489" y="454"/>
      <point x="272.282" y="435.595"/>
      <point x="229" y="411" type="curve"/>
      <point x="122" y="478.238"/>
      <point x="75" y="563.532"/>
      <point x="75" y="694" type="curve" smooth="yes"/>
      <point x="75" y="708" type="line" smooth="yes"/>
      <point x="75" y="890"/>
      <point x="169.529" y="986"/>
      <point x="365.48" y="986" type="curve" smooth="yes"/>
      <point x="452.232" y="986"/>
      <point x="524.839" y="972"/>
      <point x="589" y="953" type="curve"/>
      <point x="589" y="827" type="line"/>
      <point x="531.262" y="839"/>
      <point x="473.969" y="845"/>
      <point x="414.827" y="845" type="curve" smooth="yes"/>
      <point x="287.909" y="845"/>
      <point x="243" y="800"/>
      <point x="243" y="705" type="curve" smooth="yes"/>
      <point x="243" y="695" type="line" smooth="yes"/>
      <point x="243" y="638.471"/>
      <point x="254.537" y="603.76"/>
      <point x="286" y="575" type="curve"/>
      <point x="322.013" y="592.414"/>
      <point x="365.828" y="603"/>
      <point x="416.427" y="603" type="curve" smooth="yes"/>
      <point x="570" y="603"/>
      <point x="647" y="493"/>
      <point x="647" y="315" type="curve" smooth="yes"/>
      <point x="647" y="292" type="line" smooth="yes"/>
      <point x="647" y="98.3579"/>
      <point x="564.274" y="-8"/>
      <point x="342.386" y="-8" type="curve" smooth="yes"/>
      <point x="286.301" y="-8"/>
      <point x="235.138" y="2.95456"/>
      <point x="189.952" y="24.5678" type="curve"/>
      <point x="78" y="68" type="line"/>
    </contour>
  </outline>
  <guideline angle="90" x="863" y="0"/>
  <guideline angle="0" x="0" y="9"/>
  <guideline angle="90" x="868" y="0"/>
  <guideline angle="90" x="851" y="0"/>
  <guideline angle="0" x="0" y="1262"/>
  <guideline angle="90" x="901" y="0"/>
  <guideline angle="0" x="0" y="30"/>
</glyph>
<glyph name="Ddha.dv" format="2">
  <advance width="828"/>
  <unicode hex="0922"/>
  <anchor x="455.5" y="8.5" name="bottom"/>
  <anchor x="411" y="8.5" name="bottom2"/>
  <anchor x="711" y="8.5" name="bottom3"/>
  <anchor x="433.5" y="28" name="bottom5"/>
  <anchor x="609.5" y="1258.5" name="top"/>
  <outline>
    <contour>
      <point x="455.5" y="1154.5" type="line"/>
      <point x="445.5" y="1289.5" type="line"/>
      <point x="806" y="1289.5" type="line"/>
      <point x="816" y="1154.5" type="line"/>
    </contour>
    <contour>
      <point x="692" y="1204" type="line"/>
      <point x="692" y="988.499" type="line"/>
      <point x="528" y="988.499" type="line"/>
      <point x="528" y="1204" type="line"/>
    </contour>
    <contour>
      <point x="-16" y="1155" type="line"/>
      <point x="-26" y="1290" type="line"/>
      <point x="860" y="1290" type="line"/>
      <point x="869" y="1155" type="line"/>
    </contour>
    <contour>
      <point x="527" y="1203" type="line"/>
      <point x="692" y="1203" type="line"/>
      <point x="692" y="802.999" type="line"/>
      <point x="527" y="860.999" type="line"/>
    </contour>
    <contour>
      <point x="84" y="578.999" type="line" smooth="yes"/>
      <point x="84" y="850.295"/>
      <point x="203.73" y="963.999"/>
      <point x="461" y="963.999" type="curve" smooth="yes"/>
      <point x="533.893" y="963.999"/>
      <point x="609.867" y="957.999"/>
      <point x="692" y="943.999" type="curve"/>
      <point x="692" y="802.999" type="line"/>
      <point x="617.895" y="815.999"/>
      <point x="558.002" y="820.999"/>
      <point x="500.139" y="820.999" type="curve" smooth="yes"/>
      <point x="326.351" y="820.999"/>
      <point x="249" y="751.999"/>
      <point x="249" y="563.999" type="curve" smooth="yes"/>
      <point x="249" y="366.999" type="line" smooth="yes"/>
      <point x="249" y="191.76"/>
      <point x="314.876" y="118.999"/>
      <point x="449.716" y="118.999" type="curve" smooth="yes"/>
      <point x="574.373" y="118.999"/>
      <point x="616" y="163.142"/>
      <point x="616" y="313.999" type="curve" smooth="yes"/>
      <point x="616" y="420.528" type="line" smooth="yes"/>
      <point x="616" y="497.999"/>
      <point x="604" y="523.999"/>
      <point x="561" y="523.999" type="curve" smooth="yes"/>
      <point x="519.491" y="523.999"/>
      <point x="507" y="496.879"/>
      <point x="507" y="419.999" type="curve" smooth="yes"/>
      <point x="507" y="316.999" type="line" smooth="yes"/>
      <point x="507" y="198.977"/>
      <point x="527.138" y="167.505"/>
      <point x="580" y="137.999" type="curve"/>
      <point x="480" y="110.999" type="line"/>
      <point x="480" y="128.999" type="line"/>
      <point x="393.534" y="166.508"/>
      <point x="365" y="206.045"/>
      <point x="365" y="350.126" type="curve" smooth="yes"/>
      <point x="365" y="436.999" type="line" smooth="yes"/>
      <point x="365" y="586.636"/>
      <point x="428.969" y="654.999"/>
      <point x="563" y="654.999" type="curve" smooth="yes"/>
      <point x="695.68" y="654.999"/>
      <point x="761" y="585.999"/>
      <point x="761" y="424.971" type="curve" smooth="yes"/>
      <point x="761" y="314.764" type="line" smooth="yes"/>
      <point x="761" y="90.2526"/>
      <point x="657.337" y="-15.0006"/>
      <point x="438" y="-15.0006" type="curve" smooth="yes"/>
      <point x="204.34" y="-15.0006"/>
      <point x="84" y="103.999"/>
      <point x="84" y="350.999" type="curve" smooth="yes"/>
    </contour>
  </outline>
  <guideline angle="0" x="0" y="9"/>
  <guideline angle="0" x="0" y="-44"/>
  <guideline angle="90" x="577" y="0"/>
</glyph>
<glyph name="Pa.dv" format="2">
  <advance width="825"/>
  <unicode hex="092A"/>
  <anchor x="625" y="23" name="bottom"/>
  <anchor x="616.5" y="23" name="bottom2"/>
  <anchor x="709" y="23" name="bottom3"/>
  <anchor x="624" y="42.5" name="bottom5"/>
  <anchor x="622.5" y="1258.5" name="top"/>
  <outline>
    <contour>
      <point x="708.5" y="1203.5" type="line"/>
      <point x="708.5" y="0" type="line"/>
      <point x="539" y="0" type="line"/>
      <point x="539" y="1203.5" type="line"/>
    </contour>
    <contour>
      <point x="476.5" y="1154.5" type="line"/>
      <point x="466.5" y="1289.5" type="line"/>
      <point x="847.5" y="1289.5" type="line"/>
      <point x="857.5" y="1154.5" type="line"/>
    </contour>
    <contour>
      <point x="-23.5" y="1154.5" type="line"/>
      <point x="-33.5" y="1289.5" type="line"/>
      <point x="747.5" y="1289.5" type="line"/>
      <point x="757.5" y="1154.5" type="line"/>
    </contour>
    <contour>
      <point x="340.5" y="282.5" type="curve" smooth="yes"/>
      <point x="185.513" y="282.5"/>
      <point x="102.5" y="375"/>
      <point x="102.5" y="598" type="curve" smooth="yes"/>
      <point x="102.5" y="1206" type="line"/>
      <point x="272" y="1206" type="line"/>
      <point x="272" y="611" type="line" smooth="yes"/>
      <point x="272" y="479.973"/>
      <point x="313" y="435.5"/>
      <point x="398.5" y="435.5" type="curve" smooth="yes"/>
      <point x="480.5" y="435.5"/>
      <point x="527.191" y="479.506"/>
      <point x="542.5" y="566" type="curve"/>
      <point x="555.5" y="417" type="line"/>
      <point x="529" y="417" type="line"/>
      <point x="507.635" y="337.306"/>
      <point x="452.014" y="282.5"/>
    </contour>
  </outline>
  <guideline angle="0" x="0" y="282.5"/>
  <guideline angle="90" x="585" y="0"/>
  <guideline angle="0" x="0" y="9"/>
  <guideline angle="90" x="590" y="0"/>
  <guideline angle="90" x="573" y="0"/>
  <guideline angle="0" x="0" y="1262"/>
  <guideline angle="90" x="623" y="0"/>
  <guideline angle="0" x="0" y="30"/>
</glyph>
<glyph name="Bha.dv" format="2">
  <advance width="848"/>
  <unicode hex="092D"/>
  <anchor x="648" y="23" name="bottom"/>
  <anchor x="639.5" y="23" name="bottom2"/>
  <anchor x="732" y="23" name="bottom3"/>
  <anchor x="647" y="42.5" name="bottom5"/>
  <anchor x="645.5" y="1258.5" name="top"/>
  <outline>
    <contour>
      <point x="731.5" y="1203.5" type="line"/>
      <point x="731.5" y="0" type="line"/>
      <point x="562" y="0" type="line"/>
      <point x="562" y="1203.5" type="line"/>
    </contour>
    <contour>
      <point x="499.5" y="1154.5" type="line"/>
      <point x="489.5" y="1289.5" type="line"/>
      <point x="870.5" y="1289.5" type="line"/>
      <point x="880.5" y="1154.5" type="line"/>
    </contour>
    <contour>
      <point x="477" y="1154.5" type="line"/>
      <point x="467.5" y="1289.5" type="line"/>
      <point x="869" y="1289.5" type="line"/>
      <point x="879" y="1154.5" type="line"/>
    </contour>
    <contour>
      <point x="176.5" y="502" type="line"/>
      <point x="176.5" y="646" type="line"/>
      <point x="630" y="646" type="line"/>
      <point x="630" y="502" type="line"/>
    </contour>
    <contour>
      <point x="166" y="145.5" type="line"/>
      <point x="118" y="289.5"/>
      <point x="87" y="415.5"/>
      <point x="75" y="587" type="curve"/>
      <point x="138.5" y="634" type="line"/>
      <point x="306" y="634" type="line"/>
      <point x="306" y="145.5" type="line"/>
    </contour>
    <contour>
      <point x="138.5" y="489" type="line"/>
      <point x="138.5" y="1011" type="line" smooth="yes"/>
      <point x="138.5" y="1118.5"/>
      <point x="116" y="1154.5"/>
      <point x="32.5" y="1154.5" type="curve" smooth="yes"/>
      <point x="-24" y="1154.5" type="line"/>
      <point x="-34" y="1289.5" type="line"/>
      <point x="54.5" y="1289.5" type="line" smooth="yes"/>
      <point x="244.5" y="1289.5"/>
      <point x="306" y="1210"/>
      <point x="306" y="1014" type="curve" smooth="yes"/>
      <point x="306" y="489" type="line"/>
    </contour>
  </outline>
  <guideline angle="90" x="421" y="0"/>
  <guideline angle="90" x="608" y="0"/>
  <guideline angle="0" x="0" y="9"/>
  <guideline angle="90" x="613" y="0"/>
  <guideline angle="90" x="596" y="0"/>
  <guideline angle="0" x="0" y="1262"/>
  <guideline angle="90" x="646" y="0"/>
  <guideline angle="0" x="0" y="30"/>
</glyph>
<glyph name="La.dv" format="2">
  <advance width="1054"/>
  <unicode hex="0932"/>
  <anchor x="854" y="23" name="bottom"/>
  <anchor x="845.5" y="23" name="bottom2"/>
  <anchor x="938" y="23" name="bottom3"/>
  <anchor x="853" y="42.5" name="bottom5"/>
  <anchor x="851.5" y="1258.5" name="top"/>
  <outline>
    <contour>
      <point x="937.5" y="1203.5" type="line"/>
      <point x="937.5" y="0" type="line"/>
      <point x="768" y="0" type="line"/>
      <point x="768" y="1203.5" type="line"/>
    </contour>
    <contour>
      <point x="705.5" y="1154.5" type="line"/>
      <point x="695.5" y="1289.5" type="line"/>
      <point x="1076.5" y="1289.5" type="line"/>
      <point x="1086.5" y="1154.5" type="line"/>
    </contour>
    <contour>
      <point x="-24" y="1155" type="line"/>
      <point x="-34" y="1290" type="line"/>
      <point x="1068" y="1290" type="line"/>
      <point x="1078" y="1155" type="line"/>
    </contour>
    <contour>
      <point x="329.863" y="939" type="curve" smooth="yes"/>
      <point x="434.324" y="939"/>
      <point x="490" y="894.992"/>
      <point x="513" y="808" type="curve"/>
      <point x="521" y="808" type="line"/>
      <point x="540.955" y="896.016"/>
      <point x="594.4" y="939"/>
      <point x="674" y="939" type="curve" smooth="yes"/>
      <point x="736.836" y="939"/>
      <point x="775" y="913"/>
      <point x="793" y="861.662" type="curve"/>
      <point x="775" y="710" type="line"/>
      <point x="765" y="762"/>
      <point x="737.581" y="789"/>
      <point x="693" y="789" type="curve" smooth="yes"/>
      <point x="635.178" y="789"/>
      <point x="603.472" y="750"/>
      <point x="601.415" y="631" type="curve" smooth="yes"/>
      <point x="595" y="260" type="line"/>
      <point x="444" y="260" type="line"/>
      <point x="437" y="632" type="line" smooth="yes"/>
      <point x="434.817" y="747.996"/>
      <point x="409.683" y="789"/>
      <point x="351.256" y="789" type="curve" smooth="yes"/>
      <point x="278.686" y="789"/>
      <point x="247" y="732.652"/>
      <point x="247" y="610" type="curve" smooth="yes"/>
      <point x="247" y="423.386"/>
      <point x="288" y="239.782"/>
      <point x="389" y="2" type="curve"/>
      <point x="389" y="0" type="line"/>
      <point x="211" y="0" type="line"/>
      <point x="117" y="235.759"/>
      <point x="75" y="426.373"/>
      <point x="75" y="621" type="curve" smooth="yes"/>
      <point x="75" y="831.688"/>
      <point x="166.219" y="939"/>
    </contour>
  </outline>
  <guideline angle="0" x="0" y="519"/>
  <guideline angle="0" x="0" y="518"/>
  <guideline angle="90" x="70" y="0"/>
  <guideline angle="90" x="814" y="0"/>
  <guideline angle="0" x="0" y="9"/>
  <guideline angle="90" x="819" y="0"/>
  <guideline angle="90" x="802" y="0"/>
  <guideline angle="0" x="0" y="1262"/>
  <guideline angle="90" x="852" y="0"/>
  <guideline angle="0" x="0" y="30"/>
</glyph>
<glyph name="LlaNukta.dv" format="2">
  <advance width="1054"/>
  <unicode hex="0934"/>
  <anchor x="769.5" y="30.5" name="bottom"/>
  <anchor x="723.5" y="30.5" name="bottom2"/>
  <anchor x="815" y="30.5" name="bottom3"/>
  <anchor x="549" y="52.5" name="bottom5"/>
  <anchor x="736.5" y="1258.5" name="top"/>
  <outline>
    <contour>
      <point x="582.5" y="1154.5" type="line"/>
      <point x="572.5" y="1289.5" type="line"/>
      <point x="933" y="1289.5" type="line"/>
      <point x="943" y="1154.5" type="line"/>
    </contour>
    <contour>
      <point x="819" y="1204" type="line"/>
      <point x="819" y="988.5" type="line"/>
      <point x="655" y="988.5" type="line"/>
      <point x="655" y="1204" type="line"/>
    </contour>
    <contour>
      <point x="1088.5" y="1154.5" type="line"/>
      <point x="-24" y="1154.5" type="line"/>
      <point x="-34" y="1289.5" type="line"/>
      <point x="1078.5" y="1289.5" type="line"/>
    </contour>
    <contour>
      <point x="819" y="898.5" type="line"/>
      <point x="654" y="898.5" type="line"/>
      <point x="654" y="1177" type="line"/>
      <point x="819" y="1177" type="line"/>
    </contour>
    <contour>
      <point x="973" y="332.5" type="line" smooth="yes"/>
      <point x="973" y="103"/>
      <point x="899.488" y="10"/>
      <point x="749" y="10" type="curve" smooth="yes"/>
      <point x="644" y="10"/>
      <point x="588" y="61"/>
      <point x="565" y="137.5" type="curve"/>
      <point x="533" y="137.5" type="line"/>
      <point x="555" y="286" type="line"/>
      <point x="582.5" y="286" type="line"/>
      <point x="592" y="206.239"/>
      <point x="632" y="159.5"/>
      <point x="697" y="159.5" type="curve" smooth="yes"/>
      <point x="769.807" y="159.5"/>
      <point x="804.5" y="204"/>
      <point x="804.5" y="343" type="curve" smooth="yes"/>
      <point x="804.5" y="614.948" type="line" smooth="yes"/>
      <point x="804.5" y="752"/>
      <point x="775.79" y="790.5"/>
      <point x="715" y="790.5" type="curve" smooth="yes"/>
      <point x="653.92" y="790.5"/>
      <point x="626.628" y="752.409"/>
      <point x="618.649" y="647.683" type="curve" smooth="yes"/>
      <point x="586.765" y="229.217" type="line"/>
      <point x="566.297" y="179.281" type="line"/>
      <point x="547.593" y="71.9221"/>
      <point x="481.433" y="8"/>
      <point x="340.704" y="8" type="curve" smooth="yes"/>
      <point x="169.24" y="8"/>
      <point x="84" y="100"/>
      <point x="84" y="332.5" type="curve" smooth="yes"/>
      <point x="84" y="615.5" type="line" smooth="yes"/>
      <point x="84" y="844"/>
      <point x="169" y="938.5"/>
      <point x="319" y="938.5" type="curve" smooth="yes"/>
      <point x="427" y="938.5"/>
      <point x="474" y="886"/>
      <point x="494" y="803" type="curve"/>
      <point x="518" y="803" type="line"/>
      <point x="487.5" y="669" type="line"/>
      <point x="465" y="669" type="line"/>
      <point x="457" y="741"/>
      <point x="428.013" y="789.5"/>
      <point x="363" y="789.5" type="curve" smooth="yes"/>
      <point x="290.154" y="789.5"/>
      <point x="251.5" y="742.721"/>
      <point x="251.5" y="602.385" type="curve" smooth="yes"/>
      <point x="251.5" y="333.159" type="line" smooth="yes"/>
      <point x="251.5" y="198.297"/>
      <point x="279.235" y="153.5"/>
      <point x="348.095" y="153.5" type="curve" smooth="yes"/>
      <point x="405.885" y="153.5"/>
      <point x="429.945" y="195.51"/>
      <point x="435.727" y="280.182" type="curve" smooth="yes"/>
      <point x="466" y="723.549" type="line"/>
      <point x="493.426" y="758.46" type="line"/>
      <point x="511.331" y="869.676"/>
      <point x="580.394" y="938.5"/>
      <point x="723.124" y="938.5" type="curve" smooth="yes"/>
      <point x="900" y="938.5"/>
      <point x="973" y="837.5"/>
      <point x="973" y="617" type="curve" smooth="yes"/>
    </contour>
    <contour>
      <point x="520.46" y="-315.76" type="curve" smooth="yes"/>
      <point x="454.04" y="-315.76"/>
      <point x="425.42" y="-273.1"/>
      <point x="425.42" y="-196.42" type="curve" smooth="yes"/>
      <point x="425.42" y="-194.413"/>
      <point x="425.42" y="-187.521"/>
      <point x="425.42" y="-185.08" type="curve" smooth="yes"/>
      <point x="425.42" y="-108.4"/>
      <point x="454.04" y="-65.74"/>
      <point x="520.46" y="-65.74" type="curve" smooth="yes"/>
      <point x="586.88" y="-65.74"/>
      <point x="615.5" y="-108.4"/>
      <point x="615.5" y="-185.08" type="curve"/>
      <point x="615.5" y="-187.075"/>
      <point x="615.5" y="-193.972"/>
      <point x="615.5" y="-196.42" type="curve" smooth="yes"/>
      <point x="615.5" y="-273.1"/>
      <point x="586.88" y="-315.76"/>
    </contour>
  </outline>
  <guideline angle="90" x="487" y="0"/>
  <guideline angle="0" x="0" y="519"/>
  <guideline angle="0" x="0" y="42"/>
  <guideline angle="90" x="567" y="0"/>
  <guideline angle="90" x="631" y="0"/>
  <guideline angle="0" x="0" y="63"/>
  <guideline angle="90" x="704" y="0"/>
</glyph>
<glyph name="uni093A" format="2">
  <unicode hex="093A"/>
  <anchor x="-202.5" y="1258.5" name="_top"/>
  <outline>
    <contour>
      <point x="-275" y="1679" type="line"/>
      <point x="-129" y="1679" type="line"/>
      <point x="-129" y="1265.5" type="line"/>
      <point x="-275" y="1265.5" type="line"/>
    </contour>
  </outline>
  <guideline angle="90" x="-98" y="0"/>
</glyph>
<glyph name="matraRu.dv" format="2">
  <unicode hex="0943"/>
  <anchor x="-201" y="23" name="_bottom"/>
  <outline>
    <contour>
      <point x="-211" y="-541" type="curve" smooth="yes"/>
      <point x="-378.897" y="-541"/>
      <point x="-476.5" y="-447.5"/>
      <point x="-476.5" y="-268" type="curve" smooth="yes"/>
      <point x="-476.5" y="-251" type="line" smooth="yes"/>
      <point x="-476.5" y="-66"/>
      <point x="-388.054" y="20.5"/>
      <point x="-196" y="20.5" type="curve" smooth="yes"/>
      <point x="-117.472" y="20.5" type="line"/>
      <point x="-117.472" y="-113.5" type="line"/>
      <point x="-178" y="-113.5" type="line" smooth="yes"/>
      <point x="-278.5" y="-113.5"/>
      <point x="-316.5" y="-150.115"/>
      <point x="-316.5" y="-253.034" type="curve" smooth="yes"/>
      <point x="-316.5" y="-266.393" type="line" smooth="yes"/>
      <point x="-316.5" y="-355.576"/>
      <point x="-275" y="-397"/>
      <point x="-191" y="-397" type="curve" smooth="yes"/>
      <point x="-135" y="-397"/>
      <point x="-85.604" y="-379.375"/>
      <point x="-40" y="-350" type="curve"/>
      <point x="-52" y="-497" type="line"/>
      <point x="-93" y="-526"/>
      <point x="-148" y="-541"/>
    </contour>
  </outline>
  <guideline angle="0" x="0" y="5936"/>
  <guideline angle="90" x="-186" y="0"/>
  <guideline angle="0" x="0" y="9"/>
  <guideline angle="90" x="-151" y="0"/>
  <guideline angle="0" x="0" y="15"/>
  <guideline angle="90" x="-396" y="0"/>
</glyph>
<glyph name="matraShortE.dv" format="2">
  <unicode hex="0946"/>
  <anchor x="-201" y="1258.5" name="_top"/>
  <outline>
    <contour>
      <point x="-552" y="1753.5" type="curve" smooth="yes"/>
      <point x="-552" y="1650"/>
      <point x="-522.5" y="1614.5"/>
      <point x="-415.5" y="1609.5" type="curve" smooth="yes"/>
      <point x="-369" y="1607.5" type="line" smooth="yes"/>
      <point x="-189" y="1600"/>
      <point x="-126.5" y="1513"/>
      <point x="-126.5" y="1344" type="curve" smooth="yes"/>
      <point x="-126.5" y="1258.5" type="line"/>
      <point x="-274" y="1258.5" type="line"/>
      <point x="-274" y="1338.17" type="line" smooth="yes"/>
      <point x="-274" y="1425.72"/>
      <point x="-298.453" y="1464.97"/>
      <point x="-393" y="1469.49" type="curve" smooth="yes"/>
      <point x="-444.5" y="1471.95" type="line" smooth="yes"/>
      <point x="-618.002" y="1480.23"/>
      <point x="-696" y="1547.2"/>
      <point x="-696" y="1690.64" type="curve" smooth="yes"/>
      <point x="-696" y="1716.2"/>
      <point x="-693" y="1745"/>
      <point x="-685.5" y="1772" type="curve"/>
      <point x="-552" y="1772" type="line"/>
      <point x="-552" y="1768.99"/>
      <point x="-552" y="1756.7"/>
    </contour>
  </outline>
  <guideline angle="90" x="-169" y="0"/>
  <guideline angle="90" x="-43" y="0"/>
  <guideline angle="0" x="0" y="1262"/>
</glyph>
<glyph name="uni0953" format="2">
  <unicode hex="0953"/>
  <anchor x="-201" y="1258.5" name="_top"/>
  <outline>
    <contour>
      <point x="-287" y="1406.5" type="line"/>
      <point x="-494" y="1749" type="line"/>
      <point x="-494" y="1758" type="line"/>
      <point x="-309" y="1758" type="line"/>
      <point x="-132.5" y="1412.5" type="line"/>
      <point x="-132.5" y="1406.5" type="line"/>
    </contour>
  </outline>
  <guideline angle="90" x="-169" y="0"/>
  <guideline angle="0" x="0" y="1262"/>
</glyph>
<glyph name="uni0954" format="2">
  <unicode hex="0954"/>
  <anchor x="-201" y="1258.5" name="_top"/>
  <outline>
    <contour>
      <point x="-112.5" y="1406.5" type="line"/>
      <point x="-267" y="1406.5" type="line"/>
      <point x="-267" y="1412.5" type="line"/>
      <point x="-90.5" y="1758" type="line"/>
      <point x="94.5" y="1758" type="line"/>
      <point x="94.5" y="1749" type="line"/>
    </contour>
  </outline>
  <guideline angle="90" x="-169" y="0"/>
  <guideline angle="0" x="0" y="1262"/>
</glyph>
<glyph name="KhaNukta.dv" format="2">
  <advance width="1134"/>
  <unicode hex="0959"/>
  <anchor x="934" y="23" name="bottom"/>
  <anchor x="925.5" y="23" name="bottom2"/>
  <anchor x="1018" y="23" name="bottom3"/>
  <anchor x="933" y="42.5" name="bottom5"/>
  <anchor x="931.5" y="1258.5" name="top"/>
  <outline>
    <contour>
      <point x="1017.5" y="1203.5" type="line"/>
      <point x="1017.5" y="0" type="line"/>
      <point x="848" y="0" type="line"/>
      <point x="848" y="1203.5" type="line"/>
    </contour>
    <contour>
      <point x="785.5" y="1154.5" type="line"/>
      <point x="775.5" y="1289.5" type="line"/>
      <point x="1156.5" y="1289.5" type="line"/>
      <point x="1166.5" y="1154.5" type="line"/>
    </contour>
    <contour>
      <point x="-23" y="1155" type="line"/>
      <point x="-33" y="1290" type="line"/>
      <point x="1156" y="1290" type="line"/>
      <point x="1166" y="1155" type="line"/>
    </contour>
    <contour>
      <point x="399" y="947" type="curve" smooth="yes"/>
      <point x="399" y="886" type="line" smooth="yes"/>
      <point x="399" y="636"/>
      <point x="319.98" y="558.284"/>
      <point x="134" y="545" type="curve" smooth="yes"/>
      <point x="106" y="543" type="line"/>
      <point x="34" y="679" type="line"/>
      <point x="65" y="679" type="line" smooth="yes"/>
      <point x="179" y="679"/>
      <point x="229" y="740"/>
      <point x="229" y="903" type="curve" smooth="yes"/>
      <point x="229" y="961" type="line" smooth="yes"/>
      <point x="229" y="1068"/>
      <point x="219" y="1134"/>
      <point x="188" y="1180" type="curve"/>
      <point x="356" y="1180" type="line"/>
      <point x="387" y="1131"/>
      <point x="399" y="1059"/>
    </contour>
    <contour>
      <point x="778" y="59" type="line"/>
      <point x="733" y="39"/>
      <point x="675" y="30"/>
      <point x="613" y="30" type="curve" smooth="yes"/>
      <point x="354" y="30"/>
      <point x="202.85" y="157.064"/>
      <point x="127" y="456" type="curve" smooth="yes"/>
      <point x="110" y="523" type="line"/>
      <point x="34" y="531" type="line"/>
      <point x="34" y="679" type="line"/>
      <point x="248" y="605" type="line"/>
      <point x="272" y="522" type="line" smooth="yes"/>
      <point x="348.922" y="255.977"/>
      <point x="462" y="183"/>
      <point x="634" y="183" type="curve" smooth="yes"/>
      <point x="715" y="183"/>
      <point x="792" y="198.373"/>
      <point x="856" y="232" type="curve"/>
      <point x="856" y="209" type="line"/>
    </contour>
    <contour>
      <point x="687" y="365" type="curve" smooth="yes"/>
      <point x="565.857" y="365"/>
      <point x="496" y="444.113"/>
      <point x="496" y="639" type="curve" smooth="yes"/>
      <point x="496" y="720" type="line" smooth="yes"/>
      <point x="496" y="915"/>
      <point x="566" y="1003"/>
      <point x="705" y="1003" type="curve" smooth="yes"/>
      <point x="731" y="1003"/>
      <point x="752" y="999.625"/>
      <point x="772" y="994" type="curve"/>
      <point x="784" y="851" type="line"/>
      <point x="772.806" y="853.25"/>
      <point x="764.333" y="854"/>
      <point x="753" y="854" type="curve" smooth="yes"/>
      <point x="690.446" y="854"/>
      <point x="665" y="817.43"/>
      <point x="665" y="712.577" type="curve" smooth="yes"/>
      <point x="665" y="659" type="line" smooth="yes"/>
      <point x="665" y="556.338"/>
      <point x="691.292" y="517"/>
      <point x="755" y="517" type="curve" smooth="yes"/>
      <point x="807.459" y="517"/>
      <point x="842.102" y="545.897"/>
      <point x="852" y="606" type="curve"/>
      <point x="864" y="466" type="line"/>
      <point x="836" y="466" type="line"/>
      <point x="814" y="405"/>
      <point x="774" y="365"/>
    </contour>
    <contour>
      <point x="124.5" y="-161.26" type="curve" smooth="yes"/>
      <point x="58.08" y="-161.26"/>
      <point x="29.46" y="-118.6"/>
      <point x="29.46" y="-41.9199" type="curve" smooth="yes"/>
      <point x="29.46" y="-39.9129"/>
      <point x="29.46" y="-33.0209"/>
      <point x="29.46" y="-30.58" type="curve" smooth="yes"/>
      <point x="29.46" y="46.1"/>
      <point x="58.08" y="88.76"/>
      <point x="124.5" y="88.76" type="curve" smooth="yes"/>
      <point x="190.92" y="88.76"/>
      <point x="219.54" y="46.1"/>
      <point x="219.54" y="-30.58" type="curve"/>
      <point x="219.54" y="-32.5749"/>
      <point x="219.54" y="-39.4716"/>
      <point x="219.54" y="-41.9199" type="curve" smooth="yes"/>
      <point x="219.54" y="-118.6"/>
      <point x="190.92" y="-161.26"/>
    </contour>
  </outline>
  <guideline angle="0" x="0" y="-40"/>
  <guideline angle="90" x="53" y="0"/>
  <guideline angle="90" x="309" y="0"/>
  <guideline angle="90" x="878" y="0"/>
  <guideline angle="90" x="309" y="0"/>
  <guideline angle="90" x="154" y="0"/>
  <guideline angle="90" x="894" y="0"/>
  <guideline angle="0" x="0" y="9"/>
  <guideline angle="90" x="899" y="0"/>
  <guideline angle="90" x="882" y="0"/>
  <guideline angle="0" x="0" y="1262"/>
  <guideline angle="90" x="932" y="0"/>
  <guideline angle="0" x="0" y="30"/>
</glyph>
<glyph name="JaNukta.dv" format="2">
  <advance width="943"/>
  <unicode hex="095B"/>
  <anchor x="743" y="23" name="bottom"/>
  <anchor x="734.5" y="23" name="bottom2"/>
  <anchor x="827" y="23" name="bottom3"/>
  <anchor x="742" y="42.5" name="bottom5"/>
  <anchor x="740.5" y="1258.5" name="top"/>
  <outline>
    <contour>
      <point x="826.5" y="1203.5" type="line"/>
      <point x="826.5" y="0" type="line"/>
      <point x="657" y="0" type="line"/>
      <point x="657" y="1203.5" type="line"/>
    </contour>
    <contour>
      <point x="594.5" y="1154.5" type="line"/>
      <point x="584.5" y="1289.5" type="line"/>
      <point x="965.5" y="1289.5" type="line"/>
      <point x="975.5" y="1154.5" type="line"/>
    </contour>
    <contour>
      <point x="975" y="1155" type="line"/>
      <point x="-22" y="1155" type="line"/>
      <point x="-32" y="1290" type="line"/>
      <point x="966" y="1290" type="line"/>
    </contour>
    <contour>
      <point x="738" y="916" type="line"/>
      <point x="738" y="772" type="line"/>
      <point x="459" y="772" type="line"/>
      <point x="313" y="777" type="line"/>
      <point x="95" y="774" type="line"/>
      <point x="95" y="916" type="line"/>
    </contour>
    <contour>
      <point x="364" y="825" type="line"/>
      <point x="364" y="766" type="line"/>
      <point x="458" y="721"/>
      <point x="480" y="654"/>
      <point x="480" y="510" type="curve" smooth="yes"/>
      <point x="480" y="432" type="line" smooth="yes"/>
      <point x="480" y="209"/>
      <point x="397.222" y="116"/>
      <point x="225" y="116" type="curve" smooth="yes"/>
      <point x="151" y="116"/>
      <point x="93" y="136"/>
      <point x="47" y="169" type="curve"/>
      <point x="43" y="322" type="line"/>
      <point x="89.6408" y="287"/>
      <point x="137.289" y="266"/>
      <point x="187" y="266" type="curve" smooth="yes"/>
      <point x="268.024" y="266"/>
      <point x="310" y="314.05"/>
      <point x="310" y="448" type="curve" smooth="yes"/>
      <point x="310" y="562" type="line" smooth="yes"/>
      <point x="310" y="715.029"/>
      <point x="275" y="760.154"/>
      <point x="173" y="768" type="curve" smooth="yes"/>
      <point x="95" y="774" type="line"/>
      <point x="95" y="825" type="line"/>
    </contour>
    <contour>
      <point x="236.5" y="-248.26" type="curve" smooth="yes"/>
      <point x="170.08" y="-248.26"/>
      <point x="141.46" y="-205.6"/>
      <point x="141.46" y="-128.92" type="curve" smooth="yes"/>
      <point x="141.46" y="-126.913"/>
      <point x="141.46" y="-120.021"/>
      <point x="141.46" y="-117.58" type="curve" smooth="yes"/>
      <point x="141.46" y="-40.9"/>
      <point x="170.08" y="1.75999"/>
      <point x="236.5" y="1.75999" type="curve" smooth="yes"/>
      <point x="302.92" y="1.75999"/>
      <point x="331.54" y="-40.9"/>
      <point x="331.54" y="-117.58" type="curve"/>
      <point x="331.54" y="-119.575"/>
      <point x="331.54" y="-126.472"/>
      <point x="331.54" y="-128.92" type="curve" smooth="yes"/>
      <point x="331.54" y="-205.6"/>
      <point x="302.92" y="-248.26"/>
    </contour>
  </outline>
  <guideline angle="0" x="0" y="63"/>
  <guideline angle="90" x="141" y="0"/>
  <guideline angle="90" x="703" y="0"/>
  <guideline angle="0" x="0" y="9"/>
  <guideline angle="90" x="708" y="0"/>
  <guideline angle="90" x="691" y="0"/>
  <guideline angle="0" x="0" y="1262"/>
  <guideline angle="90" x="741" y="0"/>
  <guideline angle="0" x="0" y="30"/>
</glyph>
<glyph name="Doubledanda.dv" format="2">
  <advance width="969"/>
  <unicode hex="0965"/>
  <outline>
    <contour>
      <point x="762" y="1325.5" type="line"/>
      <point x="762" y="0" type="line"/>
      <point x="597" y="0" type="line"/>
      <point x="597" y="1347.5" type="line"/>
    </contour>
    <contour>
      <point x="372" y="1325.5" type="line"/>
      <point x="372" y="0" type="line"/>
      <point x="207" y="0" type="line"/>
      <point x="207" y="1347.5" type="line"/>
    </contour>
  </outline>
</glyph>
<glyph name="Paach.dv" format="2">
  <advance width="787"/>
  <unicode hex="096B"/>
  <outline>
    <contour>
      <point x="139.84" y="1275.12" type="curve"/>
      <point x="310.04" y="1275.12" type="line"/>
      <point x="273.24" y="1183.12"/>
      <point x="253.92" y="1081"/>
      <point x="253.92" y="918.16" type="curve" smooth="yes"/>
      <point x="253.92" y="798.56" type="line" smooth="yes"/>
      <point x="253.92" y="644"/>
      <point x="299" y="596.16"/>
      <point x="383.64" y="596.16" type="curve" smooth="yes"/>
      <point x="455" y="596.16"/>
      <point x="499" y="637.12"/>
      <point x="517" y="723.12" type="curve"/>
      <point x="523" y="568.56" type="line"/>
      <point x="501.6" y="568.56" type="line"/>
      <point x="478" y="492.12"/>
      <point x="425" y="446.2"/>
      <point x="329" y="446.2" type="curve" smooth="yes"/>
      <point x="178.327" y="446.2"/>
      <point x="84.64" y="531.76"/>
      <point x="84.64" y="770.04" type="curve" smooth="yes"/>
      <point x="84.64" y="907.12" type="line" smooth="yes"/>
      <point x="84.64" y="1088.36"/>
      <point x="103.96" y="1186.8"/>
    </contour>
    <contour>
      <point x="513.3" y="371.92" type="curve" smooth="yes"/>
      <point x="513.3" y="1077.28" type="line"/>
      <point x="682.78" y="1077.28" type="line"/>
      <point x="682.78" y="357.08" type="line" smooth="yes"/>
      <point x="682.78" y="96.12"/>
      <point x="582.269" y="-9"/>
      <point x="379" y="-9" type="curve" smooth="yes"/>
      <point x="289" y="-9"/>
      <point x="215" y="12.9251"/>
      <point x="156" y="52.12" type="curve"/>
      <point x="146.92" y="214" type="line"/>
      <point x="211.631" y="167"/>
      <point x="278.281" y="140.06"/>
      <point x="352" y="140.06" type="curve" smooth="yes"/>
      <point x="461.734" y="140.06"/>
      <point x="513.3" y="197.18"/>
    </contour>
  </outline>
  <guideline angle="0" x="0" y="-21"/>
</glyph>
<glyph name="Saha.dv" format="2">
  <advance width="721"/>
  <unicode hex="096C"/>
  <outline>
    <contour>
      <point x="353.004" y="-5.5" type="curve" smooth="yes"/>
      <point x="178.007" y="-5.5"/>
      <point x="81.0965" y="99.3314"/>
      <point x="81.5" y="323.64" type="curve" smooth="yes"/>
      <point x="81.6" y="379.233" type="line" smooth="yes"/>
      <point x="81.9393" y="567.851"/>
      <point x="138" y="661.684"/>
      <point x="301.56" y="684" type="curve"/>
      <point x="301.56" y="692" type="line"/>
      <point x="147.252" y="719.442"/>
      <point x="102.5" y="795.235"/>
      <point x="102.5" y="962" type="curve" smooth="yes"/>
      <point x="102.641" y="1000.12" type="line" smooth="yes"/>
      <point x="103.369" y="1197.66"/>
      <point x="212.363" y="1297.14"/>
      <point x="408.344" y="1297.14" type="curve" smooth="yes"/>
      <point x="488.088" y="1297.14"/>
      <point x="557.738" y="1280.49"/>
      <point x="610.46" y="1250" type="curve"/>
      <point x="618.9" y="1100.08" type="line"/>
      <point x="561" y="1131"/>
      <point x="505.453" y="1147.24"/>
      <point x="439.157" y="1147.24" type="curve" smooth="yes"/>
      <point x="332.694" y="1147.24"/>
      <point x="271.94" y="1097"/>
      <point x="271.94" y="977.12" type="curve" smooth="yes"/>
      <point x="271.94" y="947.6" type="line" smooth="yes"/>
      <point x="271.94" y="817.8"/>
      <point x="318.375" y="772.825"/>
      <point x="448.784" y="766.5" type="curve" smooth="yes"/>
      <point x="547.34" y="761.72" type="line"/>
      <point x="547.34" y="611.82" type="line"/>
      <point x="442.994" y="607.14" type="line" smooth="yes"/>
      <point x="303.139" y="600.867"/>
      <point x="251.027" y="540"/>
      <point x="250.804" y="387.1" type="curve"/>
      <point x="250.74" y="344" type="line"/>
      <point x="250.534" y="203"/>
      <point x="294.717" y="145"/>
      <point x="391" y="145" type="curve" smooth="yes"/>
      <point x="445" y="145"/>
      <point x="484" y="164"/>
      <point x="506.5" y="198" type="curve"/>
      <point x="530.5" y="81.926" type="line"/>
      <point x="502" y="28"/>
      <point x="439" y="-5.5"/>
    </contour>
    <contour>
      <point x="651" y="365.18" type="line"/>
      <point x="651" y="122.22" type="line"/>
      <point x="695" y="-224.5" type="line"/>
      <point x="541.76" y="-224.5" type="line"/>
      <point x="506.7" y="109.38" type="line"/>
      <point x="497.34" y="119.58" type="line"/>
      <point x="497.34" y="365.18" type="line"/>
    </contour>
  </outline>
  <guideline angle="0" x="0" y="1249"/>
</glyph>
<glyph name="Saat.dv" format="2">
  <advance width="1047"/>
  <unicode hex="096D"/>
  <outline>
    <contour>
      <point x="166" y="1275" type="curve"/>
      <point x="338.5" y="1275" type="line"/>
      <point x="283.857" y="1095"/>
      <point x="272" y="920"/>
      <point x="272" y="677" type="curve" smooth="yes"/>
      <point x="272" y="523" type="line" smooth="yes"/>
      <point x="272" y="237"/>
      <point x="369.488" y="138.5"/>
      <point x="542.966" y="138.5" type="curve" smooth="yes"/>
      <point x="709.358" y="138.5"/>
      <point x="796" y="236"/>
      <point x="796" y="489" type="curve" smooth="yes"/>
      <point x="796" y="533.5" type="line"/>
      <point x="792.5" y="546.5" type="line"/>
      <point x="792.5" y="792.5" type="line" smooth="yes"/>
      <point x="792.5" y="911.321"/>
      <point x="763" y="954"/>
      <point x="697" y="954" type="curve" smooth="yes"/>
      <point x="628.292" y="954"/>
      <point x="600" y="906.489"/>
      <point x="600" y="794.5" type="curve" smooth="yes"/>
      <point x="600" y="667" type="line" smooth="yes"/>
      <point x="600" y="544.647"/>
      <point x="632" y="504.5"/>
      <point x="696.5" y="504.5" type="curve" smooth="yes"/>
      <point x="751" y="504.5"/>
      <point x="783.81" y="537.909"/>
      <point x="795.5" y="601" type="curve"/>
      <point x="809" y="468.5" type="line"/>
      <point x="786" y="468.5" type="line"/>
      <point x="761.79" y="397.5"/>
      <point x="722.449" y="359.5"/>
      <point x="636.706" y="359.5" type="curve" smooth="yes"/>
      <point x="515.656" y="359.5"/>
      <point x="440" y="435"/>
      <point x="440" y="647" type="curve" smooth="yes"/>
      <point x="440" y="794" type="line" smooth="yes"/>
      <point x="440" y="998.169"/>
      <point x="523.903" y="1100.5"/>
      <point x="699.528" y="1100.5" type="curve" smooth="yes"/>
      <point x="872.958" y="1100.5"/>
      <point x="955" y="997.11"/>
      <point x="955" y="779.5" type="curve" smooth="yes"/>
      <point x="955" y="493.5" type="line" smooth="yes"/>
      <point x="955" y="150.5"/>
      <point x="822.585" y="-11.5"/>
      <point x="538.046" y="-11.5" type="curve" smooth="yes"/>
      <point x="244.32" y="-11.5"/>
      <point x="101.5" y="148"/>
      <point x="101.5" y="516.5" type="curve" smooth="yes"/>
      <point x="101.5" y="677" type="line" smooth="yes"/>
      <point x="101.5" y="932"/>
      <point x="111.304" y="1098"/>
    </contour>
  </outline>
  <guideline angle="0" x="0" y="598"/>
</glyph>
<glyph name="vowelChandraA.dv" format="2">
  <advance width="1024"/>
  <unicode hex="0972"/>
  <anchor x="823" y="1258.5" name="top"/>
  <outline>
    <contour>
      <point x="1073.5" y="1732.5" type="line"/>
      <point x="1075" y="1709"/>
      <point x="1075" y="1698"/>
      <point x="1075" y="1684.5" type="curve" smooth="yes"/>
      <point x="1075" y="1485.5"/>
      <point x="988" y="1406.5"/>
      <point x="824" y="1406.5" type="curve" smooth="yes"/>
      <point x="660" y="1406.5"/>
      <point x="573" y="1485.5"/>
      <point x="573" y="1684.5" type="curve" smooth="yes"/>
      <point x="573" y="1696.5"/>
      <point x="573" y="1709"/>
      <point x="574.5" y="1732.5" type="curve"/>
      <point x="718" y="1732.5" type="line"/>
      <point x="718" y="1728.34"/>
      <point x="718" y="1698.92"/>
      <point x="718" y="1696.5" type="curve" smooth="yes"/>
      <point x="718" y="1577.79"/>
      <point x="749.295" y="1533.5"/>
      <point x="824" y="1533.5" type="curve" smooth="yes"/>
      <point x="898.705" y="1533.5"/>
      <point x="930" y="1577.79"/>
      <point x="930" y="1696.5" type="curve" smooth="yes"/>
      <point x="930" y="1699.15"/>
      <point x="930" y="1729.26"/>
      <point x="930" y="1732.5" type="curve"/>
    </contour>
    <contour>
      <point x="1057" y="1155" type="line"/>
      <point x="617" y="1155" type="line"/>
      <point x="607" y="1290" type="line"/>
      <point x="1048" y="1290" type="line"/>
    </contour>
    <contour>
      <point x="739" y="0" type="line"/>
      <point x="739" y="1206" type="line"/>
      <point x="908" y="1206" type="line"/>
      <point x="908" y="0" type="line"/>
    </contour>
    <contour>
      <point x="31" y="245" type="line"/>
      <point x="91" y="203"/>
      <point x="156" y="176"/>
      <point x="225" y="176" type="curve" smooth="yes"/>
      <point x="328" y="176"/>
      <point x="374" y="230"/>
      <point x="374" y="362" type="curve" smooth="yes"/>
      <point x="374" y="416" type="line" smooth="yes"/>
      <point x="374" y="540"/>
      <point x="327.011" y="597.269"/>
      <point x="204" y="602" type="curve" smooth="yes"/>
      <point x="126" y="605" type="line"/>
      <point x="126" y="747" type="line"/>
      <point x="199" y="752" type="line" smooth="yes"/>
      <point x="317.026" y="760.084"/>
      <point x="363" y="814.407"/>
      <point x="363" y="941" type="curve" smooth="yes"/>
      <point x="363" y="996" type="line" smooth="yes"/>
      <point x="363" y="1108"/>
      <point x="324" y="1157"/>
      <point x="234" y="1157" type="curve" smooth="yes"/>
      <point x="174.289" y="1157"/>
      <point x="119.639" y="1137"/>
      <point x="66" y="1105" type="curve"/>
      <point x="73" y="1257" type="line"/>
      <point x="121.249" y="1284.59"/>
      <point x="186.608" y="1304"/>
      <point x="263" y="1304" type="curve" smooth="yes"/>
      <point x="443" y="1304"/>
      <point x="527" y="1208.3"/>
      <point x="527" y="1015.13" type="curve" smooth="yes"/>
      <point x="527" y="963" type="line" smooth="yes"/>
      <point x="527" y="805.118"/>
      <point x="468.5" y="726.899"/>
      <point x="315" y="708" type="curve"/>
      <point x="315" y="644" type="line"/>
      <point x="486.233" y="598.805"/>
      <point x="539" y="512.87"/>
      <point x="539" y="371" type="curve" smooth="yes"/>
      <point x="539" y="325" type="line" smooth="yes"/>
      <point x="539" y="121.349"/>
      <point x="450.623" y="26"/>
      <point x="252" y="26" type="curve" smooth="yes"/>
      <point x="164" y="26"/>
      <point x="90.4739" y="49.7931"/>
      <point x="39" y="86" type="curve"/>
    </contour>
    <contour>
      <point x="303" y="722" type="line"/>
      <point x="399" y="737" type="line"/>
      <point x="403" y="721" type="line"/>
      <point x="469.706" y="730.824"/>
      <point x="533.802" y="736"/>
      <point x="618" y="736" type="curve" smooth="yes"/>
      <point x="792" y="736" type="line"/>
      <point x="792" y="592" type="line"/>
      <point x="619" y="592" type="line" smooth="yes"/>
      <point x="528.839" y="592"/>
      <point x="466" y="603"/>
      <point x="399" y="624" type="curve"/>
      <point x="393" y="600" type="line"/>
      <point x="303" y="620" type="line"/>
    </contour>
  </outline>
  <guideline angle="90" x="823" y="0"/>
  <guideline angle="90" x="446" y="0"/>
</glyph>
<glyph name="uni0978" format="2">
  <advance width="791"/>
  <unicode hex="0978"/>
  <anchor x="515" y="28" name="bottom"/>
  <anchor x="487.5" y="23" name="bottom2"/>
  <anchor x="690.5" y="23" name="bottom3"/>
  <anchor x="410.5" y="42.5" name="bottom5"/>
  <anchor x="553" y="1258.5" name="top"/>
  <outline>
    <contour>
      <point x="823.5" y="1154.5" type="line"/>
      <point x="-25" y="1154.5" type="line"/>
      <point x="-35" y="1289.5" type="line"/>
      <point x="813.5" y="1289.5" type="line"/>
    </contour>
    <contour>
      <point x="310.5" y="1206" type="line"/>
      <point x="310.5" y="644.5" type="line"/>
      <point x="141" y="644.5" type="line"/>
      <point x="141" y="1206" type="line"/>
    </contour>
    <contour>
      <point x="168.5" y="238" type="line"/>
      <point x="120.5" y="384.5"/>
      <point x="89.5" y="510.5"/>
      <point x="77.5" y="682" type="curve"/>
      <point x="142.5" y="724" type="line"/>
      <point x="308.5" y="724" type="line"/>
      <point x="308.5" y="238" type="line"/>
    </contour>
    <contour>
      <point x="255" y="757" type="line"/>
      <point x="306.317" y="784.678"/>
      <point x="361.736" y="799.5"/>
      <point x="432" y="799.5" type="curve" smooth="yes"/>
      <point x="621.848" y="799.5"/>
      <point x="716" y="692.14"/>
      <point x="716" y="490.592" type="curve" smooth="yes"/>
      <point x="716" y="327.243"/>
      <point x="671.94" y="167.533"/>
      <point x="584.137" y="0" type="curve"/>
      <point x="396" y="0" type="line"/>
      <point x="396" y="1.5559" type="line"/>
      <point x="495.576" y="177.45"/>
      <point x="544" y="331.491"/>
      <point x="544" y="473.535" type="curve" smooth="yes"/>
      <point x="544" y="596.506"/>
      <point x="501.251" y="654"/>
      <point x="408" y="654" type="curve" smooth="yes"/>
      <point x="362.666" y="654"/>
      <point x="323.859" y="642.818"/>
      <point x="292" y="623" type="curve"/>
    </contour>
  </outline>
  <guideline angle="90" x="691" y="0"/>
</glyph>
<glyph name="fraction" format="2">
  <advance width="226"/>
  <unicode hex="2044"/>
  <outline>
    <contour>
      <point x="-65" y="0" type="line"/>
      <point x="416" y="1278" type="line"/>
      <point x="296" y="1278" type="line"/>
      <point x="-185" y="0" type="line"/>
    </contour>
  </outline>
</glyph>
<glyph name="zeroinferior" format="2">
  <advance width="459"/>
  <unicode hex="2080"/>
  <outline>
    <contour>
      <point x="228" y="-221" type="curve" smooth="yes"/>
      <point x="352" y="-221"/>
      <point x="414" y="-152"/>
      <point x="414" y="-13" type="curve" smooth="yes"/>
      <point x="414" y="279" type="line" smooth="yes"/>
      <point x="414" y="418"/>
      <point x="352" y="487"/>
      <point x="228" y="487" type="curve" smooth="yes"/>
      <point x="106" y="487"/>
      <point x="45" y="418"/>
      <point x="45" y="279" type="curve" smooth="yes"/>
      <point x="45" y="-13" type="line" smooth="yes"/>
      <point x="45" y="-153"/>
      <point x="106" y="-221"/>
    </contour>
    <contour>
      <point x="229" y="-117" type="curve" smooth="yes"/>
      <point x="186" y="-117"/>
      <point x="167" y="-89"/>
      <point x="167" y="-30" type="curve" smooth="yes"/>
      <point x="167" y="297" type="line" smooth="yes"/>
      <point x="167" y="342"/>
      <point x="177" y="383"/>
      <point x="229" y="383" type="curve" smooth="yes"/>
      <point x="272" y="383"/>
      <point x="292" y="353"/>
      <point x="292" y="297" type="curve" smooth="yes"/>
      <point x="292" y="-30" type="line" smooth="yes"/>
      <point x="292" y="-87"/>
      <point x="272" y="-117"/>
    </contour>
  </outline>
</glyph>
<glyph name="divisionslash" format="2">
  <advance width="539"/>
  <unicode hex="2215"/>
  <outline>
    <contour>
      <point x="185" y="-240" type="line"/>
      <point x="514" y="1352" type="line"/>
      <point x="355" y="1352" type="line"/>
      <point x="25" y="-240" type="line"/>
    </contour>
  </outline>
</glyph>
<glyph name="uniA8FB" format="2">
  <advance width="527"/>
  <unicode hex="A8FB"/>
  <outline>
    <contour>
      <point x="559.5" y="1154.5" type="line"/>
      <point x="-23.5" y="1154.5" type="line"/>
      <point x="-33" y="1289.5" type="line"/>
      <point x="549.5" y="1289.5" type="line"/>
    </contour>
  </outline>
</glyph>
<glyph name="BaDhaVa.dv" format="2">
  <advance width="1862"/>
  <anchor x="1660" y="23" name="bottom"/>
  <anchor x="1652.5" y="23" name="bottom2"/>
  <anchor x="1745" y="23" name="bottom3"/>
  <anchor x="1660" y="42.5" name="bottom5"/>
  <anchor x="1660" y="1258.5" name="top"/>
  <outline>
    <contour>
      <point x="-23.5" y="1154.5" type="line"/>
      <point x="-33.5" y="1289.5" type="line"/>
      <point x="467" y="1289.5" type="line"/>
      <point x="477" y="1154.5" type="line"/>
    </contour>
    <contour>
      <point x="217" y="835" type="line"/>
      <point x="313" y="891" type="line"/>
      <point x="580" y="345" type="line"/>
      <point x="493" y="277" type="line"/>
    </contour>
    <contour>
      <point x="81" y="474" type="curve" smooth="yes"/>
      <point x="81" y="654" type="line" smooth="yes"/>
      <point x="81" y="884"/>
      <point x="180.362" y="993"/>
      <point x="356.714" y="993" type="curve" smooth="yes"/>
      <point x="390.734" y="993"/>
      <point x="422.854" y="989"/>
      <point x="447" y="982" type="curve"/>
      <point x="461" y="844" type="line"/>
      <point x="439.914" y="848.308"/>
      <point x="416.797" y="850"/>
      <point x="391.893" y="850" type="curve" smooth="yes"/>
      <point x="289.197" y="850"/>
      <point x="247" y="801"/>
      <point x="247" y="649" type="curve" smooth="yes"/>
      <point x="247" y="491.267" type="line" smooth="yes"/>
      <point x="247" y="343.784"/>
      <point x="299.672" y="285"/>
      <point x="397.976" y="285" type="curve" smooth="yes"/>
      <point x="489.54" y="285"/>
      <point x="545.419" y="328.391"/>
      <point x="564" y="421" type="curve"/>
      <point x="599" y="278" type="line"/>
      <point x="572" y="278" type="line"/>
      <point x="542.59" y="186.073"/>
      <point x="479.187" y="137"/>
      <point x="354.014" y="137" type="curve" smooth="yes"/>
      <point x="171.488" y="137"/>
      <point x="81" y="244"/>
    </contour>
    <contour>
      <point x="1746" y="1203.5" type="line"/>
      <point x="1746" y="0" type="line"/>
      <point x="1576.5" y="0" type="line"/>
      <point x="1576.5" y="1203.5" type="line"/>
    </contour>
    <contour>
      <point x="1514" y="1154.5" type="line"/>
      <point x="1504" y="1289.5" type="line"/>
      <point x="1885" y="1289.5" type="line"/>
      <point x="1895" y="1154.5" type="line"/>
    </contour>
    <contour>
      <point x="1080.5" y="1154.5" type="line"/>
      <point x="1071" y="1289.5" type="line"/>
      <point x="1784" y="1289.5" type="line"/>
      <point x="1794.5" y="1154.5" type="line"/>
    </contour>
    <contour>
      <point x="1131" y="478" type="curve" smooth="yes"/>
      <point x="1131" y="646.992" type="line" smooth="yes"/>
      <point x="1131" y="886"/>
      <point x="1215" y="989"/>
      <point x="1394" y="989" type="curve" smooth="yes"/>
      <point x="1429" y="989"/>
      <point x="1463" y="984"/>
      <point x="1491" y="974" type="curve"/>
      <point x="1503" y="830" type="line"/>
      <point x="1481" y="837"/>
      <point x="1461" y="840"/>
      <point x="1437" y="840" type="curve" smooth="yes"/>
      <point x="1343" y="840"/>
      <point x="1301" y="788"/>
      <point x="1301" y="641" type="curve" smooth="yes"/>
      <point x="1301" y="499" type="line" smooth="yes"/>
      <point x="1301" y="352"/>
      <point x="1345.33" y="303"/>
      <point x="1434" y="303" type="curve" smooth="yes"/>
      <point x="1511.05" y="303"/>
      <point x="1558.74" y="344.442"/>
      <point x="1577" y="436" type="curve"/>
      <point x="1591" y="284" type="line"/>
      <point x="1565" y="284" type="line"/>
      <point x="1542" y="204"/>
      <point x="1483" y="150"/>
      <point x="1374" y="150" type="curve" smooth="yes"/>
      <point x="1217.53" y="150"/>
      <point x="1131" y="247.094"/>
    </contour>
    <contour>
      <point x="550" y="430" type="line" smooth="yes"/>
      <point x="550" y="563"/>
      <point x="603.957" y="641.727"/>
      <point x="757" y="654" type="curve"/>
      <point x="757" y="662" type="line"/>
      <point x="601.748" y="682"/>
      <point x="531" y="754"/>
      <point x="531" y="941" type="curve" smooth="yes"/>
      <point x="531" y="1030" type="line" smooth="yes"/>
      <point x="531" y="1221"/>
      <point x="614" y="1309"/>
      <point x="776.551" y="1309" type="curve" smooth="yes"/>
      <point x="936.561" y="1309"/>
      <point x="1006" y="1225"/>
      <point x="1006" y="1053" type="curve" smooth="yes"/>
      <point x="1006" y="988.323"/>
      <point x="1000" y="928.698"/>
      <point x="989" y="862" type="curve"/>
      <point x="850" y="862" type="line"/>
      <point x="850" y="1032.56" type="line" smooth="yes"/>
      <point x="850" y="1129.88"/>
      <point x="829.131" y="1167"/>
      <point x="775.469" y="1167" type="curve" smooth="yes"/>
      <point x="716.837" y="1167"/>
      <point x="691" y="1128.91"/>
      <point x="691" y="1030.69" type="curve" smooth="yes"/>
      <point x="691" y="937.478" type="line" smooth="yes"/>
      <point x="691" y="787.137"/>
      <point x="745.996" y="738.954"/>
      <point x="879" y="732.011" type="curve" smooth="yes"/>
      <point x="975" y="727" type="line"/>
      <point x="975" y="583" type="line"/>
      <point x="881" y="580" type="line" smooth="yes"/>
      <point x="770" y="576"/>
      <point x="722" y="538"/>
      <point x="722" y="454" type="curve" smooth="yes"/>
      <point x="722" y="438" type="line" smooth="yes"/>
      <point x="722" y="348"/>
      <point x="779.855" y="302"/>
      <point x="920.942" y="302" type="curve" smooth="yes"/>
      <point x="1050.86" y="302"/>
      <point x="1121.7" y="353.847"/>
      <point x="1141" y="452" type="curve"/>
      <point x="1167" y="306" type="line"/>
      <point x="1147" y="306" type="line"/>
      <point x="1110.59" y="205.942"/>
      <point x="1038.05" y="149"/>
      <point x="880.523" y="149" type="curve" smooth="yes"/>
      <point x="663.096" y="149"/>
      <point x="550" y="238"/>
      <point x="550" y="414" type="curve" smooth="yes"/>
    </contour>
  </outline>
  <guideline angle="90" x="277" y="0"/>
  <guideline angle="90" x="1622.5" y="0"/>
  <guideline angle="0" x="0" y="9"/>
  <guideline angle="90" x="1627.5" y="0"/>
  <guideline angle="90" x="1610.5" y="0"/>
  <guideline angle="0" x="0" y="1262"/>
  <guideline angle="90" x="1660.5" y="0"/>
  <guideline angle="0" x="0" y="30"/>
</glyph>
<glyph name="BaLa.dv" format="2">
  <advance width="1494"/>
  <anchor x="1294" y="23" name="bottom"/>
  <anchor x="1285.5" y="23" name="bottom2"/>
  <anchor x="1378" y="23" name="bottom3"/>
  <anchor x="1293" y="42.5" name="bottom5"/>
  <anchor x="1291.5" y="1258.5" name="top"/>
  <outline>
    <contour>
      <point x="-24" y="1154.5" type="line"/>
      <point x="-33.5" y="1289.5" type="line"/>
      <point x="605" y="1289.5" type="line"/>
      <point x="614.5" y="1154.5" type="line"/>
    </contour>
    <contour>
      <point x="211" y="845" type="line"/>
      <point x="307" y="901" type="line"/>
      <point x="572" y="345" type="line"/>
      <point x="489" y="277" type="line"/>
    </contour>
    <contour>
      <point x="81" y="474" type="curve" smooth="yes"/>
      <point x="81" y="654" type="line" smooth="yes"/>
      <point x="81" y="884"/>
      <point x="184" y="993"/>
      <point x="359" y="993" type="curve" smooth="yes"/>
      <point x="400" y="993"/>
      <point x="435" y="988"/>
      <point x="469" y="977" type="curve"/>
      <point x="481" y="840" type="line"/>
      <point x="453.629" y="847.308"/>
      <point x="425.224" y="850"/>
      <point x="396" y="850" type="curve" smooth="yes"/>
      <point x="291" y="850"/>
      <point x="247" y="801"/>
      <point x="247" y="649" type="curve" smooth="yes"/>
      <point x="247" y="491.267" type="line" smooth="yes"/>
      <point x="247" y="342.784"/>
      <point x="301.291" y="285"/>
      <point x="402.616" y="285" type="curve" smooth="yes"/>
      <point x="496.993" y="285"/>
      <point x="544.419" y="337.391"/>
      <point x="553" y="420" type="curve"/>
      <point x="574" y="271" type="line"/>
      <point x="553" y="271" type="line"/>
      <point x="526.004" y="192.073"/>
      <point x="464" y="137"/>
      <point x="345" y="137" type="curve" smooth="yes"/>
      <point x="171.958" y="137"/>
      <point x="81" y="242"/>
    </contour>
    <contour>
      <point x="1377.5" y="1203.5" type="line"/>
      <point x="1377.5" y="0" type="line"/>
      <point x="1208" y="0" type="line"/>
      <point x="1208" y="1203.5" type="line"/>
    </contour>
    <contour>
      <point x="1145.5" y="1154.5" type="line"/>
      <point x="1135.5" y="1289.5" type="line"/>
      <point x="1516.5" y="1289.5" type="line"/>
      <point x="1526.5" y="1154.5" type="line"/>
    </contour>
    <contour>
      <point x="416" y="1155" type="line"/>
      <point x="406" y="1290" type="line"/>
      <point x="1508" y="1290" type="line"/>
      <point x="1518" y="1155" type="line"/>
    </contour>
    <contour>
      <point x="769.863" y="939" type="curve" smooth="yes"/>
      <point x="874.324" y="939"/>
      <point x="930" y="894.992"/>
      <point x="953" y="808" type="curve"/>
      <point x="961" y="808" type="line"/>
      <point x="980.955" y="896.016"/>
      <point x="1034.4" y="939"/>
      <point x="1114" y="939" type="curve" smooth="yes"/>
      <point x="1176.84" y="939"/>
      <point x="1215" y="913"/>
      <point x="1233" y="861.662" type="curve"/>
      <point x="1215" y="710" type="line"/>
      <point x="1205" y="762"/>
      <point x="1177.58" y="789"/>
      <point x="1133" y="789" type="curve" smooth="yes"/>
      <point x="1075.18" y="789"/>
      <point x="1043.47" y="750"/>
      <point x="1041.41" y="631" type="curve" smooth="yes"/>
      <point x="1035" y="260" type="line"/>
      <point x="884" y="260" type="line"/>
      <point x="877" y="632" type="line" smooth="yes"/>
      <point x="874.817" y="747.996"/>
      <point x="849.683" y="789"/>
      <point x="791.256" y="789" type="curve" smooth="yes"/>
      <point x="718.686" y="789"/>
      <point x="687" y="732.652"/>
      <point x="687" y="610" type="curve" smooth="yes"/>
      <point x="687" y="423.386"/>
      <point x="728" y="239.782"/>
      <point x="829" y="2" type="curve"/>
      <point x="829" y="0" type="line"/>
      <point x="651" y="0" type="line"/>
      <point x="557" y="235.759"/>
      <point x="515" y="426.373"/>
      <point x="515" y="621" type="curve" smooth="yes"/>
      <point x="515" y="831.688"/>
      <point x="606.219" y="939"/>
    </contour>
  </outline>
  <guideline angle="90" x="255" y="0"/>
  <guideline angle="0" x="0" y="519"/>
  <guideline angle="0" x="0" y="518"/>
  <guideline angle="90" x="510" y="0"/>
  <guideline angle="90" x="1254" y="0"/>
  <guideline angle="0" x="0" y="9"/>
  <guideline angle="90" x="1259" y="0"/>
  <guideline angle="90" x="1242" y="0"/>
  <guideline angle="0" x="0" y="1262"/>
  <guideline angle="90" x="1292" y="0"/>
  <guideline angle="0" x="0" y="30"/>
</glyph>
<glyph name="BaNa.dv" format="2">
  <advance width="850"/>
  <anchor x="650" y="-13.5" name="bottom"/>
  <anchor x="641" y="-13.5" name="bottom2"/>
  <anchor x="733.5" y="-13.5" name="bottom3"/>
  <anchor x="648.5" y="1258.5" name="top"/>
  <outline>
    <contour>
      <point x="-23" y="1154.5" type="line"/>
      <point x="-33" y="1290.5" type="line"/>
      <point x="872.5" y="1289.5" type="line"/>
      <point x="882.5" y="1154.5" type="line"/>
    </contour>
    <contour>
      <point x="733.5" y="1180.5" type="line"/>
      <point x="733.5" y="966" type="line"/>
      <point x="564" y="966" type="line"/>
      <point x="564" y="1180.5" type="line"/>
    </contour>
    <contour>
      <point x="220" y="835" type="line"/>
      <point x="316" y="891" type="line"/>
      <point x="583" y="345" type="line"/>
      <point x="496" y="277" type="line"/>
    </contour>
    <contour>
      <point x="398.5" y="241" type="line"/>
      <point x="419.5" y="186.5" type="line"/>
      <point x="397.257" y="176.5"/>
      <point x="375.544" y="170"/>
      <point x="337.413" y="170" type="curve" smooth="yes"/>
      <point x="172.709" y="170"/>
      <point x="79.5" y="265"/>
      <point x="79.5" y="488.5" type="curve" smooth="yes"/>
      <point x="80" y="654" type="line" smooth="yes"/>
      <point x="80.6949" y="883.999"/>
      <point x="185" y="993"/>
      <point x="370" y="993" type="curve" smooth="yes"/>
      <point x="409" y="993"/>
      <point x="444" y="988"/>
      <point x="478" y="977" type="curve"/>
      <point x="490" y="838" type="line"/>
      <point x="458.629" y="846.308"/>
      <point x="427.224" y="850"/>
      <point x="395" y="850" type="curve" smooth="yes"/>
      <point x="290" y="850"/>
      <point x="246.503" y="801"/>
      <point x="246" y="649" type="curve" smooth="yes"/>
      <point x="245.5" y="498" type="line" smooth="yes"/>
      <point x="245.005" y="348.501"/>
      <point x="296.104" y="293"/>
      <point x="393.84" y="293" type="curve" smooth="yes"/>
      <point x="453.924" y="293"/>
      <point x="491.026" y="315.743"/>
      <point x="525.403" y="342" type="curve" smooth="yes"/>
      <point x="574.5" y="379.5" type="line"/>
      <point x="574.5" y="223.389" type="line"/>
      <point x="236.5" y="-12" type="line"/>
      <point x="271.5" y="55" type="line"/>
      <point x="392.5" y="-139" type="line"/>
      <point x="290" y="-210.5" type="line"/>
      <point x="206" y="-150.5"/>
      <point x="147.5" y="-95.5"/>
      <point x="92" y="-12" type="curve"/>
      <point x="127" y="76.5" type="line"/>
    </contour>
    <contour>
      <point x="733.5" y="992" type="line"/>
      <point x="733.5" y="-36.5" type="line"/>
      <point x="564" y="-36.5" type="line"/>
      <point x="564" y="992" type="line"/>
    </contour>
  </outline>
  <guideline angle="90" x="550" y="0"/>
  <guideline angle="90" x="616" y="0"/>
</glyph>
<glyph name="BaRa.dv" format="2">
  <advance width="852"/>
  <anchor x="653" y="13" name="bottom"/>
  <anchor x="644" y="13" name="bottom2"/>
  <anchor x="736.5" y="13" name="bottom3"/>
  <anchor x="652" y="1258.5" name="top"/>
  <outline>
    <contour>
      <point x="736.5" y="1018.5" type="line"/>
      <point x="736.5" y="-10" type="line"/>
      <point x="567" y="-10" type="line"/>
      <point x="567" y="1018.5" type="line"/>
    </contour>
    <contour>
      <point x="-23.5" y="1154.5" type="line"/>
      <point x="-33.5" y="1289.5" type="line"/>
      <point x="875.5" y="1289.5" type="line"/>
      <point x="885" y="1154.5" type="line"/>
    </contour>
    <contour>
      <point x="736.595" y="1220" type="line"/>
      <point x="736.595" y="866.5" type="line"/>
      <point x="566.595" y="866.5" type="line"/>
      <point x="566.595" y="1220" type="line"/>
    </contour>
    <contour>
      <point x="221" y="835" type="line"/>
      <point x="317" y="891" type="line"/>
      <point x="584" y="345" type="line"/>
      <point x="497" y="277" type="line"/>
    </contour>
    <contour>
      <point x="385" y="287" type="curve" smooth="yes"/>
      <point x="443.714" y="287"/>
      <point x="476.457" y="306.748"/>
      <point x="522" y="346" type="curve" smooth="yes"/>
      <point x="576.533" y="393" type="line"/>
      <point x="576.533" y="244" type="line"/>
      <point x="298" y="-47" type="line"/>
      <point x="76" y="-47" type="line"/>
      <point x="76" y="-26" type="line"/>
      <point x="383" y="224" type="line"/>
      <point x="405" y="185" type="line"/>
      <point x="385.77" y="173"/>
      <point x="366.093" y="166"/>
      <point x="333" y="166" type="curve" smooth="yes"/>
      <point x="177.804" y="166"/>
      <point x="81" y="257.705"/>
      <point x="81" y="477" type="curve" smooth="yes"/>
      <point x="81" y="654" type="line" smooth="yes"/>
      <point x="81" y="884"/>
      <point x="186" y="993"/>
      <point x="371" y="993" type="curve" smooth="yes"/>
      <point x="410" y="993"/>
      <point x="447" y="987"/>
      <point x="479" y="977" type="curve"/>
      <point x="491" y="838" type="line"/>
      <point x="459.629" y="846.308"/>
      <point x="428.224" y="850"/>
      <point x="396" y="850" type="curve" smooth="yes"/>
      <point x="291" y="850"/>
      <point x="247" y="801"/>
      <point x="247" y="649" type="curve" smooth="yes"/>
      <point x="247" y="487" type="line" smooth="yes"/>
      <point x="247" y="341.298"/>
      <point x="299.38" y="287"/>
    </contour>
  </outline>
  <guideline angle="90" x="652" y="0"/>
  <guideline angle="90" x="619" y="0"/>
</glyph>
<glyph name="BaVa.dv" format="2">
  <advance width="1256"/>
  <anchor x="1056.5" y="23" name="bottom"/>
  <anchor x="1048" y="23" name="bottom2"/>
  <anchor x="1140.5" y="23" name="bottom3"/>
  <anchor x="1055.5" y="42.5" name="bottom5"/>
  <anchor x="1054" y="1258.5" name="top"/>
  <outline>
    <contour>
      <point x="-24" y="1154.5" type="line"/>
      <point x="-33.5" y="1289.5" type="line"/>
      <point x="605" y="1289.5" type="line"/>
      <point x="614.5" y="1154.5" type="line"/>
    </contour>
    <contour>
      <point x="211" y="845" type="line"/>
      <point x="307" y="901" type="line"/>
      <point x="562" y="345" type="line"/>
      <point x="479" y="277" type="line"/>
    </contour>
    <contour>
      <point x="81" y="474" type="curve" smooth="yes"/>
      <point x="81" y="654" type="line" smooth="yes"/>
      <point x="81" y="884"/>
      <point x="184" y="993"/>
      <point x="359" y="993" type="curve" smooth="yes"/>
      <point x="401" y="993"/>
      <point x="438" y="988"/>
      <point x="469" y="978" type="curve"/>
      <point x="481" y="840" type="line"/>
      <point x="453.629" y="847.308"/>
      <point x="425.224" y="850"/>
      <point x="396" y="850" type="curve" smooth="yes"/>
      <point x="291" y="850"/>
      <point x="247" y="801"/>
      <point x="247" y="649" type="curve" smooth="yes"/>
      <point x="247" y="491.267" type="line" smooth="yes"/>
      <point x="247" y="343.784"/>
      <point x="293.378" y="285"/>
      <point x="393" y="285" type="curve" smooth="yes"/>
      <point x="485.791" y="285"/>
      <point x="532.419" y="328.391"/>
      <point x="541" y="411" type="curve"/>
      <point x="573" y="278" type="line"/>
      <point x="552" y="278" type="line"/>
      <point x="521.437" y="187.093"/>
      <point x="458.424" y="137"/>
      <point x="343" y="137" type="curve" smooth="yes"/>
      <point x="172.538" y="137"/>
      <point x="81" y="242"/>
    </contour>
    <contour>
      <point x="1140" y="1203.5" type="line"/>
      <point x="1140" y="0" type="line"/>
      <point x="970.5" y="0" type="line"/>
      <point x="970.5" y="1203.5" type="line"/>
    </contour>
    <contour>
      <point x="908" y="1154.5" type="line"/>
      <point x="898" y="1289.5" type="line"/>
      <point x="1279" y="1289.5" type="line"/>
      <point x="1289" y="1154.5" type="line"/>
    </contour>
    <contour>
      <point x="421.5" y="1155" type="line"/>
      <point x="411.5" y="1290" type="line"/>
      <point x="1177.5" y="1290" type="line"/>
      <point x="1187.5" y="1155" type="line"/>
    </contour>
    <contour>
      <point x="525.5" y="478" type="curve" smooth="yes"/>
      <point x="525.5" y="646.992" type="line" smooth="yes"/>
      <point x="525.5" y="886"/>
      <point x="609.5" y="989"/>
      <point x="788.5" y="989" type="curve" smooth="yes"/>
      <point x="823.5" y="989"/>
      <point x="857.5" y="984"/>
      <point x="885.5" y="974" type="curve"/>
      <point x="897.5" y="830" type="line"/>
      <point x="875.5" y="837"/>
      <point x="855.5" y="840"/>
      <point x="831.5" y="840" type="curve" smooth="yes"/>
      <point x="737.5" y="840"/>
      <point x="695.5" y="788"/>
      <point x="695.5" y="641" type="curve" smooth="yes"/>
      <point x="695.5" y="499" type="line" smooth="yes"/>
      <point x="695.5" y="352"/>
      <point x="739.833" y="303"/>
      <point x="828.5" y="303" type="curve" smooth="yes"/>
      <point x="905.55" y="303"/>
      <point x="953.245" y="344.442"/>
      <point x="971.5" y="436" type="curve"/>
      <point x="985.5" y="284" type="line"/>
      <point x="959.5" y="284" type="line"/>
      <point x="936.5" y="204"/>
      <point x="877.5" y="150"/>
      <point x="768.5" y="150" type="curve" smooth="yes"/>
      <point x="612.026" y="150"/>
      <point x="525.5" y="247.094"/>
    </contour>
  </outline>
  <guideline angle="90" x="1016.5" y="0"/>
  <guideline angle="0" x="0" y="9"/>
  <guideline angle="90" x="1021.5" y="0"/>
  <guideline angle="90" x="1004.5" y="0"/>
  <guideline angle="0" x="0" y="1262"/>
  <guideline angle="90" x="1054.5" y="0"/>
  <guideline angle="0" x="0" y="30"/>
</glyph>
<glyph name="BhaHalant.dv" format="2">
  <advance width="474"/>
  <outline>
    <contour>
      <point x="477.5" y="1154.5" type="line"/>
      <point x="468" y="1289.5" type="line"/>
      <point x="654" y="1289.5" type="line"/>
      <point x="663.5" y="1154.5" type="line"/>
    </contour>
    <contour>
      <point x="176.5" y="502" type="line"/>
      <point x="176.5" y="646" type="line"/>
      <point x="618" y="646" type="line"/>
      <point x="618" y="502" type="line"/>
    </contour>
    <contour>
      <point x="166" y="145.5" type="line"/>
      <point x="118" y="289.5"/>
      <point x="87" y="415.5"/>
      <point x="75" y="587" type="curve"/>
      <point x="138.5" y="634" type="line"/>
      <point x="306" y="634" type="line"/>
      <point x="306" y="145.5" type="line"/>
    </contour>
    <contour>
      <point x="138.5" y="489" type="line"/>
      <point x="138.5" y="1011" type="line" smooth="yes"/>
      <point x="138.5" y="1118.5"/>
      <point x="116" y="1154.5"/>
      <point x="32.5" y="1154.5" type="curve" smooth="yes"/>
      <point x="-24" y="1154.5" type="line"/>
      <point x="-34" y="1289.5" type="line"/>
      <point x="54.5" y="1289.5" type="line" smooth="yes"/>
      <point x="244.5" y="1289.5"/>
      <point x="306" y="1210"/>
      <point x="306" y="1014" type="curve" smooth="yes"/>
      <point x="306" y="489" type="line"/>
    </contour>
  </outline>
</glyph>
<glyph name="BhaLa.MAR.dv" format="2">
  <advance width="1476"/>
  <anchor x="1183.5" y="28" name="bottom"/>
  <anchor x="1167" y="23" name="bottom2"/>
  <anchor x="1241.5" y="23" name="bottom3"/>
  <anchor x="979.5" y="42.5" name="bottom5"/>
  <anchor x="1178.5" y="1258.5" name="top"/>
  <outline>
    <contour>
      <point x="531" y="1154.5" type="line"/>
      <point x="521" y="1289.5" type="line"/>
      <point x="1499" y="1289.5" type="line"/>
      <point x="1509" y="1154.5" type="line"/>
    </contour>
    <contour>
      <point x="1261" y="1175.5" type="line"/>
      <point x="1261" y="901.5" type="line"/>
      <point x="1096" y="901.5" type="line"/>
      <point x="1096" y="1175.5" type="line"/>
    </contour>
    <contour>
      <point x="777.688" y="937.5" type="curve" smooth="yes"/>
      <point x="886.069" y="937.5"/>
      <point x="943.912" y="888.825"/>
      <point x="964" y="797.5" type="curve"/>
      <point x="971.5" y="797.5" type="line"/>
      <point x="991" y="887.897"/>
      <point x="1051.6" y="937.5"/>
      <point x="1161.69" y="937.5" type="curve" smooth="yes"/>
      <point x="1313.85" y="937.5"/>
      <point x="1394.5" y="841.575"/>
      <point x="1394.5" y="607.5" type="curve" smooth="yes"/>
      <point x="1394.5" y="455" type="line" smooth="yes"/>
      <point x="1394.5" y="222.5"/>
      <point x="1358.14" y="116.5"/>
      <point x="1272" y="0" type="curve"/>
      <point x="1078" y="0" type="line"/>
      <point x="1078" y="3.0038" type="line"/>
      <point x="1180.66" y="131.667"/>
      <point x="1223" y="233.798"/>
      <point x="1223" y="456.58" type="curve" smooth="yes"/>
      <point x="1223" y="610.265" type="line" smooth="yes"/>
      <point x="1223" y="742.953"/>
      <point x="1197.15" y="787.5"/>
      <point x="1134.42" y="787.5" type="curve" smooth="yes"/>
      <point x="1079.21" y="787.5"/>
      <point x="1052.59" y="754.421"/>
      <point x="1050" y="641.717" type="curve" smooth="yes"/>
      <point x="1041.5" y="271.5" type="line"/>
      <point x="888.5" y="271.5" type="line"/>
      <point x="880.872" y="642" type="line" smooth="yes"/>
      <point x="878.566" y="753.994"/>
      <point x="853.066" y="787.5"/>
      <point x="800.017" y="787.5" type="curve" smooth="yes"/>
      <point x="736.269" y="787.5"/>
      <point x="709.5" y="744.914"/>
      <point x="709.5" y="609.5" type="curve" smooth="yes"/>
      <point x="709.5" y="456" type="line" smooth="yes"/>
      <point x="709.5" y="235.5"/>
      <point x="753.086" y="131.5"/>
      <point x="856" y="3" type="curve"/>
      <point x="856" y="0" type="line"/>
      <point x="662.5" y="0" type="line"/>
      <point x="574.961" y="117.5"/>
      <point x="538" y="226.5"/>
      <point x="538" y="455" type="curve" smooth="yes"/>
      <point x="538" y="605.5" type="line" smooth="yes"/>
      <point x="538" y="842.5"/>
      <point x="624.639" y="937.5"/>
    </contour>
    <contour>
      <point x="477.5" y="1154.5" type="line"/>
      <point x="468" y="1289.5" type="line"/>
      <point x="654" y="1289.5" type="line"/>
      <point x="663.5" y="1154.5" type="line"/>
    </contour>
    <contour>
      <point x="176.5" y="502" type="line"/>
      <point x="176.5" y="646" type="line"/>
      <point x="618" y="646" type="line"/>
      <point x="618" y="502" type="line"/>
    </contour>
    <contour>
      <point x="166" y="145.5" type="line"/>
      <point x="118" y="289.5"/>
      <point x="87" y="415.5"/>
      <point x="75" y="587" type="curve"/>
      <point x="138.5" y="634" type="line"/>
      <point x="306" y="634" type="line"/>
      <point x="306" y="145.5" type="line"/>
    </contour>
    <contour>
      <point x="138.5" y="489" type="line"/>
      <point x="138.5" y="1011" type="line" smooth="yes"/>
      <point x="138.5" y="1118.5"/>
      <point x="116" y="1154.5"/>
      <point x="32.5" y="1154.5" type="curve" smooth="yes"/>
      <point x="-24" y="1154.5" type="line"/>
      <point x="-34" y="1289.5" type="line"/>
      <point x="54.5" y="1289.5" type="line" smooth="yes"/>
      <point x="244.5" y="1289.5"/>
      <point x="306" y="1210"/>
      <point x="306" y="1014" type="curve" smooth="yes"/>
      <point x="306" y="489" type="line"/>
    </contour>
    <contour>
      <point x="1024.5" y="1154.5" type="line"/>
      <point x="1014.5" y="1289.5" type="line"/>
      <point x="1375" y="1289.5" type="line"/>
      <point x="1385" y="1154.5" type="line"/>
    </contour>
    <contour>
      <point x="1261" y="1204" type="line"/>
      <point x="1261" y="988.5" type="line"/>
      <point x="1097" y="988.5" type="line"/>
      <point x="1097" y="1204" type="line"/>
    </contour>
  </outline>
  <guideline angle="0" x="0" y="518"/>
  <guideline angle="90" x="816" y="0"/>
  <guideline angle="0" x="0" y="9"/>
  <guideline angle="90" x="904" y="0"/>
  <guideline angle="90" x="1146" y="0"/>
</glyph>
<glyph name="BhaRa.dv" format="2">
  <advance width="846"/>
  <anchor x="647" y="6.5" name="bottom"/>
  <anchor x="638" y="6.5" name="bottom2"/>
  <anchor x="730.5" y="6.5" name="bottom3"/>
  <anchor x="645.5" y="1258.5" name="top"/>
  <outline>
    <contour>
      <point x="477" y="1154.5" type="line"/>
      <point x="467.5" y="1289.5" type="line"/>
      <point x="869" y="1289.5" type="line"/>
      <point x="879" y="1154.5" type="line"/>
    </contour>
    <contour>
      <point x="628" y="693" type="line"/>
      <point x="628" y="549" type="line"/>
      <point x="180.5" y="549" type="line"/>
      <point x="180.5" y="693" type="line"/>
    </contour>
    <contour>
      <point x="136" y="-35" type="line"/>
      <point x="136" y="-18" type="line"/>
      <point x="605" y="465" type="line"/>
      <point x="605" y="294" type="line"/>
      <point x="348" y="-35" type="line"/>
    </contour>
    <contour>
      <point x="568" y="-16.5" type="line"/>
      <point x="568" y="379" type="line"/>
      <point x="561" y="401" type="line"/>
      <point x="561" y="1206" type="line"/>
      <point x="730.5" y="1206" type="line"/>
      <point x="730.5" y="-16.5" type="line"/>
    </contour>
    <contour>
      <point x="161.5" y="249.5" type="line"/>
      <point x="114" y="382"/>
      <point x="89" y="494"/>
      <point x="75" y="641" type="curve"/>
      <point x="138.5" y="683.5" type="line"/>
      <point x="303.5" y="683.5" type="line"/>
      <point x="303.5" y="249.5" type="line"/>
    </contour>
    <contour>
      <point x="138.5" y="589" type="line"/>
      <point x="138.5" y="1011" type="line" smooth="yes"/>
      <point x="138.5" y="1118.5"/>
      <point x="116.5" y="1154.5"/>
      <point x="34" y="1154.5" type="curve" smooth="yes"/>
      <point x="-24" y="1154.5" type="line"/>
      <point x="-34" y="1289.5" type="line"/>
      <point x="56.5" y="1289.5" type="line" smooth="yes"/>
      <point x="245" y="1289.5"/>
      <point x="306" y="1210"/>
      <point x="306" y="1014" type="curve" smooth="yes"/>
      <point x="306" y="589" type="line"/>
    </contour>
  </outline>
  <guideline angle="90" x="538" y="0"/>
</glyph>
<glyph name="CaYa.dv" format="2">
  <advance width="1369"/>
  <anchor x="1169.5" y="23" name="bottom"/>
  <anchor x="1161" y="23" name="bottom2"/>
  <anchor x="1253.5" y="23" name="bottom3"/>
  <anchor x="1168.5" y="42.5" name="bottom5"/>
  <anchor x="1167" y="1258.5" name="top"/>
  <outline>
    <contour>
      <point x="-15" y="1154.5" type="line"/>
      <point x="-25" y="1289.5" type="line"/>
      <point x="598.5" y="1289.5" type="line"/>
      <point x="608" y="1154.5" type="line"/>
    </contour>
    <contour>
      <point x="478" y="950.5" type="line"/>
      <point x="478" y="808" type="line"/>
      <point x="281" y="807.4" type="line"/>
      <point x="195" y="806" type="line"/>
      <point x="41" y="806" type="line"/>
      <point x="41" y="950.5" type="line"/>
    </contour>
    <contour>
      <point x="386.731" y="160" type="curve" smooth="yes"/>
      <point x="219.661" y="160"/>
      <point x="126" y="250.5"/>
      <point x="126" y="465" type="curve" smooth="yes"/>
      <point x="126" y="564" type="line" smooth="yes"/>
      <point x="126" y="710.446"/>
      <point x="162" y="775.18"/>
      <point x="245.5" y="799" type="curve"/>
      <point x="245.5" y="854" type="line"/>
      <point x="478" y="854" type="line"/>
      <point x="478" y="808" type="line"/>
      <point x="431.5" y="804.478" type="line" smooth="yes"/>
      <point x="335.94" y="797.24"/>
      <point x="298" y="740.821"/>
      <point x="298" y="596.889" type="curve" smooth="yes"/>
      <point x="298" y="497.866" type="line" smooth="yes"/>
      <point x="298" y="358.221"/>
      <point x="339.861" y="313"/>
      <point x="437.075" y="313" type="curve" smooth="yes"/>
      <point x="520.07" y="313"/>
      <point x="568.517" y="362.955"/>
      <point x="578.5" y="445" type="curve"/>
      <point x="622" y="313" type="line"/>
      <point x="600" y="313" type="line"/>
      <point x="571.199" y="221.231"/>
      <point x="512.611" y="160"/>
    </contour>
    <contour>
      <point x="1253" y="1203.5" type="line"/>
      <point x="1253" y="0" type="line"/>
      <point x="1083.5" y="0" type="line"/>
      <point x="1083.5" y="1203.5" type="line"/>
    </contour>
    <contour>
      <point x="1021" y="1154.5" type="line"/>
      <point x="1011" y="1289.5" type="line"/>
      <point x="1392" y="1289.5" type="line"/>
      <point x="1402" y="1154.5" type="line"/>
    </contour>
    <contour>
      <point x="462.5" y="1289.5" type="line"/>
      <point x="1295.5" y="1289.5" type="line"/>
      <point x="1305.5" y="1154.5" type="line"/>
      <point x="472.5" y="1154.5" type="line"/>
    </contour>
    <contour>
      <point x="853.5" y="1174.5" type="line"/>
      <point x="886.5" y="1128"/>
      <point x="895.5" y="1062"/>
      <point x="895.5" y="957.5" type="curve" smooth="yes"/>
      <point x="895.5" y="897" type="line" smooth="yes"/>
      <point x="895.5" y="696"/>
      <point x="830.458" y="616.635"/>
      <point x="661" y="611.5" type="curve" smooth="yes"/>
      <point x="628" y="610.5" type="line"/>
      <point x="563" y="735" type="line"/>
      <point x="585" y="735" type="line" smooth="yes"/>
      <point x="684" y="735"/>
      <point x="726" y="783.098"/>
      <point x="726" y="912" type="curve" smooth="yes"/>
      <point x="726" y="975" type="line" smooth="yes"/>
      <point x="726" y="1080"/>
      <point x="716" y="1130.84"/>
      <point x="684.5" y="1174.5" type="curve"/>
    </contour>
    <contour>
      <point x="563" y="551.5" type="line" smooth="yes"/>
      <point x="563" y="626.5"/>
      <point x="563" y="678.5"/>
      <point x="563" y="735" type="curve"/>
      <point x="725.5" y="687" type="line"/>
      <point x="725.5" y="538" type="line" smooth="yes"/>
      <point x="725.5" y="399"/>
      <point x="780.831" y="338"/>
      <point x="897.5" y="338" type="curve" smooth="yes"/>
      <point x="1007.19" y="338"/>
      <point x="1068.5" y="390"/>
      <point x="1089.5" y="499.5" type="curve"/>
      <point x="1091.5" y="332.5" type="line"/>
      <point x="1072.5" y="332.5" type="line"/>
      <point x="1047.5" y="244"/>
      <point x="982.04" y="185"/>
      <point x="850.129" y="185" type="curve" smooth="yes"/>
      <point x="665.653" y="185"/>
      <point x="563" y="290.5"/>
      <point x="563" y="529" type="curve" smooth="yes"/>
    </contour>
  </outline>
  <guideline angle="90" x="590.5" y="0"/>
  <guideline angle="90" x="1129.5" y="0"/>
  <guideline angle="0" x="0" y="9"/>
  <guideline angle="90" x="1134.5" y="0"/>
  <guideline angle="90" x="1117.5" y="0"/>
  <guideline angle="0" x="0" y="1262"/>
  <guideline angle="90" x="1167.5" y="0"/>
  <guideline angle="0" x="0" y="30"/>
</glyph>
<glyph name="ChaYa.dv" format="2">
  <advance width="1885"/>
  <anchor x="1682.5" y="23" name="bottom"/>
  <anchor x="1675" y="23" name="bottom2"/>
  <anchor x="1767.5" y="23" name="bottom3"/>
  <anchor x="1682.5" y="42.5" name="bottom5"/>
  <anchor x="1682.5" y="1258.5" name="top"/>
  <outline>
    <contour>
      <point x="1768.5" y="1203.5" type="line"/>
      <point x="1768.5" y="0" type="line"/>
      <point x="1599" y="0" type="line"/>
      <point x="1599" y="1203.5" type="line"/>
    </contour>
    <contour>
      <point x="1536.5" y="1154.5" type="line"/>
      <point x="1526.5" y="1289.5" type="line"/>
      <point x="1907.5" y="1289.5" type="line"/>
      <point x="1917.5" y="1154.5" type="line"/>
    </contour>
    <contour>
      <point x="1806" y="1289.5" type="line"/>
      <point x="1815.5" y="1154.5" type="line"/>
      <point x="-40.5" y="1154.5" type="line"/>
      <point x="-51" y="1289.5" type="line"/>
    </contour>
    <contour>
      <point x="1135.5" y="857.261" type="line"/>
      <point x="783" y="857.261" type="line"/>
      <point x="735" y="997.261" type="line"/>
      <point x="1135.5" y="997.261" type="line"/>
    </contour>
    <contour>
      <point x="516.49" y="-8" type="curve" smooth="yes"/>
      <point x="226.2" y="-8"/>
      <point x="87" y="124"/>
      <point x="87" y="366" type="curve" smooth="yes"/>
      <point x="87" y="390" type="line" smooth="yes"/>
      <point x="87" y="561"/>
      <point x="131.195" y="644"/>
      <point x="265" y="668" type="curve"/>
      <point x="265" y="676" type="line"/>
      <point x="131.195" y="701"/>
      <point x="87" y="780"/>
      <point x="87" y="947" type="curve" smooth="yes"/>
      <point x="87" y="974" type="line" smooth="yes"/>
      <point x="87" y="1068"/>
      <point x="99.1667" y="1133"/>
      <point x="130.597" y="1181" type="curve"/>
      <point x="307" y="1181" type="line"/>
      <point x="272" y="1127.85"/>
      <point x="261" y="1067.68"/>
      <point x="261" y="973.405" type="curve" smooth="yes"/>
      <point x="261" y="951.342" type="line" smooth="yes"/>
      <point x="261" y="815.953"/>
      <point x="289.202" y="752.144"/>
      <point x="401.549" y="745" type="curve" smooth="yes"/>
      <point x="433" y="743" type="line"/>
      <point x="433" y="595" type="line"/>
      <point x="396.634" y="593" type="line" smooth="yes"/>
      <point x="289.295" y="587.097"/>
      <point x="261" y="533.175"/>
      <point x="261" y="404.79" type="curve" smooth="yes"/>
      <point x="261" y="384.73" type="line" smooth="yes"/>
      <point x="261" y="219.234"/>
      <point x="349.815" y="141"/>
      <point x="522.565" y="141" type="curve" smooth="yes"/>
      <point x="718.55" y="141"/>
      <point x="808" y="257"/>
      <point x="808" y="469" type="curve" smooth="yes"/>
      <point x="808" y="487" type="line"/>
      <point x="805" y="511.527" type="line"/>
      <point x="805" y="721.033" type="line" smooth="yes"/>
      <point x="805" y="822.209"/>
      <point x="785.505" y="859.257"/>
      <point x="730.025" y="859.257" type="curve" smooth="yes"/>
      <point x="677.485" y="859.257"/>
      <point x="658" y="821"/>
      <point x="658" y="724" type="curve" smooth="yes"/>
      <point x="658" y="616" type="line" smooth="yes"/>
      <point x="658" y="523"/>
      <point x="681.628" y="493"/>
      <point x="733.036" y="493" type="curve" smooth="yes"/>
      <point x="774.152" y="493"/>
      <point x="802.861" y="518.184"/>
      <point x="808" y="559" type="curve"/>
      <point x="814" y="448" type="line"/>
      <point x="797" y="448" type="line"/>
      <point x="778" y="395.221"/>
      <point x="742.595" y="359"/>
      <point x="669" y="359" type="curve" smooth="yes"/>
      <point x="566.963" y="359"/>
      <point x="511" y="423.602"/>
      <point x="511" y="590" type="curve" smooth="yes"/>
      <point x="511" y="739" type="line" smooth="yes"/>
      <point x="511" y="910"/>
      <point x="580.406" y="997.257"/>
      <point x="735.025" y="997.257" type="curve" smooth="yes"/>
      <point x="863" y="997.257"/>
      <point x="963" y="900.901"/>
      <point x="963" y="718" type="curve" smooth="yes"/>
      <point x="963" y="496.61" type="line" smooth="yes"/>
      <point x="963" y="156.547"/>
      <point x="812.829" y="-8"/>
    </contour>
    <contour>
      <point x="1112.5" y="857.261" type="line"/>
      <point x="1112.5" y="997.261" type="line"/>
      <point x="1196.38" y="997.261" type="line" smooth="yes"/>
      <point x="1373.61" y="997.261"/>
      <point x="1448" y="913.843"/>
      <point x="1448" y="754" type="curve" smooth="yes"/>
      <point x="1448" y="706.534" type="line" smooth="yes"/>
      <point x="1448" y="552.685"/>
      <point x="1377.13" y="476.261"/>
      <point x="1208.44" y="476.261" type="curve" smooth="yes"/>
      <point x="1178" y="476.261" type="line"/>
      <point x="1112.5" y="610.261" type="line"/>
      <point x="1154.41" y="610.261" type="line" smooth="yes"/>
      <point x="1240.05" y="610.261"/>
      <point x="1278" y="643.008"/>
      <point x="1278" y="712.927" type="curve" smooth="yes"/>
      <point x="1278" y="752.381" type="line" smooth="yes"/>
      <point x="1278" y="824.071"/>
      <point x="1243.86" y="857.261"/>
      <point x="1161.94" y="857.261" type="curve" smooth="yes"/>
    </contour>
    <contour>
      <point x="1112.5" y="446.261" type="curve" smooth="yes"/>
      <point x="1112.5" y="463.1" type="line" smooth="yes"/>
      <point x="1112.5" y="518.059"/>
      <point x="1112.5" y="567.261"/>
      <point x="1112.5" y="610.261" type="curve"/>
      <point x="1275.5" y="516.761" type="line"/>
      <point x="1275.5" y="449.261" type="line" smooth="yes"/>
      <point x="1275.5" y="334.261"/>
      <point x="1323.5" y="285.261"/>
      <point x="1430" y="285.261" type="curve" smooth="yes"/>
      <point x="1534.5" y="285.261"/>
      <point x="1588.5" y="333.261"/>
      <point x="1605" y="424.261" type="curve"/>
      <point x="1609" y="271.761" type="line"/>
      <point x="1589" y="271.761" type="line"/>
      <point x="1565.5" y="185.021"/>
      <point x="1504.5" y="133.261"/>
      <point x="1377.5" y="133.261" type="curve" smooth="yes"/>
      <point x="1198.5" y="133.261"/>
      <point x="1112.5" y="236.052"/>
    </contour>
  </outline>
  <guideline angle="90" x="1645" y="0"/>
  <guideline angle="0" x="0" y="9"/>
  <guideline angle="90" x="1650" y="0"/>
  <guideline angle="90" x="1633" y="0"/>
  <guideline angle="0" x="0" y="1262"/>
  <guideline angle="90" x="1683" y="0"/>
  <guideline angle="0" x="0" y="30"/>
</glyph>
<glyph name="Chandrabinduone.dv" format="2">
  <anchor x="-201" y="1258.5" name="_top"/>
  <outline>
    <contour>
      <point x="-40.0428" y="1572.16" type="curve" smooth="yes"/>
      <point x="-9.58103" y="1572.16"/>
      <point x="3.3879" y="1594.37"/>
      <point x="3.3879" y="1638.38" type="curve" smooth="yes"/>
      <point x="3.3879" y="1645.53" type="line" smooth="yes"/>
      <point x="3.3879" y="1691.33"/>
      <point x="-9.51129" y="1711.71"/>
      <point x="-40.0172" y="1711.71" type="curve" smooth="yes"/>
      <point x="-69.9341" y="1711.71"/>
      <point x="-83.3621" y="1692.11"/>
      <point x="-83.3621" y="1645.96" type="curve" smooth="yes"/>
      <point x="-83.3621" y="1638.89" type="line" smooth="yes"/>
      <point x="-83.3621" y="1594.2"/>
      <point x="-70.0596" y="1572.16"/>
    </contour>
    <contour>
      <point x="47.7286" y="1640.72" type="line"/>
      <point x="47.7286" y="1620.24" type="line" smooth="yes"/>
      <point x="47.7286" y="1541.87"/>
      <point x="21.1525" y="1512"/>
      <point x="-40.6574" y="1512" type="curve" smooth="yes"/>
      <point x="-102.467" y="1512"/>
      <point x="-128.212" y="1542.34"/>
      <point x="-128.212" y="1620.27" type="curve" smooth="yes"/>
      <point x="-128.212" y="1640.56" type="line"/>
      <point x="-202.337" y="1640.56" type="line"/>
      <point x="-203.388" y="1627.93"/>
      <point x="-203.388" y="1618.24"/>
      <point x="-203.388" y="1611.38" type="curve" smooth="yes"/>
      <point x="-203.388" y="1498.35"/>
      <point x="-149.152" y="1439.89"/>
      <point x="-40.7632" y="1439.89" type="curve" smooth="yes"/>
      <point x="67.6255" y="1439.89"/>
      <point x="122.888" y="1495.76"/>
      <point x="123.372" y="1611.22" type="curve" smooth="yes"/>
      <point x="123.403" y="1618.7"/>
      <point x="123.372" y="1627.75"/>
      <point x="122.301" y="1640.72" type="curve"/>
    </contour>
  </outline>
</glyph>
<glyph name="DaBhaYa.dv" format="2">
  <advance width="2025"/>
  <anchor x="1825.5" y="23" name="bottom"/>
  <anchor x="1817" y="23" name="bottom2"/>
  <anchor x="1909.5" y="23" name="bottom3"/>
  <anchor x="1824.5" y="42.5" name="bottom5"/>
  <anchor x="1823" y="1258.5" name="top"/>
  <outline>
    <contour>
      <point x="914.5" y="864" type="line"/>
      <point x="914.5" y="1206" type="line"/>
      <point x="1079" y="1206" type="line"/>
      <point x="1079" y="848" type="line"/>
    </contour>
    <contour>
      <point x="977" y="137" type="line"/>
      <point x="312.5" y="9" type="line"/>
      <point x="289" y="135.5" type="line"/>
      <point x="695.5" y="208" type="line"/>
      <point x="733.5" y="187.5" type="line"/>
      <point x="964.5" y="241.5" type="line"/>
    </contour>
    <contour>
      <point x="337.5" y="-241.5" type="line"/>
      <point x="275" y="-135.701"/>
      <point x="236.5" y="-53.5222"/>
      <point x="205.5" y="69.5" type="curve"/>
      <point x="270.5" y="128" type="line"/>
      <point x="416" y="157.5" type="line"/>
      <point x="475" y="-217" type="line"/>
    </contour>
    <contour>
      <point x="1085.5" y="565.5" type="line"/>
      <point x="1085.5" y="216" type="line"/>
      <point x="1131.5" y="-161.5" type="line"/>
      <point x="974" y="-161.5" type="line"/>
      <point x="933.5" y="203.5" type="line"/>
      <point x="921.5" y="233" type="line"/>
      <point x="921.5" y="565.5" type="line"/>
    </contour>
    <contour>
      <point x="278.5" y="67" type="line"/>
      <point x="223" y="425" type="line" smooth="yes"/>
      <point x="206.35" y="532.401"/>
      <point x="171.487" y="556.069"/>
      <point x="89" y="540" type="curve" smooth="yes"/>
      <point x="50.5" y="532.5" type="line"/>
      <point x="15" y="659" type="line"/>
      <point x="79" y="671.5" type="line" smooth="yes"/>
      <point x="260.991" y="707.045"/>
      <point x="337.224" y="647.197"/>
      <point x="367" y="458" type="curve" smooth="yes"/>
      <point x="423.5" y="99" type="line"/>
    </contour>
    <contour>
      <point x="849" y="974" type="curve" smooth="yes"/>
      <point x="936.5" y="974"/>
      <point x="1006.5" y="969"/>
      <point x="1079" y="957.5" type="curve"/>
      <point x="1079" y="833" type="line"/>
      <point x="911.5" y="833" type="line" smooth="yes"/>
      <point x="746.487" y="833"/>
      <point x="686.476" y="761.722"/>
      <point x="686.476" y="582" type="curve" smooth="yes"/>
      <point x="686.476" y="457" type="line" smooth="yes"/>
      <point x="686.476" y="306.507"/>
      <point x="727.198" y="246.5"/>
      <point x="822" y="246.5" type="curve" smooth="yes"/>
      <point x="864.506" y="246.5"/>
      <point x="899.79" y="255.08"/>
      <point x="936.5" y="266" type="curve"/>
      <point x="953" y="189.5" type="line"/>
      <point x="778" y="151" type="line"/>
      <point x="586.25" y="161.634"/>
      <point x="519.045" y="245.596"/>
      <point x="519" y="472.5" type="curve" smooth="yes"/>
      <point x="518.976" y="592" type="line" smooth="yes"/>
      <point x="518.923" y="862"/>
      <point x="628.584" y="974"/>
    </contour>
    <contour>
      <point x="1909" y="1203.5" type="line"/>
      <point x="1909" y="0" type="line"/>
      <point x="1739.5" y="0" type="line"/>
      <point x="1739.5" y="1203.5" type="line"/>
    </contour>
    <contour>
      <point x="1677" y="1154.5" type="line"/>
      <point x="1667" y="1289.5" type="line"/>
      <point x="2048" y="1289.5" type="line"/>
      <point x="2058" y="1154.5" type="line"/>
    </contour>
    <contour>
      <point x="1254" y="973" type="line"/>
      <point x="1343.88" y="973" type="line" smooth="yes"/>
      <point x="1516.88" y="973"/>
      <point x="1589.5" y="889.582"/>
      <point x="1589.5" y="729.739" type="curve" smooth="yes"/>
      <point x="1589.5" y="682.273" type="line" smooth="yes"/>
      <point x="1589.5" y="528.425"/>
      <point x="1518.63" y="452"/>
      <point x="1349.94" y="452" type="curve" smooth="yes"/>
      <point x="1319.5" y="452" type="line"/>
      <point x="1254" y="586" type="line"/>
      <point x="1295.91" y="586" type="line" smooth="yes"/>
      <point x="1381.55" y="586"/>
      <point x="1419.5" y="618.747"/>
      <point x="1419.5" y="688.667" type="curve" smooth="yes"/>
      <point x="1419.5" y="726.121" type="line" smooth="yes"/>
      <point x="1419.5" y="799.177"/>
      <point x="1390.59" y="833"/>
      <point x="1311.44" y="833" type="curve" smooth="yes"/>
      <point x="1254" y="833" type="line"/>
    </contour>
    <contour>
      <point x="1254" y="438.84" type="line" smooth="yes"/>
      <point x="1254" y="493.799"/>
      <point x="1254" y="543"/>
      <point x="1254" y="586" type="curve"/>
      <point x="1268" y="577.97"/>
      <point x="1404.37" y="499.746"/>
      <point x="1417" y="492.5" type="curve"/>
      <point x="1417" y="425" type="line" smooth="yes"/>
      <point x="1417" y="310"/>
      <point x="1465" y="261"/>
      <point x="1571.5" y="261" type="curve" smooth="yes"/>
      <point x="1671.81" y="261"/>
      <point x="1728.19" y="310.381"/>
      <point x="1744.5" y="404" type="curve"/>
      <point x="1750.5" y="245.5" type="line"/>
      <point x="1729.5" y="245.5" type="line"/>
      <point x="1703.12" y="161.235"/>
      <point x="1641.42" y="109"/>
      <point x="1518" y="109" type="curve" smooth="yes"/>
      <point x="1339" y="109"/>
      <point x="1254" y="211.791"/>
      <point x="1254" y="422" type="curve" smooth="yes"/>
    </contour>
    <contour>
      <point x="-33" y="1289.5" type="line"/>
      <point x="1947" y="1289.5" type="line"/>
      <point x="1957" y="1154.5" type="line"/>
      <point x="-23" y="1154.5" type="line"/>
    </contour>
    <contour>
      <point x="1296" y="833" type="line"/>
      <point x="1028.5" y="833" type="line"/>
      <point x="1028.5" y="972.5" type="line"/>
      <point x="1296" y="972.5" type="line"/>
    </contour>
  </outline>
  <guideline angle="90" x="1785.5" y="0"/>
  <guideline angle="0" x="0" y="9"/>
  <guideline angle="90" x="1790.5" y="0"/>
  <guideline angle="90" x="1773.5" y="0"/>
  <guideline angle="0" x="0" y="1262"/>
  <guideline angle="90" x="1823.5" y="0"/>
  <guideline angle="0" x="0" y="30"/>
</glyph>
<glyph name="DaDhaYa.dv" format="2">
  <advance width="1908"/>
  <anchor x="1708.5" y="23" name="bottom"/>
  <anchor x="1700" y="23" name="bottom2"/>
  <anchor x="1792.5" y="23" name="bottom3"/>
  <anchor x="1707.5" y="42.5" name="bottom5"/>
  <anchor x="1706" y="1258.5" name="top"/>
  <outline>
    <contour>
      <point x="797.5" y="864" type="line"/>
      <point x="797.5" y="1206" type="line"/>
      <point x="962.5" y="1206" type="line"/>
      <point x="962.5" y="848" type="line"/>
    </contour>
    <contour>
      <point x="741.493" y="974.058" type="curve" smooth="yes"/>
      <point x="820" y="974"/>
      <point x="890" y="969"/>
      <point x="962.5" y="957.5" type="curve"/>
      <point x="962.5" y="833" type="line"/>
      <point x="946.431" y="832.958"/>
      <point x="808.962" y="832.596"/>
      <point x="794.493" y="832.558" type="curve" smooth="yes"/>
      <point x="629.48" y="832.558"/>
      <point x="570.993" y="761.78"/>
      <point x="570.993" y="582.058" type="curve" smooth="yes"/>
      <point x="570.993" y="429.558" type="line" smooth="yes"/>
      <point x="570.993" y="277.992"/>
      <point x="610.506" y="217.558"/>
      <point x="702.493" y="217.558" type="curve" smooth="yes"/>
      <point x="757.493" y="217.558"/>
      <point x="796.493" y="240.808"/>
      <point x="816.493" y="279.558" type="curve"/>
      <point x="837.493" y="158.058" type="line"/>
      <point x="815.493" y="107.887"/>
      <point x="756.959" y="69.0579"/>
      <point x="666.993" y="69.0579" type="curve" smooth="yes"/>
      <point x="499.493" y="69.0579"/>
      <point x="403.493" y="171.384"/>
      <point x="403.493" y="422.558" type="curve" smooth="yes"/>
      <point x="403.493" y="592.058" type="line" smooth="yes"/>
      <point x="403.493" y="862.058"/>
      <point x="513.101" y="974.058"/>
    </contour>
    <contour>
      <point x="970.5" y="565.5" type="line"/>
      <point x="970.5" y="216" type="line"/>
      <point x="1022" y="-297" type="line"/>
      <point x="869.5" y="-297" type="line"/>
      <point x="828" y="175" type="line"/>
      <point x="806.5" y="204.5" type="line"/>
      <point x="806.5" y="565.5" type="line"/>
    </contour>
    <contour>
      <point x="216.5" y="684.5" type="line"/>
      <point x="231.5" y="646"/>
      <point x="239" y="603"/>
      <point x="239" y="554" type="curve" smooth="yes"/>
      <point x="239" y="487.987"/>
      <point x="223" y="428.211"/>
      <point x="223" y="357" type="curve" smooth="yes"/>
      <point x="223" y="272.476"/>
      <point x="258.105" y="233"/>
      <point x="327" y="233" type="curve" smooth="yes"/>
      <point x="375.966" y="233"/>
      <point x="403.297" y="242.455"/>
      <point x="446" y="272" type="curve"/>
      <point x="543" y="148.5" type="line"/>
      <point x="483.881" y="102.484"/>
      <point x="468" y="55.7383"/>
      <point x="468" y="1.4966" type="curve" smooth="yes"/>
      <point x="468" y="-87.1082"/>
      <point x="530.239" y="-144.5"/>
      <point x="640" y="-144.5" type="curve" smooth="yes"/>
      <point x="757.458" y="-144.5"/>
      <point x="829.865" y="-80.5397"/>
      <point x="847" y="32" type="curve"/>
      <point x="873.5" y="-134.5" type="line"/>
      <point x="842.53" y="-135.5" type="line"/>
      <point x="812.619" y="-227.503"/>
      <point x="742.334" y="-289.5"/>
      <point x="598.65" y="-289.5" type="curve" smooth="yes"/>
      <point x="419.007" y="-289.5"/>
      <point x="314" y="-192.363"/>
      <point x="314" y="-40.3172" type="curve" smooth="yes"/>
      <point x="314" y="27.9287"/>
      <point x="334.799" y="78.9419"/>
      <point x="384" y="123" type="curve"/>
      <point x="378.5" y="131" type="line"/>
      <point x="354.974" y="118.304"/>
      <point x="321" y="111"/>
      <point x="287" y="111" type="curve" smooth="yes"/>
      <point x="146.905" y="111"/>
      <point x="61.5" y="184.214"/>
      <point x="61.5" y="342.5" type="curve" smooth="yes"/>
      <point x="61.5" y="424.5"/>
      <point x="78" y="486.5"/>
      <point x="78" y="555.5" type="curve" smooth="yes"/>
      <point x="78" y="606"/>
      <point x="69.5" y="647"/>
      <point x="54.5" y="684.5" type="curve"/>
    </contour>
    <contour>
      <point x="1792" y="1203.5" type="line"/>
      <point x="1792" y="0" type="line"/>
      <point x="1622.5" y="0" type="line"/>
      <point x="1622.5" y="1203.5" type="line"/>
    </contour>
    <contour>
      <point x="1560" y="1154.5" type="line"/>
      <point x="1550" y="1289.5" type="line"/>
      <point x="1931" y="1289.5" type="line"/>
      <point x="1941" y="1154.5" type="line"/>
    </contour>
    <contour>
      <point x="1136.5" y="972.5" type="line"/>
      <point x="1226.38" y="972.5" type="line" smooth="yes"/>
      <point x="1399.38" y="972.5"/>
      <point x="1472" y="889.082"/>
      <point x="1472" y="729.239" type="curve" smooth="yes"/>
      <point x="1472" y="681.773" type="line" smooth="yes"/>
      <point x="1472" y="527.925"/>
      <point x="1401.13" y="451.5"/>
      <point x="1232.44" y="451.5" type="curve" smooth="yes"/>
      <point x="1202" y="451.5" type="line"/>
      <point x="1136.5" y="585.5" type="line"/>
      <point x="1178.41" y="585.5" type="line" smooth="yes"/>
      <point x="1264.05" y="585.5"/>
      <point x="1302" y="618.247"/>
      <point x="1302" y="688.167" type="curve" smooth="yes"/>
      <point x="1302" y="725.621" type="line" smooth="yes"/>
      <point x="1302" y="798.677"/>
      <point x="1273.09" y="832.5"/>
      <point x="1193.94" y="832.5" type="curve" smooth="yes"/>
      <point x="1136.5" y="832.5" type="line"/>
    </contour>
    <contour>
      <point x="1136.5" y="438.34" type="line" smooth="yes"/>
      <point x="1136.5" y="493.299"/>
      <point x="1136.5" y="542.5"/>
      <point x="1136.5" y="585.5" type="curve"/>
      <point x="1150.5" y="577.47"/>
      <point x="1286.87" y="499.246"/>
      <point x="1299.5" y="492" type="curve"/>
      <point x="1299.5" y="424.5" type="line" smooth="yes"/>
      <point x="1299.5" y="309.5"/>
      <point x="1347.5" y="260.5"/>
      <point x="1454" y="260.5" type="curve" smooth="yes"/>
      <point x="1554.31" y="260.5"/>
      <point x="1610.69" y="309.881"/>
      <point x="1627" y="403.5" type="curve"/>
      <point x="1633" y="245" type="line"/>
      <point x="1612" y="245" type="line"/>
      <point x="1585.62" y="160.735"/>
      <point x="1523.92" y="108.5"/>
      <point x="1400.5" y="108.5" type="curve" smooth="yes"/>
      <point x="1221.5" y="108.5"/>
      <point x="1136.5" y="211.291"/>
      <point x="1136.5" y="421.5" type="curve" smooth="yes"/>
    </contour>
    <contour>
      <point x="-33" y="1289.5" type="line"/>
      <point x="1830.5" y="1289.5" type="line"/>
      <point x="1840" y="1154.5" type="line"/>
      <point x="-23" y="1154.5" type="line"/>
    </contour>
    <contour>
      <point x="1180.75" y="832.87" type="line"/>
      <point x="913.249" y="832.87" type="line"/>
      <point x="911.5" y="972.5" type="line"/>
      <point x="1179" y="972.5" type="line"/>
    </contour>
  </outline>
  <guideline angle="90" x="1560" y="0"/>
  <guideline angle="90" x="1668.5" y="0"/>
  <guideline angle="0" x="0" y="9"/>
  <guideline angle="90" x="1673.5" y="0"/>
  <guideline angle="90" x="1656.5" y="0"/>
  <guideline angle="0" x="0" y="1262"/>
  <guideline angle="90" x="1706.5" y="0"/>
  <guideline angle="0" x="0" y="30"/>
</glyph>
<glyph name="DaNa.dv" format="2">
  <advance width="745"/>
  <anchor x="631" y="-133.5" name="bottom"/>
  <anchor x="471.5" y="-143.5" name="bottom2"/>
  <anchor x="671.5" y="-163.5" name="bottom3"/>
  <anchor x="557.5" y="1258.5" name="top"/>
  <outline>
    <contour>
      <point x="-12" y="1154.5" type="line"/>
      <point x="-22" y="1289.5" type="line"/>
      <point x="780" y="1289.5" type="line"/>
      <point x="790" y="1154.5" type="line"/>
    </contour>
    <contour>
      <point x="475" y="862.5" type="line"/>
      <point x="475" y="1206" type="line"/>
      <point x="640" y="1206" type="line"/>
      <point x="640" y="835" type="line"/>
    </contour>
    <contour>
      <point x="649" y="565.5" type="line"/>
      <point x="649" y="216" type="line"/>
      <point x="698.5" y="-158" type="line"/>
      <point x="542" y="-158" type="line"/>
      <point x="499" y="203.5" type="line"/>
      <point x="485" y="233" type="line"/>
      <point x="485" y="565.5" type="line"/>
    </contour>
    <contour>
      <point x="249.5" y="582" type="curve" smooth="yes"/>
      <point x="249.5" y="441.5" type="line" smooth="yes"/>
      <point x="249.5" y="289.934"/>
      <point x="289.013" y="229.5"/>
      <point x="375.5" y="230" type="curve" smooth="yes"/>
      <point x="419" y="230"/>
      <point x="447.227" y="245.624"/>
      <point x="474.5" y="269" type="curve" smooth="yes"/>
      <point x="506" y="296" type="line"/>
      <point x="533" y="146" type="line"/>
      <point x="229" y="-106" type="line"/>
      <point x="251.5" y="-36.5" type="line"/>
      <point x="378" y="-222" type="line"/>
      <point x="284" y="-298" type="line"/>
      <point x="203.732" y="-250.768"/>
      <point x="144.287" y="-197.184"/>
      <point x="88.778" y="-121.383" type="curve"/>
      <point x="112.363" y="-14.4095" type="line"/>
      <point x="343" y="156" type="line"/>
      <point x="383" y="126" type="line"/>
      <point x="364.008" y="115"/>
      <point x="340.324" y="110.5"/>
      <point x="316" y="110.5" type="curve" smooth="yes"/>
      <point x="174.615" y="110.5"/>
      <point x="82" y="196"/>
      <point x="82" y="413" type="curve" smooth="yes"/>
      <point x="82" y="592" type="line" smooth="yes"/>
      <point x="82" y="862"/>
      <point x="191.608" y="974"/>
      <point x="420" y="974" type="curve" smooth="yes"/>
      <point x="491" y="974"/>
      <point x="571.038" y="967"/>
      <point x="640" y="953" type="curve"/>
      <point x="640" y="820" type="line"/>
      <point x="581" y="828.5"/>
      <point x="532" y="832.5"/>
      <point x="473" y="832.5" type="curve" smooth="yes"/>
      <point x="307.987" y="832.5"/>
      <point x="249.5" y="761.722"/>
    </contour>
    <contour>
      <point x="403.5" y="1154.5" type="line"/>
      <point x="393.5" y="1289.5" type="line"/>
      <point x="754" y="1289.5" type="line"/>
      <point x="764" y="1154.5" type="line"/>
    </contour>
    <contour>
      <point x="640" y="1204" type="line"/>
      <point x="640" y="988.5" type="line"/>
      <point x="476" y="988.5" type="line"/>
      <point x="476" y="1204" type="line"/>
    </contour>
  </outline>
  <guideline angle="90" x="1217" y="0"/>
  <guideline angle="0" x="0" y="661"/>
  <guideline angle="0" x="0" y="-146"/>
  <guideline angle="90" x="525" y="0"/>
</glyph>
<glyph name="DaYa.dv" format="2">
  <advance width="970"/>
  <anchor x="770" y="23" name="bottom"/>
  <anchor x="761.5" y="23" name="bottom2"/>
  <anchor x="854" y="23" name="bottom3"/>
  <anchor x="769" y="1258.5" name="top"/>
  <outline>
    <contour>
      <point x="-23" y="1154.5" type="line"/>
      <point x="-33" y="1289.5" type="line"/>
      <point x="993" y="1289.5" type="line"/>
      <point x="1003" y="1154.5" type="line"/>
    </contour>
    <contour>
      <point x="854" y="1203.5" type="line"/>
      <point x="854" y="0" type="line"/>
      <point x="684.5" y="0" type="line"/>
      <point x="684.5" y="1203.5" type="line"/>
    </contour>
    <contour>
      <point x="356" y="880.5" type="line"/>
      <point x="356" y="1206" type="line"/>
      <point x="518" y="1206" type="line"/>
      <point x="518" y="856" type="line"/>
    </contour>
    <contour>
      <point x="449.653" y="218.5" type="curve" smooth="yes"/>
      <point x="576.775" y="218.5"/>
      <point x="660.695" y="265.5"/>
      <point x="689" y="367.5" type="curve"/>
      <point x="695.5" y="219" type="line"/>
      <point x="674" y="219" type="line"/>
      <point x="644.461" y="123"/>
      <point x="557.88" y="65.5"/>
      <point x="403.375" y="65.5" type="curve" smooth="yes"/>
      <point x="191.102" y="65.5"/>
      <point x="83.5" y="150.909"/>
      <point x="83.5" y="325.771" type="curve" smooth="yes"/>
      <point x="83.5" y="339.156" type="line" smooth="yes"/>
      <point x="83.5" y="452.329"/>
      <point x="127.358" y="528.402"/>
      <point x="251" y="545" type="curve"/>
      <point x="251" y="553" type="line"/>
      <point x="125.963" y="570.098"/>
      <point x="75.5" y="632.665"/>
      <point x="75.5" y="753.441" type="curve" smooth="yes"/>
      <point x="75.5" y="764.472" type="line" smooth="yes"/>
      <point x="75.5" y="913.842"/>
      <point x="150.982" y="997.5"/>
      <point x="332" y="997.5" type="curve" smooth="yes"/>
      <point x="406.495" y="997.5"/>
      <point x="463.908" y="990"/>
      <point x="518" y="978" type="curve"/>
      <point x="518" y="847" type="line"/>
      <point x="473.347" y="853.818"/>
      <point x="433.16" y="857"/>
      <point x="389.5" y="857" type="curve" smooth="yes"/>
      <point x="281.11" y="857"/>
      <point x="246.5" y="819.352"/>
      <point x="246.5" y="743.125" type="curve" smooth="yes"/>
      <point x="246.5" y="735.362" type="line" smooth="yes"/>
      <point x="246.5" y="656.365"/>
      <point x="282.673" y="629.235"/>
      <point x="395" y="625.371" type="curve" smooth="yes"/>
      <point x="493" y="622" type="line"/>
      <point x="493" y="477" type="line"/>
      <point x="397.205" y="473.545" type="line" smooth="yes"/>
      <point x="290.648" y="469.702"/>
      <point x="254.5" y="435"/>
      <point x="254.5" y="355.883" type="curve" smooth="yes"/>
      <point x="254.5" y="345.208" type="line" smooth="yes"/>
      <point x="254.5" y="259.808"/>
      <point x="306.978" y="218.5"/>
    </contour>
  </outline>
  <guideline angle="90" x="619" y="0"/>
  <guideline angle="0" x="0" y="9"/>
  <guideline angle="90" x="624" y="0"/>
  <guideline angle="90" x="607" y="0"/>
  <guideline angle="0" x="0" y="1262"/>
  <guideline angle="90" x="642" y="0"/>
  <guideline angle="0" x="0" y="18"/>
</glyph>
<glyph name="DhaMa.dv" format="2">
  <advance width="1451"/>
  <anchor x="1251" y="23" name="bottom"/>
  <anchor x="1242.5" y="23" name="bottom2"/>
  <anchor x="1335" y="23" name="bottom3"/>
  <anchor x="1250" y="42.5" name="bottom5"/>
  <anchor x="1248.5" y="1258.5" name="top"/>
  <outline>
    <contour>
      <point x="90" y="432" type="line" smooth="yes"/>
      <point x="90" y="564"/>
      <point x="143.957" y="641.727"/>
      <point x="297" y="654" type="curve"/>
      <point x="297" y="662" type="line"/>
      <point x="141.748" y="682"/>
      <point x="71" y="754"/>
      <point x="71" y="941" type="curve" smooth="yes"/>
      <point x="71" y="1030" type="line" smooth="yes"/>
      <point x="71" y="1221"/>
      <point x="154" y="1309"/>
      <point x="316.551" y="1309" type="curve" smooth="yes"/>
      <point x="476.561" y="1309"/>
      <point x="546" y="1225"/>
      <point x="546" y="1053" type="curve" smooth="yes"/>
      <point x="546" y="988.323"/>
      <point x="540" y="928.698"/>
      <point x="529" y="862" type="curve"/>
      <point x="390" y="862" type="line"/>
      <point x="390" y="1032.56" type="line" smooth="yes"/>
      <point x="390" y="1129.88"/>
      <point x="369.131" y="1167"/>
      <point x="315.469" y="1167" type="curve" smooth="yes"/>
      <point x="256.838" y="1167"/>
      <point x="231" y="1128.91"/>
      <point x="231" y="1030.69" type="curve" smooth="yes"/>
      <point x="231" y="937.478" type="line" smooth="yes"/>
      <point x="231" y="787.137"/>
      <point x="285.996" y="738.954"/>
      <point x="419" y="732.011" type="curve" smooth="yes"/>
      <point x="515" y="727" type="line"/>
      <point x="515" y="583" type="line"/>
      <point x="421" y="580" type="line" smooth="yes"/>
      <point x="310" y="576"/>
      <point x="262" y="538"/>
      <point x="262" y="454" type="curve" smooth="yes"/>
      <point x="262" y="438" type="line" smooth="yes"/>
      <point x="262" y="348"/>
      <point x="319.711" y="302"/>
      <point x="460.444" y="302" type="curve" smooth="yes"/>
      <point x="590.04" y="302"/>
      <point x="668" y="347.205"/>
      <point x="693" y="452" type="curve"/>
      <point x="726" y="316" type="line"/>
      <point x="703" y="316" type="line"/>
      <point x="669.593" y="210.942"/>
      <point x="580.561" y="149"/>
      <point x="428.169" y="149" type="curve" smooth="yes"/>
      <point x="202.29" y="149"/>
      <point x="90" y="237"/>
      <point x="90" y="414" type="curve" smooth="yes"/>
    </contour>
    <contour>
      <point x="1334.5" y="1203.5" type="line"/>
      <point x="1334.5" y="0" type="line"/>
      <point x="1165" y="0" type="line"/>
      <point x="1165" y="1203.5" type="line"/>
    </contour>
    <contour>
      <point x="1102.5" y="1154.5" type="line"/>
      <point x="1092.5" y="1289.5" type="line"/>
      <point x="1473.5" y="1289.5" type="line"/>
      <point x="1483.5" y="1154.5" type="line"/>
    </contour>
    <contour>
      <point x="1382.5" y="1154.5" type="line"/>
      <point x="621.5" y="1154.5" type="line"/>
      <point x="611.5" y="1289.5" type="line"/>
      <point x="1372" y="1289.5" type="line"/>
    </contour>
    <contour>
      <point x="1235" y="644" type="line"/>
      <point x="1235" y="498" type="line"/>
      <point x="777" y="498" type="line"/>
      <point x="777" y="644" type="line"/>
    </contour>
    <contour>
      <point x="902" y="1206" type="line"/>
      <point x="902" y="517" type="line"/>
      <point x="734" y="517" type="line"/>
      <point x="734" y="1206" type="line"/>
    </contour>
    <contour>
      <point x="762" y="142" type="line"/>
      <point x="713" y="285"/>
      <point x="683" y="412"/>
      <point x="671" y="583" type="curve"/>
      <point x="734" y="631" type="line"/>
      <point x="902" y="631" type="line"/>
      <point x="902" y="142" type="line"/>
    </contour>
  </outline>
  <guideline angle="90" x="1211" y="0"/>
  <guideline angle="0" x="0" y="9"/>
  <guideline angle="90" x="1216" y="0"/>
  <guideline angle="90" x="1199" y="0"/>
  <guideline angle="0" x="0" y="1262"/>
  <guideline angle="90" x="1249" y="0"/>
  <guideline angle="0" x="0" y="30"/>
</glyph>
<glyph name="DhaNa.dv" format="2">
  <advance width="969"/>
  <anchor x="769" y="-15" name="bottom"/>
  <anchor x="760" y="-15" name="bottom2"/>
  <anchor x="852.5" y="-15" name="bottom3"/>
  <anchor x="767.5" y="1258.5" name="top"/>
  <outline>
    <contour>
      <point x="852.5" y="1206" type="line"/>
      <point x="852.5" y="956" type="line"/>
      <point x="683" y="956" type="line"/>
      <point x="683" y="1206" type="line"/>
    </contour>
    <contour>
      <point x="621.5" y="1154.5" type="line"/>
      <point x="611.5" y="1289.5" type="line"/>
      <point x="991.5" y="1289.5" type="line"/>
      <point x="1001.5" y="1154.5" type="line"/>
    </contour>
    <contour>
      <point x="394" y="196" type="curve" smooth="yes"/>
      <point x="206.082" y="196"/>
      <point x="90" y="274.699"/>
      <point x="90" y="438" type="curve" smooth="yes"/>
      <point x="90" y="445" type="line" smooth="yes"/>
      <point x="90" y="567"/>
      <point x="143.957" y="643.545"/>
      <point x="297" y="655" type="curve"/>
      <point x="297" y="663" type="line"/>
      <point x="141.748" y="683"/>
      <point x="71" y="755"/>
      <point x="71" y="942" type="curve" smooth="yes"/>
      <point x="71" y="1031" type="line" smooth="yes"/>
      <point x="71" y="1225"/>
      <point x="155.534" y="1310"/>
      <point x="316.551" y="1310" type="curve" smooth="yes"/>
      <point x="476.561" y="1310"/>
      <point x="546" y="1226"/>
      <point x="546" y="1054" type="curve" smooth="yes"/>
      <point x="546" y="989.323"/>
      <point x="540" y="929.698"/>
      <point x="529" y="863" type="curve"/>
      <point x="390" y="863" type="line"/>
      <point x="390" y="1033.56" type="line" smooth="yes"/>
      <point x="390" y="1130.88"/>
      <point x="369.131" y="1168"/>
      <point x="315.469" y="1168" type="curve" smooth="yes"/>
      <point x="256.838" y="1168"/>
      <point x="231" y="1129.91"/>
      <point x="231" y="1031.69" type="curve" smooth="yes"/>
      <point x="231" y="938.478" type="line" smooth="yes"/>
      <point x="231" y="788.137"/>
      <point x="285.996" y="739.954"/>
      <point x="419" y="733.011" type="curve" smooth="yes"/>
      <point x="515" y="728" type="line"/>
      <point x="515" y="584" type="line"/>
      <point x="421" y="581" type="line" smooth="yes"/>
      <point x="309.984" y="577.457"/>
      <point x="262" y="539"/>
      <point x="262" y="455" type="curve" smooth="yes"/>
      <point x="262" y="448" type="line" smooth="yes"/>
      <point x="262" y="360.647"/>
      <point x="318.836" y="312"/>
      <point x="435" y="312" type="curve" smooth="yes"/>
      <point x="527" y="312"/>
      <point x="584.091" y="335.5"/>
      <point x="639.5" y="366" type="curve" smooth="yes"/>
      <point x="694" y="396" type="line"/>
      <point x="694" y="249" type="line"/>
      <point x="258" y="-12" type="line"/>
      <point x="293" y="62" type="line"/>
      <point x="401" y="-147" type="line"/>
      <point x="294" y="-210.5" type="line"/>
      <point x="215.592" y="-146.842"/>
      <point x="164.288" y="-91.4649"/>
      <point x="112.5" y="-4" type="curve"/>
      <point x="147.5" y="84.5" type="line"/>
      <point x="492" y="267" type="line"/>
      <point x="526.5" y="224" type="line"/>
      <point x="497" y="208"/>
      <point x="455.5" y="196"/>
    </contour>
    <contour>
      <point x="852.5" y="990.5" type="line"/>
      <point x="852.5" y="-38" type="line"/>
      <point x="683" y="-38" type="line"/>
      <point x="683" y="990.5" type="line"/>
    </contour>
  </outline>
  <guideline angle="90" x="635" y="0"/>
  <guideline angle="90" x="735" y="0"/>
</glyph>
<glyph name="DhaYa.dv" format="2">
  <advance width="1465"/>
  <anchor x="1263" y="23" name="bottom"/>
  <anchor x="1255.5" y="23" name="bottom2"/>
  <anchor x="1348" y="23" name="bottom3"/>
  <anchor x="1263" y="42.5" name="bottom5"/>
  <anchor x="1263" y="1258.5" name="top"/>
  <outline>
    <contour>
      <point x="1349" y="1203.5" type="line"/>
      <point x="1349" y="0" type="line"/>
      <point x="1179.5" y="0" type="line"/>
      <point x="1179.5" y="1203.5" type="line"/>
    </contour>
    <contour>
      <point x="1117" y="1154.5" type="line"/>
      <point x="1107" y="1289.5" type="line"/>
      <point x="1488" y="1289.5" type="line"/>
      <point x="1498" y="1154.5" type="line"/>
    </contour>
    <contour>
      <point x="611" y="1289.5" type="line"/>
      <point x="1390.5" y="1289.5" type="line"/>
      <point x="1401" y="1154.5" type="line"/>
      <point x="621.5" y="1154.5" type="line"/>
    </contour>
    <contour>
      <point x="948" y="1174.5" type="line"/>
      <point x="981" y="1128"/>
      <point x="990" y="1062"/>
      <point x="990" y="957.5" type="curve" smooth="yes"/>
      <point x="990" y="897" type="line" smooth="yes"/>
      <point x="990" y="696"/>
      <point x="924.958" y="616.635"/>
      <point x="755.5" y="611.5" type="curve" smooth="yes"/>
      <point x="722.5" y="610.5" type="line"/>
      <point x="657.5" y="735" type="line"/>
      <point x="679.5" y="735" type="line" smooth="yes"/>
      <point x="778.5" y="735"/>
      <point x="820.5" y="783.098"/>
      <point x="820.5" y="912" type="curve" smooth="yes"/>
      <point x="820.5" y="975" type="line" smooth="yes"/>
      <point x="820.5" y="1080"/>
      <point x="810.5" y="1130.84"/>
      <point x="779" y="1174.5" type="curve"/>
    </contour>
    <contour>
      <point x="657.5" y="551.5" type="line" smooth="yes"/>
      <point x="657.5" y="626.5"/>
      <point x="657.5" y="678.5"/>
      <point x="657.5" y="735" type="curve"/>
      <point x="820" y="687" type="line"/>
      <point x="820" y="538" type="line" smooth="yes"/>
      <point x="820" y="399"/>
      <point x="875.331" y="338"/>
      <point x="992" y="338" type="curve" smooth="yes"/>
      <point x="1101.69" y="338"/>
      <point x="1163" y="390"/>
      <point x="1184" y="499.5" type="curve"/>
      <point x="1186" y="332.5" type="line"/>
      <point x="1167" y="332.5" type="line"/>
      <point x="1142" y="244"/>
      <point x="1076.54" y="185"/>
      <point x="944.629" y="185" type="curve" smooth="yes"/>
      <point x="760.153" y="185"/>
      <point x="657.5" y="290.5"/>
      <point x="657.5" y="529" type="curve" smooth="yes"/>
    </contour>
    <contour>
      <point x="91" y="436.396" type="line" smooth="yes"/>
      <point x="91" y="565.782"/>
      <point x="144.957" y="641.97"/>
      <point x="298" y="654" type="curve"/>
      <point x="298" y="662" type="line"/>
      <point x="142.748" y="682"/>
      <point x="72" y="754"/>
      <point x="72" y="941" type="curve" smooth="yes"/>
      <point x="72" y="1030" type="line" smooth="yes"/>
      <point x="72" y="1221"/>
      <point x="155" y="1309"/>
      <point x="317.551" y="1309" type="curve" smooth="yes"/>
      <point x="477.561" y="1309"/>
      <point x="547" y="1225"/>
      <point x="547" y="1053" type="curve" smooth="yes"/>
      <point x="547" y="988.323"/>
      <point x="541" y="928.698"/>
      <point x="530" y="862" type="curve"/>
      <point x="391" y="862" type="line"/>
      <point x="391" y="1032.56" type="line" smooth="yes"/>
      <point x="391" y="1129.88"/>
      <point x="370.131" y="1167"/>
      <point x="316.469" y="1167" type="curve" smooth="yes"/>
      <point x="257.837" y="1167"/>
      <point x="232" y="1128.91"/>
      <point x="232" y="1030.69" type="curve" smooth="yes"/>
      <point x="232" y="937.478" type="line" smooth="yes"/>
      <point x="232" y="787.137"/>
      <point x="286.996" y="738.954"/>
      <point x="420" y="732.011" type="curve" smooth="yes"/>
      <point x="516" y="727" type="line"/>
      <point x="516" y="583" type="line"/>
      <point x="422" y="580.107" type="line" smooth="yes"/>
      <point x="310.986" y="576.69"/>
      <point x="263" y="539.601"/>
      <point x="263" y="458.591" type="curve" smooth="yes"/>
      <point x="263" y="443.16" type="line" smooth="yes"/>
      <point x="263" y="356.363"/>
      <point x="318.012" y="312"/>
      <point x="452.163" y="312" type="curve" smooth="yes"/>
      <point x="575.699" y="312"/>
      <point x="651" y="357.205"/>
      <point x="672" y="462" type="curve"/>
      <point x="707" y="327" type="line"/>
      <point x="686" y="327" type="line"/>
      <point x="651" y="217.926"/>
      <point x="572.017" y="159"/>
      <point x="418.835" y="159" type="curve" smooth="yes"/>
      <point x="200.19" y="159"/>
      <point x="91" y="245.257"/>
      <point x="91" y="418.752" type="curve" smooth="yes"/>
    </contour>
  </outline>
  <guideline angle="90" x="1225.5" y="0"/>
  <guideline angle="0" x="0" y="9"/>
  <guideline angle="90" x="1230.5" y="0"/>
  <guideline angle="90" x="1213.5" y="0"/>
  <guideline angle="0" x="0" y="1262"/>
  <guideline angle="90" x="1263.5" y="0"/>
  <guideline angle="0" x="0" y="30"/>
</glyph>
<glyph name="GaBa.dv" format="2">
  <advance width="1287"/>
  <anchor x="1087" y="23" name="bottom"/>
  <anchor x="1078.5" y="23" name="bottom2"/>
  <anchor x="1171" y="23" name="bottom3"/>
  <anchor x="1086" y="42.5" name="bottom5"/>
  <anchor x="1084.5" y="1258.5" name="top"/>
  <outline>
    <contour>
      <point x="1170.5" y="1203.5" type="line"/>
      <point x="1170.5" y="0" type="line"/>
      <point x="1001" y="0" type="line"/>
      <point x="1001" y="1203.5" type="line"/>
    </contour>
    <contour>
      <point x="938.5" y="1154.5" type="line"/>
      <point x="928.5" y="1289.5" type="line"/>
      <point x="1309.5" y="1289.5" type="line"/>
      <point x="1319.5" y="1154.5" type="line"/>
    </contour>
    <contour>
      <point x="411" y="1155" type="line"/>
      <point x="401" y="1290" type="line"/>
      <point x="1309" y="1290" type="line"/>
      <point x="1319" y="1155" type="line"/>
    </contour>
    <contour>
      <point x="656" y="835" type="line"/>
      <point x="752" y="891" type="line"/>
      <point x="1019" y="345" type="line"/>
      <point x="932" y="277" type="line"/>
    </contour>
    <contour>
      <point x="516" y="474" type="curve" smooth="yes"/>
      <point x="516" y="654" type="line" smooth="yes"/>
      <point x="516" y="884"/>
      <point x="621" y="993"/>
      <point x="806" y="993" type="curve" smooth="yes"/>
      <point x="845" y="993"/>
      <point x="880" y="988"/>
      <point x="914" y="977" type="curve"/>
      <point x="926" y="838" type="line"/>
      <point x="894.629" y="846.308"/>
      <point x="863.224" y="850"/>
      <point x="831" y="850" type="curve" smooth="yes"/>
      <point x="726" y="850"/>
      <point x="682" y="801"/>
      <point x="682" y="649" type="curve" smooth="yes"/>
      <point x="682" y="491.267" type="line" smooth="yes"/>
      <point x="682" y="343.784"/>
      <point x="735.378" y="285"/>
      <point x="835" y="285" type="curve" smooth="yes"/>
      <point x="927.791" y="285"/>
      <point x="984.419" y="328.391"/>
      <point x="1003" y="421" type="curve"/>
      <point x="1016" y="268" type="line"/>
      <point x="990" y="268" type="line"/>
      <point x="961.59" y="190.073"/>
      <point x="893.424" y="137"/>
      <point x="782" y="137" type="curve" smooth="yes"/>
      <point x="609.538" y="137"/>
      <point x="516" y="244"/>
    </contour>
    <contour>
      <point x="-20" y="1154.5" type="line"/>
      <point x="-30" y="1289.5" type="line"/>
      <point x="465" y="1289.5" type="line"/>
      <point x="475" y="1154.5" type="line"/>
    </contour>
    <contour>
      <point x="306.5" y="1174" type="line"/>
      <point x="341" y="1112.5"/>
      <point x="351" y="1027"/>
      <point x="351" y="838" type="curve" smooth="yes"/>
      <point x="351" y="684" type="line" smooth="yes"/>
      <point x="351" y="391.335"/>
      <point x="272.454" y="294.5"/>
      <point x="114" y="294.5" type="curve" smooth="yes"/>
      <point x="86.3061" y="294.5"/>
      <point x="56.0491" y="299.409"/>
      <point x="34" y="308" type="curve"/>
      <point x="27" y="467.5" type="line"/>
      <point x="39.6894" y="462.729"/>
      <point x="53.8106" y="461.5"/>
      <point x="68.5" y="461.5" type="curve" smooth="yes"/>
      <point x="147.389" y="461.5"/>
      <point x="180.5" y="504.943"/>
      <point x="180.5" y="709.5" type="curve" smooth="yes"/>
      <point x="180.5" y="857.5" type="line" smooth="yes"/>
      <point x="180.5" y="1024.5"/>
      <point x="171.5" y="1113.5"/>
      <point x="135.5" y="1174" type="curve"/>
    </contour>
  </outline>
  <guideline angle="0" x="0" y="119"/>
  <guideline angle="90" x="1047" y="0"/>
  <guideline angle="0" x="0" y="9"/>
  <guideline angle="90" x="1052" y="0"/>
  <guideline angle="90" x="1035" y="0"/>
  <guideline angle="0" x="0" y="1262"/>
  <guideline angle="90" x="1085" y="0"/>
  <guideline angle="0" x="0" y="30"/>
  <guideline angle="0" x="0" y="119"/>
</glyph>
